<svg viewBox="0 0 120 120" xmlns="http://www.w3.org/2000/svg">
<rect x="0" y="0" width="120" height="120" fill="rgb(255,255,255,1)" />
<g transform="">
<g transform="translate(110,10) scale(-1, 1)"><g transform="" style="fill: rgb(0, 0, 0);">
<path d="M99.996,19.713C91.358,15.453,84.6,8.737,80.128,0H18.215c-0.803,0.206-1.532,0.384-2.137,0.531l-0.179,0.044
		c-1.626,0.402-3.309,0.818-4.205,1.198C9.353,2.762,7.172,4.889,5.12,7.086c-1.909,2.033-3.15,4.217-3.784,6.661l-0.16,0.734
		C0.633,16.928,0.019,19.698,0,21.349l0.114,32.409l-0.11,26.531C8.631,84.544,15.389,91.257,19.868,100h61.938
		c0.821-0.213,1.55-0.394,2.116-0.53l0.179-0.044c1.628-0.403,3.312-0.819,4.244-1.213c2.295-0.965,4.489-3.102,6.514-5.262
		c1.927-2.057,3.177-4.258,3.81-6.718l0.155-0.714c0.542-2.446,1.157-5.217,1.176-6.868l-0.114-32.409L99.996,19.713z"/>
</g></g></g></svg>