<svg viewBox="0 0 120 120" xmlns="http://www.w3.org/2000/svg">
<rect x="0" y="0" width="120" height="120" fill="rgb(255,255,255,1)" />
<g transform="">
<g transform="translate(110,10) scale(-1, 1)"><g transform="" style="fill: rgb(0, 0, 0);">
<polygon points="96.309,94.77 100,88.374 96.309,81.979 100,75.583 96.309,69.188 100,62.791 96.309,56.396 100,50 96.309,43.604 
		100,37.208 96.309,30.813 100,24.418 96.309,18.023 100,11.627 96.309,5.231 98.409,1.59 94.77,3.693 88.374,0 81.979,3.693 
		75.583,0 69.188,3.693 62.791,0 56.396,3.693 50,0 43.604,3.693 37.208,0 30.813,3.693 24.418,0 18.023,3.693 11.627,0 
		5.231,3.693 1.591,1.591 3.693,5.231 0,11.627 3.693,18.023 0,24.418 3.693,30.813 0,37.208 3.693,43.604 0,50 3.693,56.396 
		0,62.791 3.693,69.188 0,75.583 3.693,81.979 0,88.374 3.693,94.77 1.59,98.409 5.231,96.309 11.627,100 18.023,96.309 24.418,100 
		30.813,96.309 37.208,100 43.604,96.309 50,100 56.396,96.309 62.791,100 69.188,96.309 75.583,100 81.979,96.309 88.374,100 
		94.77,96.309 98.409,98.409 	"/>
</g></g></g></svg>