<svg viewBox="0 0 120 120" xmlns="http://www.w3.org/2000/svg">
<rect x="0" y="0" width="120" height="120" fill="rgb(255,255,255,1)" />
<g transform="">
<g transform="translate(110,10) scale(-1, 1)"><g transform="" style="fill: rgb(0, 0, 0);">
<path d="M100.106,9.15c-1.488,0.196-1.372-3.001-1.583-5.262l-1.567,0.406c1.156-0.47-0.028-1.336-1.721-1.639
		c-4.87-0.563-3.902,3.094-7.679,1.2c0.549,0.04,0.64-0.193,1.197-0.155l-1.942-0.833c-0.41,3.951-11.443-2.518-11.86,1.438
		c-2.773-1.596-0.195-0.952,3.361-2.82l-5.088,0.367c0.063,0.04-1.837,0.418-0.761,0.095c-3.868-1.666-1.126,0.345-3.219,1.378
		c-1.481-0.571,1.156-2.969-3.05-2.317c-5.944,0.772,1.129,2.886-2.443,3.352l-2.585-2.048c-4.559,1.565-7.969,0.115-11.815-0.144
		c-0.872,0.164-1.296,0.376-1.51,0.598c-4.091-0.887-8.58,2.001-11.662,1.329c0.719-0.421-1.765-0.317-2.138-0.813l-5.567,1.267
		c2.459-0.537,2.354-1.715,2.806-2.858c-1.744,0.121-2.559,0.767-3.744,0.918c0.722-0.415,1.452-0.838,0.532-1.366L22.226,3.19
		c0.339,0.2,1.014,0.276,1.574,0.328c-1.459,0.013-4.617,0.754-6.708-0.206c0.185-0.452,0.903-0.875,1.084-1.334
		c1.753,1.294,2.752,0.191,3.662-0.688c-4.033,0.201-1.005-0.3-2.944-1.135c-2.845,0.045-4.015,2.909-3.266,3.899
		c-3.211-0.449-4.231-1.187-7.516,0l0.625-2.473L5.723,1.145l2.444-1.008c-5.443-1.025-1.585,4.044-6.47,3.891
		C1.504,6.28,1.585,9.342,0.127,9.15c0.091,1.272,0.079,2.428-0.01,3.372c0.576,0.548,1.083,0.542,1.274-2.258l1.301,4.665
		C7.967,17.518,2.25,27.36,3.949,34.425c-0.203-0.499-0.486-0.628-0.649-0.689c1.689,6.275-1.423,14.073-0.581,15.53L1.27,49.825
		c2.225,5.367,2.414,6.002,1.514,12.402c-0.233-0.081-0.651-0.821-0.954,0.19c1.071,1.537,2.141,3.086,1.845,7.469L3.22,69.703
		l0.238,6.856c-4.464-0.051,2.732,11.738-2.11,13.803c0.883,0.906,1.356,3.498,1.763,5.77c2.66,0.833,0.273,4.632,5.056,3.731
		l-2.444-1.009l3.014-0.436l-0.625-2.473c3.285,1.187,4.305,0.448,7.516,0c-0.749,0.99,0.421,3.854,3.266,3.899
		c1.939-0.836-1.089-1.337,2.944-1.136c-0.91-0.879-1.909-1.982-3.662-0.688c-0.181-0.458-0.899-0.882-1.084-1.334
		c2.091-0.96,5.249-0.218,6.708-0.206c-0.56,0.053-1.235,0.129-1.574,0.329l5.843,1.947c0.919-0.528,0.19-0.952-0.532-1.367
		c1.185,0.151,2,0.797,3.744,0.918c-0.452-1.143-0.347-2.32-2.806-2.857l5.567,1.267c0.373-0.496,2.857-0.393,2.138-0.813
		c3.083-0.672,7.571,2.216,11.662,1.329c0.214,0.223,0.639,0.435,1.51,0.599c3.847-0.259,7.257-1.709,11.815-0.144l2.585-2.049
		c3.572,0.466-3.501,2.581,2.443,3.353c4.206,0.652,1.568-1.746,3.05-2.316c2.093,1.032-0.649,3.044,3.219,1.377
		c-1.076-0.323,0.824,0.056,0.761,0.096l5.088,0.367c-3.557-1.869-6.135-1.225-3.361-2.82c0.417,3.955,11.45-2.514,11.86,1.438
		l1.942-0.833c-0.558,0.038-0.648-0.195-1.197-0.155c3.776-1.894,2.809,1.764,7.679,1.2c0.757-0.135,1.397-0.385,1.788-0.661
		c0.05-0.275,0.1-0.561,0.152-0.849c-0.065-0.044-0.123-0.09-0.22-0.129l0.231,0.06c0.394-2.178,0.862-4.546,1.697-5.403
		c-4.842-2.064,2.354-13.854-2.109-13.803l0.238-6.856l-0.455,0.183c-0.296-4.383,0.774-5.932,1.845-7.469
		c-0.303-1.012-0.721-0.271-0.953-0.19c-0.9-6.399-0.711-7.035,1.515-12.402l-1.449-0.559c0.841-1.457-2.271-9.255-0.582-15.53
		c-0.163,0.061-0.446,0.19-0.648,0.689c1.699-7.065-4.02-16.908,1.256-19.497l1.301-4.665c0.189,2.801,0.696,2.806,1.275,2.257
		C100.027,11.578,100.015,10.422,100.106,9.15z"/>
</g></g></g></svg>