<svg viewBox="0 0 120 120" xmlns="http://www.w3.org/2000/svg">
<rect x="0" y="0" width="120" height="120" fill="rgb(255,255,255,1)" />
<g transform="">
<g transform="translate(110,10) scale(-1, 1)"><g transform="" style="fill: rgb(0, 0, 0);">

<path d="M97.623,2.377L96.25,0h-7.5l-1.229,2.127L83.837,0l-4.833,2.791L74.17,0l-4.834,2.791L64.502,0l-4.834,2.791L54.834,0
		L50,2.791L45.166,0l-4.834,2.791L35.498,0l-4.833,2.791L25.831,0l-4.834,2.791L16.163,0l-3.685,2.127L11.25,0h-7.5L2.377,2.377
		L0,3.75v7.5l2.127,1.228L0,16.163l2.791,4.834L0,25.831l2.791,4.833L0,35.498l2.791,4.834L0,45.166L2.791,50L0,54.834l2.791,4.834
		L0,64.502l2.791,4.834L0,74.17l2.791,4.834L0,83.837l2.127,3.685L0,88.75v7.5l2.377,1.373L3.75,100h7.5l1.228-2.127L16.163,100
		l4.834-2.791L25.831,100l4.833-2.791L35.498,100l4.834-2.791L45.166,100L50,97.209L54.834,100l4.834-2.791L64.502,100l4.834-2.791
		L74.17,100l4.834-2.791L83.837,100l3.685-2.127L88.75,100h7.5l1.373-2.377L100,96.25v-7.5l-2.127-1.229L100,83.837l-2.791-4.833
		L100,74.17l-2.791-4.834L100,64.502l-2.791-4.834L100,54.834L97.209,50L100,45.166l-2.791-4.834L100,35.498l-2.791-4.833
		L100,25.831l-2.791-4.834L100,16.163l-2.127-3.685L100,11.25v-7.5L97.623,2.377z M79.004,87.791L74.17,85l-4.834,2.791L64.502,85
		l-4.834,2.791L54.834,85L50,87.791L45.166,85l-4.834,2.791L35.498,85l-4.833,2.791L25.831,85l-4.834,2.791L16.163,85l-2.751,1.589
		L15,83.837l-2.791-4.833L15,74.17l-2.791-4.834L15,64.502l-2.791-4.834L15,54.834L12.209,50L15,45.166l-2.791-4.834L15,35.498
		l-2.791-4.833L15,25.831l-2.791-4.834L15,16.163l-1.588-2.751L16.163,15l4.834-2.791L25.831,15l4.833-2.791L35.498,15l4.834-2.791
		L45.166,15L50,12.209L54.834,15l4.834-2.791L64.502,15l4.834-2.791L74.17,15l4.834-2.791L83.837,15l2.752-1.589L85,16.163
		l2.791,4.834L85,25.831l2.791,4.833L85,35.498l2.791,4.834L85,45.166L87.791,50L85,54.834l2.791,4.834L85,64.502l2.791,4.834
		L85,74.17l2.791,4.834L85,83.837l1.589,2.752L83.837,85L79.004,87.791z"/>

</g></g></g></svg>