<svg viewBox="0 0 120 120" xmlns="http://www.w3.org/2000/svg">
<rect x="0" y="0" width="120" height="120" fill="rgb(255,255,255,1)" />
<g transform="">
<g transform="translate(10,10) scale(1, 1)"><g transform="" style="fill: rgb(0, 0, 0);">

<!-- SHAPE 3 -->
<path d="M100,21.667c0-3.284-2.113-6.068-5.053-7.083C97.887,13.567,100,10.784,100,7.5c0-4.144-3.357-7.5-7.5-7.5
		c-3.284,0-6.066,2.112-7.083,5.051C84.4,2.112,81.618,0,78.334,0c-3.285,0-6.068,2.114-7.084,5.054C70.234,2.114,67.451,0,64.166,0
		c-3.284,0-6.066,2.112-7.083,5.051C56.066,2.112,53.284,0,50,0s-6.068,2.112-7.083,5.052C41.9,2.112,39.117,0,35.833,0
		s-6.067,2.112-7.083,5.051C27.734,2.112,24.951,0,21.667,0s-6.068,2.114-7.083,5.053C13.568,2.114,10.784,0,7.5,0
		C3.357,0,0,3.356,0,7.5c0,3.284,2.114,6.067,5.053,7.083C2.114,15.599,0,18.383,0,21.667s2.113,6.066,5.051,7.083
		C2.113,29.766,0,32.549,0,35.833s2.113,6.066,5.052,7.083C2.113,43.932,0,46.715,0,50s2.113,6.068,5.051,7.082
		C2.113,58.1,0,60.881,0,64.166s2.114,6.068,5.054,7.084C2.114,72.266,0,75.049,0,78.334c0,3.283,2.113,6.066,5.051,7.082
		C2.113,86.434,0,89.215,0,92.5c0,4.143,3.357,7.5,7.5,7.5c0.518,0,1.023-0.053,1.512-0.152c2.608-0.533,4.716-2.426,5.572-4.898
		c1.015,2.938,3.799,5.051,7.083,5.051s6.067-2.111,7.083-5.051c1.016,2.938,3.799,5.051,7.083,5.051s6.067-2.111,7.083-5.051
		C43.932,97.887,46.715,100,50,100s6.068-2.113,7.083-5.053C58.1,97.885,60.882,100,64.166,100c3.285,0,6.068-2.115,7.084-5.055
		c1.016,2.939,3.799,5.055,7.084,5.055c3.284,0,6.066-2.113,7.083-5.053C86.434,97.887,89.216,100,92.5,100
		c4.143,0,7.5-3.357,7.5-7.5c0-3.285-2.113-6.066-5.052-7.084C97.887,84.4,100,81.617,100,78.334c0-3.285-2.113-6.068-5.055-7.084
		c2.939-1.016,5.055-3.799,5.055-7.084s-2.113-6.066-5.052-7.084C97.887,56.066,100,53.283,100,50c0-3.284-2.113-6.068-5.052-7.083
		c2.938-1.018,5.052-3.8,5.052-7.084s-2.113-6.067-5.052-7.083C97.887,27.733,100,24.951,100,21.667z M90.052,85.416
		c-2.17,0.75-3.885,2.465-4.635,4.635C84.4,87.113,81.618,85,78.334,85c-3.285,0-6.068,2.113-7.084,5.055
		C70.234,87.113,67.451,85,64.166,85c-3.284,0-6.066,2.113-7.083,5.051C56.066,87.113,53.284,85,50,85s-6.068,2.113-7.083,5.051
		C41.9,87.113,39.117,85,35.833,85s-6.067,2.113-7.083,5.051C27.734,87.113,24.951,85,21.667,85s-6.068,2.113-7.083,5.051
		c-0.75-2.17-2.465-3.885-4.635-4.635C12.887,84.4,15,81.617,15,78.334c0-3.285-2.115-6.068-5.055-7.084
		C12.886,70.234,15,67.451,15,64.166s-2.114-6.066-5.052-7.084C12.887,56.066,15,53.283,15,50c0-3.284-2.113-6.068-5.052-7.083
		c2.939-1.018,5.052-3.8,5.052-7.084s-2.113-6.067-5.051-7.083C12.887,27.733,15,24.951,15,21.667s-2.114-6.068-5.053-7.083
		c2.171-0.75,3.886-2.465,4.636-4.636c1.016,2.938,3.8,5.052,7.084,5.052s6.067-2.113,7.083-5.051
		C29.766,12.887,32.549,15,35.833,15s6.067-2.113,7.083-5.052C43.932,12.887,46.715,15,50,15s6.068-2.113,7.083-5.051
		C58.1,12.887,60.882,15,64.166,15c3.285,0,6.068-2.114,7.084-5.055C72.266,12.886,75.049,15,78.334,15
		c3.284,0,6.066-2.113,7.083-5.051c0.75,2.17,2.465,3.885,4.636,4.635C87.113,15.599,85,18.383,85,21.667s2.113,6.066,5.052,7.083
		C87.113,29.766,85,32.549,85,35.833s2.113,6.066,5.052,7.083C87.113,43.932,85,46.715,85,50s2.113,6.068,5.052,7.082
		C87.113,58.1,85,60.881,85,64.166s2.113,6.068,5.055,7.084C87.113,72.266,85,75.049,85,78.334C85,81.617,87.113,84.4,90.052,85.416
		z"/>
</g></g></g></svg>