<svg viewBox="0 0 120 120" xmlns="http://www.w3.org/2000/svg">
<rect x="0" y="0" width="120" height="120" fill="rgb(255,255,255,1)" />
<g transform="">
<g transform="translate(110,10) scale(-1, 1)"><g transform="" style="fill: rgb(0, 0, 0);">
<path d="M100,27.994c0-6.328-2.49-10.162-7.49-12.305c-4.319-1.842-7.38-5.196-9.109-9.992C82.01,1.822,79.14-0.06,74.64-0.06
		c-0.029,0-0.06,0-0.09,0H25.83c-0.06,0.01-0.13,0-0.19,0.02c-0.98,0.3-2,0.55-2.99,0.791c-1.74,0.431-3.55,0.871-5.3,1.612
		c-4.22,1.782-7.27,4.666-9.7,7.269c-3.3,3.514-5.46,7.579-6.45,12.064l-0.02,0.13C0.6,24.439,0.01,27.153,0,29.866l0.08,22.757
		L0,71.887c0,6.327,2.49,10.161,7.49,12.305c4.32,1.842,7.38,5.206,9.11,9.991c1.39,3.875,4.26,5.757,8.76,5.757
		c0.03,0,0.06,0,0.09,0c0.12,0,0.25,0,0.38,0h48.34c0,0,0,0,0.01,0h0.181v-0.02c0.979-0.29,2-0.551,2.989-0.791
		c1.74-0.431,3.551-0.871,5.301-1.611c4.22-1.772,7.27-4.666,9.699-7.259c3.301-3.524,5.46-7.59,6.45-12.074l0.021-0.131
		c0.58-2.613,1.17-5.316,1.18-8.039l-0.08-22.758L100,27.994z M84.177,74.803l-0.108,0.5c-0.443,1.722-1.318,3.263-2.667,4.702
		c-1.417,1.513-2.953,3.008-4.56,3.684c-0.652,0.275-1.831,0.566-2.971,0.849l-0.125,0.031c-0.396,0.096-0.906,0.222-1.481,0.371
		H28.908c-3.136-6.12-7.866-10.819-13.905-13.798L15.08,52.57L15,29.884c0.013-1.155,0.443-3.094,0.824-4.807l0.112-0.514
		c0.443-1.71,1.312-3.239,2.648-4.662c1.437-1.539,2.963-3.027,4.602-3.719c0.627-0.266,1.805-0.557,2.943-0.839l0.125-0.031
		c0.424-0.103,0.934-0.227,1.496-0.372H71.09c3.13,6.116,7.861,10.817,13.907,13.799l-0.077,18.57L85,69.995
		C84.987,71.151,84.557,73.091,84.177,74.803z"/>
</g></g></g></svg>