<svg viewBox="0 0 120 120" xmlns="http://www.w3.org/2000/svg">
<rect x="0" y="0" width="120" height="120" fill="rgb(255,255,255,1)" />
<g transform="">
<g transform="translate(110,10) scale(-1, 1)"><g transform="" style="fill: rgb(0, 0, 0);">

<path style="fill:none;"  d="M33.78,85H85V15H15.004l0.016,50.855C15.02,76.414,23.436,85,33.78,85z"/>
                    <path transform="translate(100 100) scale(-1 -1)" d="M100,100V65.859V34.141C100,25.65,100,0,100,0S76.46,0,66.25,0H0l0.02,65.859C0.02,84.68,15.16,100,33.78,100h32.47H100z
                    M85,85H33.78c-10.344,0-18.76-8.586-18.76-19.145L15.004,15H85V85z"/>

</g></g></g></svg>