<svg viewBox="0 0 126 126" xmlns="http://www.w3.org/2000/svg">
    <rect x="0" y="0" width="126" height="126" fill="rgba(0,0,0,0)" />
    <g transform="translate(0,0)"><g><defs><mask id="gmask"><g><rect style="fill: rgb(255, 255, 255);" x="54" y="0" width="6" height="6" /><rect style="fill: rgb(255, 255, 255);" x="60" y="0" width="6" height="6" /><rect style="fill: rgb(255, 255, 255);" x="66" y="0" width="6" height="6" /><rect style="fill: rgb(255, 255, 255);" x="72" y="0" width="6" height="6" /><rect style="fill: rgb(255, 255, 255);" x="48" y="6" width="6" height="6" /><rect style="fill: rgb(255, 255, 255);" x="72" y="6" width="6" height="6" /><rect style="fill: rgb(255, 255, 255);" x="54" y="12" width="6" height="6" /><rect style="fill: rgb(255, 255, 255);" x="66" y="12" width="6" height="6" /><rect style="fill: rgb(255, 255, 255);" x="72" y="12" width="6" height="6" /><rect style="fill: rgb(255, 255, 255);" x="60" y="18" width="6" height="6" /><rect style="fill: rgb(255, 255, 255);" x="66" y="18" width="6" height="6" /><rect style="fill: rgb(255, 255, 255);" x="48" y="24" width="6" height="6" /><rect style="fill: rgb(255, 255, 255);" x="72" y="24" width="6" height="6" /><rect style="fill: rgb(255, 255, 255);" x="54" y="30" width="6" height="6" /><rect style="fill: rgb(255, 255, 255);" x="72" y="30" width="6" height="6" /><rect style="fill: rgb(255, 255, 255);" x="48" y="36" width="6" height="6" /><rect style="fill: rgb(255, 255, 255);" x="60" y="36" width="6" height="6" /><rect style="fill: rgb(255, 255, 255);" x="72" y="36" width="6" height="6" /><rect style="fill: rgb(255, 255, 255);" x="66" y="42" width="6" height="6" /><rect style="fill: rgb(255, 255, 255);" x="72" y="42" width="6" height="6" /><rect style="fill: rgb(255, 255, 255);" x="0" y="48" width="6" height="6" /><rect style="fill: rgb(255, 255, 255);" x="12" y="48" width="6" height="6" /><rect style="fill: rgb(255, 255, 255);" x="24" y="48" width="6" height="6" /><rect style="fill: rgb(255, 255, 255);" x="36" y="48" width="6" height="6" /><rect style="fill: rgb(255, 255, 255);" x="60" y="48" width="6" height="6" /><rect style="fill: rgb(255, 255, 255);" x="66" y="48" width="6" height="6" /><rect style="fill: rgb(255, 255, 255);" x="96" y="48" width="6" height="6" /><rect style="fill: rgb(255, 255, 255);" x="114" y="48" width="6" height="6" /><rect style="fill: rgb(255, 255, 255);" x="6" y="54" width="6" height="6" /><rect style="fill: rgb(255, 255, 255);" x="18" y="54" width="6" height="6" /><rect style="fill: rgb(255, 255, 255);" x="24" y="54" width="6" height="6" /><rect style="fill: rgb(255, 255, 255);" x="48" y="54" width="6" height="6" /><rect style="fill: rgb(255, 255, 255);" x="54" y="54" width="6" height="6" /><rect style="fill: rgb(255, 255, 255);" x="84" y="54" width="6" height="6" /><rect style="fill: rgb(255, 255, 255);" x="90" y="54" width="6" height="6" /><rect style="fill: rgb(255, 255, 255);" x="102" y="54" width="6" height="6" /><rect style="fill: rgb(255, 255, 255);" x="108" y="54" width="6" height="6" /><rect style="fill: rgb(255, 255, 255);" x="120" y="54" width="6" height="6" /><rect style="fill: rgb(255, 255, 255);" x="0" y="60" width="6" height="6" /><rect style="fill: rgb(255, 255, 255);" x="12" y="60" width="6" height="6" /><rect style="fill: rgb(255, 255, 255);" x="24" y="60" width="6" height="6" /><rect style="fill: rgb(255, 255, 255);" x="36" y="60" width="6" height="6" /><rect style="fill: rgb(255, 255, 255);" x="42" y="60" width="6" height="6" /><rect style="fill: rgb(255, 255, 255);" x="54" y="60" width="6" height="6" /><rect style="fill: rgb(255, 255, 255);" x="72" y="60" width="6" height="6" /><rect style="fill: rgb(255, 255, 255);" x="96" y="60" width="6" height="6" /><rect style="fill: rgb(255, 255, 255);" x="102" y="60" width="6" height="6" /><rect style="fill: rgb(255, 255, 255);" x="108" y="60" width="6" height="6" /><rect style="fill: rgb(255, 255, 255);" x="114" y="60" width="6" height="6" /><rect style="fill: rgb(255, 255, 255);" x="120" y="60" width="6" height="6" /><rect style="fill: rgb(255, 255, 255);" x="6" y="66" width="6" height="6" /><rect style="fill: rgb(255, 255, 255);" x="12" y="66" width="6" height="6" /><rect style="fill: rgb(255, 255, 255);" x="24" y="66" width="6" height="6" /><rect style="fill: rgb(255, 255, 255);" x="42" y="66" width="6" height="6" /><rect style="fill: rgb(255, 255, 255);" x="54" y="66" width="6" height="6" /><rect style="fill: rgb(255, 255, 255);" x="60" y="66" width="6" height="6" /><rect style="fill: rgb(255, 255, 255);" x="84" y="66" width="6" height="6" /><rect style="fill: rgb(255, 255, 255);" x="12" y="72" width="6" height="6" /><rect style="fill: rgb(255, 255, 255);" x="18" y="72" width="6" height="6" /><rect style="fill: rgb(255, 255, 255);" x="30" y="72" width="6" height="6" /><rect style="fill: rgb(255, 255, 255);" x="36" y="72" width="6" height="6" /><rect style="fill: rgb(255, 255, 255);" x="48" y="72" width="6" height="6" /><rect style="fill: rgb(255, 255, 255);" x="54" y="72" width="6" height="6" /><rect style="fill: rgb(255, 255, 255);" x="72" y="72" width="6" height="6" /><rect style="fill: rgb(255, 255, 255);" x="84" y="72" width="6" height="6" /><rect style="fill: rgb(255, 255, 255);" x="96" y="72" width="6" height="6" /><rect style="fill: rgb(255, 255, 255);" x="102" y="72" width="6" height="6" /><rect style="fill: rgb(255, 255, 255);" x="108" y="72" width="6" height="6" /><rect style="fill: rgb(255, 255, 255);" x="114" y="72" width="6" height="6" /><rect style="fill: rgb(255, 255, 255);" x="48" y="78" width="6" height="6" /><rect style="fill: rgb(255, 255, 255);" x="66" y="78" width="6" height="6" /><rect style="fill: rgb(255, 255, 255);" x="78" y="78" width="6" height="6" /><rect style="fill: rgb(255, 255, 255);" x="90" y="78" width="6" height="6" /><rect style="fill: rgb(255, 255, 255);" x="96" y="78" width="6" height="6" /><rect style="fill: rgb(255, 255, 255);" x="108" y="78" width="6" height="6" /><rect style="fill: rgb(255, 255, 255);" x="114" y="78" width="6" height="6" /><rect style="fill: rgb(255, 255, 255);" x="120" y="78" width="6" height="6" /><rect style="fill: rgb(255, 255, 255);" x="54" y="84" width="6" height="6" /><rect style="fill: rgb(255, 255, 255);" x="60" y="84" width="6" height="6" /><rect style="fill: rgb(255, 255, 255);" x="66" y="84" width="6" height="6" /><rect style="fill: rgb(255, 255, 255);" x="78" y="84" width="6" height="6" /><rect style="fill: rgb(255, 255, 255);" x="84" y="84" width="6" height="6" /><rect style="fill: rgb(255, 255, 255);" x="90" y="84" width="6" height="6" /><rect style="fill: rgb(255, 255, 255);" x="96" y="84" width="6" height="6" /><rect style="fill: rgb(255, 255, 255);" x="102" y="84" width="6" height="6" /><rect style="fill: rgb(255, 255, 255);" x="114" y="84" width="6" height="6" /><rect style="fill: rgb(255, 255, 255);" x="120" y="84" width="6" height="6" /><rect style="fill: rgb(255, 255, 255);" x="54" y="90" width="6" height="6" /><rect style="fill: rgb(255, 255, 255);" x="66" y="90" width="6" height="6" /><rect style="fill: rgb(255, 255, 255);" x="72" y="90" width="6" height="6" /><rect style="fill: rgb(255, 255, 255);" x="78" y="90" width="6" height="6" /><rect style="fill: rgb(255, 255, 255);" x="90" y="90" width="6" height="6" /><rect style="fill: rgb(255, 255, 255);" x="120" y="90" width="6" height="6" /><rect style="fill: rgb(255, 255, 255);" x="48" y="96" width="6" height="6" /><rect style="fill: rgb(255, 255, 255);" x="60" y="96" width="6" height="6" /><rect style="fill: rgb(255, 255, 255);" x="66" y="96" width="6" height="6" /><rect style="fill: rgb(255, 255, 255);" x="78" y="96" width="6" height="6" /><rect style="fill: rgb(255, 255, 255);" x="84" y="96" width="6" height="6" /><rect style="fill: rgb(255, 255, 255);" x="90" y="96" width="6" height="6" /><rect style="fill: rgb(255, 255, 255);" x="96" y="96" width="6" height="6" /><rect style="fill: rgb(255, 255, 255);" x="114" y="96" width="6" height="6" /><rect style="fill: rgb(255, 255, 255);" x="120" y="96" width="6" height="6" /><rect style="fill: rgb(255, 255, 255);" x="84" y="102" width="6" height="6" /><rect style="fill: rgb(255, 255, 255);" x="96" y="102" width="6" height="6" /><rect style="fill: rgb(255, 255, 255);" x="114" y="102" width="6" height="6" /><rect style="fill: rgb(255, 255, 255);" x="48" y="108" width="6" height="6" /><rect style="fill: rgb(255, 255, 255);" x="60" y="108" width="6" height="6" /><rect style="fill: rgb(255, 255, 255);" x="72" y="108" width="6" height="6" /><rect style="fill: rgb(255, 255, 255);" x="90" y="108" width="6" height="6" /><rect style="fill: rgb(255, 255, 255);" x="96" y="108" width="6" height="6" /><rect style="fill: rgb(255, 255, 255);" x="108" y="108" width="6" height="6" /><rect style="fill: rgb(255, 255, 255);" x="120" y="108" width="6" height="6" /><rect style="fill: rgb(255, 255, 255);" x="54" y="114" width="6" height="6" /><rect style="fill: rgb(255, 255, 255);" x="60" y="114" width="6" height="6" /><rect style="fill: rgb(255, 255, 255);" x="84" y="114" width="6" height="6" /><rect style="fill: rgb(255, 255, 255);" x="114" y="114" width="6" height="6" /><rect style="fill: rgb(255, 255, 255);" x="48" y="120" width="6" height="6" /><rect style="fill: rgb(255, 255, 255);" x="60" y="120" width="6" height="6" /><rect style="fill: rgb(255, 255, 255);" x="72" y="120" width="6" height="6" /><rect style="fill: rgb(255, 255, 255);" x="84" y="120" width="6" height="6" /><rect style="fill: rgb(255, 255, 255);" x="96" y="120" width="6" height="6" /><rect style="fill: rgb(255, 255, 255);" x="114" y="120" width="6" height="6" /><rect style="fill: rgb(255, 255, 255);" x="120" y="120" width="6" height="6" /><g transform="translate(42,0) scale(-0.4204,0.4204)"><rect style="fill:rgb(255,255,255)" x="25" y="25" width="50" height="50"/></g>
            <g transform="translate(42,126) scale(-0.4204,-0.4204)"><rect style="fill:rgb(255,255,255)" x="25" y="25" width="50" height="50"/></g>
            <g transform="translate(84,0) scale(0.4204)"><rect style="fill:rgb(255,255,255)" x="25" y="25" width="50" height="50"/></g><g transform="translate(42,0) scale(-0.4204,0.4204)"><path style="fill:rgb(255,255,255);" d="M85,0H15H0v15v70v15h15h70h15V85V15V0H85z M85,85H15V15h70V85z"/></g>
                <g transform="translate(42,126) scale(-0.4204,-0.4204)"><path style="fill:rgb(255,255,255);" d="M85,0H15H0v15v70v15h15h70h15V85V15V0H85z M85,85H15V15h70V85z"/></g>
                <g transform="translate(84,0) scale(0.4204)"><path style="fill:rgb(255,255,255);" d="M85,0H15H0v15v70v15h15h70h15V85V15V0H85z M85,85H15V15h70V85z"/></g></g></mask>
            <radialGradient id="grad">
                <stop offset="0%" style="stop-color:rgba(0,0,0,1);" />
                <stop offset="100%" style="stop-color:rgba(2,119,189,1);" />
            </radialGradient>
            </defs></g><rect x="0" y="0" width="126" height="126" fill="url(#grad)" mask="url(#gmask)" /></g></svg>