<svg viewBox="0 0 160 160" xmlns="http://www.w3.org/2000/svg">
    <rect x="0" y="0" width="160" height="160" fill="rgba(0,0,0,0)" />
    <g transform="translate(5,5)"><g><defs><mask id="gmask"><g><path transform="translate(48 0) scale(0.06)" style="fill: rgb(255, 255, 255);fill-rule:evenodd;clip-rule:evenodd;" d="M49.984,99.824C45.848,69.47,28.497,53.961-0.345,49.773
                        c29.054-3.697,45.791-19.659,50.348-49.949c4.404,29.487,20.907,45.691,49.652,49.975C70.729,54.051,54.532,70.407,49.984,99.824z"/><path transform="translate(66 0) scale(0.06)" style="fill: rgb(255, 255, 255);fill-rule:evenodd;clip-rule:evenodd;" d="M49.984,99.824C45.848,69.47,28.497,53.961-0.345,49.773
                        c29.054-3.697,45.791-19.659,50.348-49.949c4.404,29.487,20.907,45.691,49.652,49.975C70.729,54.051,54.532,70.407,49.984,99.824z"/><path transform="translate(72 0) scale(0.06)" style="fill: rgb(255, 255, 255);fill-rule:evenodd;clip-rule:evenodd;" d="M49.984,99.824C45.848,69.47,28.497,53.961-0.345,49.773
                        c29.054-3.697,45.791-19.659,50.348-49.949c4.404,29.487,20.907,45.691,49.652,49.975C70.729,54.051,54.532,70.407,49.984,99.824z"/><path transform="translate(78 0) scale(0.06)" style="fill: rgb(255, 255, 255);fill-rule:evenodd;clip-rule:evenodd;" d="M49.984,99.824C45.848,69.47,28.497,53.961-0.345,49.773
                        c29.054-3.697,45.791-19.659,50.348-49.949c4.404,29.487,20.907,45.691,49.652,49.975C70.729,54.051,54.532,70.407,49.984,99.824z"/><path transform="translate(48 6) scale(0.06)" style="fill: rgb(255, 255, 255);fill-rule:evenodd;clip-rule:evenodd;" d="M49.984,99.824C45.848,69.47,28.497,53.961-0.345,49.773
                        c29.054-3.697,45.791-19.659,50.348-49.949c4.404,29.487,20.907,45.691,49.652,49.975C70.729,54.051,54.532,70.407,49.984,99.824z"/><path transform="translate(54 6) scale(0.06)" style="fill: rgb(255, 255, 255);fill-rule:evenodd;clip-rule:evenodd;" d="M49.984,99.824C45.848,69.47,28.497,53.961-0.345,49.773
                        c29.054-3.697,45.791-19.659,50.348-49.949c4.404,29.487,20.907,45.691,49.652,49.975C70.729,54.051,54.532,70.407,49.984,99.824z"/><path transform="translate(72 6) scale(0.06)" style="fill: rgb(255, 255, 255);fill-rule:evenodd;clip-rule:evenodd;" d="M49.984,99.824C45.848,69.47,28.497,53.961-0.345,49.773
                        c29.054-3.697,45.791-19.659,50.348-49.949c4.404,29.487,20.907,45.691,49.652,49.975C70.729,54.051,54.532,70.407,49.984,99.824z"/><path transform="translate(84 6) scale(0.06)" style="fill: rgb(255, 255, 255);fill-rule:evenodd;clip-rule:evenodd;" d="M49.984,99.824C45.848,69.47,28.497,53.961-0.345,49.773
                        c29.054-3.697,45.791-19.659,50.348-49.949c4.404,29.487,20.907,45.691,49.652,49.975C70.729,54.051,54.532,70.407,49.984,99.824z"/><path transform="translate(96 6) scale(0.06)" style="fill: rgb(255, 255, 255);fill-rule:evenodd;clip-rule:evenodd;" d="M49.984,99.824C45.848,69.47,28.497,53.961-0.345,49.773
                        c29.054-3.697,45.791-19.659,50.348-49.949c4.404,29.487,20.907,45.691,49.652,49.975C70.729,54.051,54.532,70.407,49.984,99.824z"/><path transform="translate(48 12) scale(0.06)" style="fill: rgb(255, 255, 255);fill-rule:evenodd;clip-rule:evenodd;" d="M49.984,99.824C45.848,69.47,28.497,53.961-0.345,49.773
                        c29.054-3.697,45.791-19.659,50.348-49.949c4.404,29.487,20.907,45.691,49.652,49.975C70.729,54.051,54.532,70.407,49.984,99.824z"/><path transform="translate(54 12) scale(0.06)" style="fill: rgb(255, 255, 255);fill-rule:evenodd;clip-rule:evenodd;" d="M49.984,99.824C45.848,69.47,28.497,53.961-0.345,49.773
                        c29.054-3.697,45.791-19.659,50.348-49.949c4.404,29.487,20.907,45.691,49.652,49.975C70.729,54.051,54.532,70.407,49.984,99.824z"/><path transform="translate(60 12) scale(0.06)" style="fill: rgb(255, 255, 255);fill-rule:evenodd;clip-rule:evenodd;" d="M49.984,99.824C45.848,69.47,28.497,53.961-0.345,49.773
                        c29.054-3.697,45.791-19.659,50.348-49.949c4.404,29.487,20.907,45.691,49.652,49.975C70.729,54.051,54.532,70.407,49.984,99.824z"/><path transform="translate(72 12) scale(0.06)" style="fill: rgb(255, 255, 255);fill-rule:evenodd;clip-rule:evenodd;" d="M49.984,99.824C45.848,69.47,28.497,53.961-0.345,49.773
                        c29.054-3.697,45.791-19.659,50.348-49.949c4.404,29.487,20.907,45.691,49.652,49.975C70.729,54.051,54.532,70.407,49.984,99.824z"/><path transform="translate(78 12) scale(0.06)" style="fill: rgb(255, 255, 255);fill-rule:evenodd;clip-rule:evenodd;" d="M49.984,99.824C45.848,69.47,28.497,53.961-0.345,49.773
                        c29.054-3.697,45.791-19.659,50.348-49.949c4.404,29.487,20.907,45.691,49.652,49.975C70.729,54.051,54.532,70.407,49.984,99.824z"/><path transform="translate(84 12) scale(0.06)" style="fill: rgb(255, 255, 255);fill-rule:evenodd;clip-rule:evenodd;" d="M49.984,99.824C45.848,69.47,28.497,53.961-0.345,49.773
                        c29.054-3.697,45.791-19.659,50.348-49.949c4.404,29.487,20.907,45.691,49.652,49.975C70.729,54.051,54.532,70.407,49.984,99.824z"/><path transform="translate(90 12) scale(0.06)" style="fill: rgb(255, 255, 255);fill-rule:evenodd;clip-rule:evenodd;" d="M49.984,99.824C45.848,69.47,28.497,53.961-0.345,49.773
                        c29.054-3.697,45.791-19.659,50.348-49.949c4.404,29.487,20.907,45.691,49.652,49.975C70.729,54.051,54.532,70.407,49.984,99.824z"/><path transform="translate(96 12) scale(0.06)" style="fill: rgb(255, 255, 255);fill-rule:evenodd;clip-rule:evenodd;" d="M49.984,99.824C45.848,69.47,28.497,53.961-0.345,49.773
                        c29.054-3.697,45.791-19.659,50.348-49.949c4.404,29.487,20.907,45.691,49.652,49.975C70.729,54.051,54.532,70.407,49.984,99.824z"/><path transform="translate(78 18) scale(0.06)" style="fill: rgb(255, 255, 255);fill-rule:evenodd;clip-rule:evenodd;" d="M49.984,99.824C45.848,69.47,28.497,53.961-0.345,49.773
                        c29.054-3.697,45.791-19.659,50.348-49.949c4.404,29.487,20.907,45.691,49.652,49.975C70.729,54.051,54.532,70.407,49.984,99.824z"/><path transform="translate(84 18) scale(0.06)" style="fill: rgb(255, 255, 255);fill-rule:evenodd;clip-rule:evenodd;" d="M49.984,99.824C45.848,69.47,28.497,53.961-0.345,49.773
                        c29.054-3.697,45.791-19.659,50.348-49.949c4.404,29.487,20.907,45.691,49.652,49.975C70.729,54.051,54.532,70.407,49.984,99.824z"/><path transform="translate(90 18) scale(0.06)" style="fill: rgb(255, 255, 255);fill-rule:evenodd;clip-rule:evenodd;" d="M49.984,99.824C45.848,69.47,28.497,53.961-0.345,49.773
                        c29.054-3.697,45.791-19.659,50.348-49.949c4.404,29.487,20.907,45.691,49.652,49.975C70.729,54.051,54.532,70.407,49.984,99.824z"/><path transform="translate(96 18) scale(0.06)" style="fill: rgb(255, 255, 255);fill-rule:evenodd;clip-rule:evenodd;" d="M49.984,99.824C45.848,69.47,28.497,53.961-0.345,49.773
                        c29.054-3.697,45.791-19.659,50.348-49.949c4.404,29.487,20.907,45.691,49.652,49.975C70.729,54.051,54.532,70.407,49.984,99.824z"/><path transform="translate(48 24) scale(0.06)" style="fill: rgb(255, 255, 255);fill-rule:evenodd;clip-rule:evenodd;" d="M49.984,99.824C45.848,69.47,28.497,53.961-0.345,49.773
                        c29.054-3.697,45.791-19.659,50.348-49.949c4.404,29.487,20.907,45.691,49.652,49.975C70.729,54.051,54.532,70.407,49.984,99.824z"/><path transform="translate(54 24) scale(0.06)" style="fill: rgb(255, 255, 255);fill-rule:evenodd;clip-rule:evenodd;" d="M49.984,99.824C45.848,69.47,28.497,53.961-0.345,49.773
                        c29.054-3.697,45.791-19.659,50.348-49.949c4.404,29.487,20.907,45.691,49.652,49.975C70.729,54.051,54.532,70.407,49.984,99.824z"/><path transform="translate(66 24) scale(0.06)" style="fill: rgb(255, 255, 255);fill-rule:evenodd;clip-rule:evenodd;" d="M49.984,99.824C45.848,69.47,28.497,53.961-0.345,49.773
                        c29.054-3.697,45.791-19.659,50.348-49.949c4.404,29.487,20.907,45.691,49.652,49.975C70.729,54.051,54.532,70.407,49.984,99.824z"/><path transform="translate(78 24) scale(0.06)" style="fill: rgb(255, 255, 255);fill-rule:evenodd;clip-rule:evenodd;" d="M49.984,99.824C45.848,69.47,28.497,53.961-0.345,49.773
                        c29.054-3.697,45.791-19.659,50.348-49.949c4.404,29.487,20.907,45.691,49.652,49.975C70.729,54.051,54.532,70.407,49.984,99.824z"/><path transform="translate(84 24) scale(0.06)" style="fill: rgb(255, 255, 255);fill-rule:evenodd;clip-rule:evenodd;" d="M49.984,99.824C45.848,69.47,28.497,53.961-0.345,49.773
                        c29.054-3.697,45.791-19.659,50.348-49.949c4.404,29.487,20.907,45.691,49.652,49.975C70.729,54.051,54.532,70.407,49.984,99.824z"/><path transform="translate(96 24) scale(0.06)" style="fill: rgb(255, 255, 255);fill-rule:evenodd;clip-rule:evenodd;" d="M49.984,99.824C45.848,69.47,28.497,53.961-0.345,49.773
                        c29.054-3.697,45.791-19.659,50.348-49.949c4.404,29.487,20.907,45.691,49.652,49.975C70.729,54.051,54.532,70.407,49.984,99.824z"/><path transform="translate(66 30) scale(0.06)" style="fill: rgb(255, 255, 255);fill-rule:evenodd;clip-rule:evenodd;" d="M49.984,99.824C45.848,69.47,28.497,53.961-0.345,49.773
                        c29.054-3.697,45.791-19.659,50.348-49.949c4.404,29.487,20.907,45.691,49.652,49.975C70.729,54.051,54.532,70.407,49.984,99.824z"/><path transform="translate(78 30) scale(0.06)" style="fill: rgb(255, 255, 255);fill-rule:evenodd;clip-rule:evenodd;" d="M49.984,99.824C45.848,69.47,28.497,53.961-0.345,49.773
                        c29.054-3.697,45.791-19.659,50.348-49.949c4.404,29.487,20.907,45.691,49.652,49.975C70.729,54.051,54.532,70.407,49.984,99.824z"/><path transform="translate(84 30) scale(0.06)" style="fill: rgb(255, 255, 255);fill-rule:evenodd;clip-rule:evenodd;" d="M49.984,99.824C45.848,69.47,28.497,53.961-0.345,49.773
                        c29.054-3.697,45.791-19.659,50.348-49.949c4.404,29.487,20.907,45.691,49.652,49.975C70.729,54.051,54.532,70.407,49.984,99.824z"/><path transform="translate(96 30) scale(0.06)" style="fill: rgb(255, 255, 255);fill-rule:evenodd;clip-rule:evenodd;" d="M49.984,99.824C45.848,69.47,28.497,53.961-0.345,49.773
                        c29.054-3.697,45.791-19.659,50.348-49.949c4.404,29.487,20.907,45.691,49.652,49.975C70.729,54.051,54.532,70.407,49.984,99.824z"/><path transform="translate(48 36) scale(0.06)" style="fill: rgb(255, 255, 255);fill-rule:evenodd;clip-rule:evenodd;" d="M49.984,99.824C45.848,69.47,28.497,53.961-0.345,49.773
                        c29.054-3.697,45.791-19.659,50.348-49.949c4.404,29.487,20.907,45.691,49.652,49.975C70.729,54.051,54.532,70.407,49.984,99.824z"/><path transform="translate(60 36) scale(0.06)" style="fill: rgb(255, 255, 255);fill-rule:evenodd;clip-rule:evenodd;" d="M49.984,99.824C45.848,69.47,28.497,53.961-0.345,49.773
                        c29.054-3.697,45.791-19.659,50.348-49.949c4.404,29.487,20.907,45.691,49.652,49.975C70.729,54.051,54.532,70.407,49.984,99.824z"/><path transform="translate(72 36) scale(0.06)" style="fill: rgb(255, 255, 255);fill-rule:evenodd;clip-rule:evenodd;" d="M49.984,99.824C45.848,69.47,28.497,53.961-0.345,49.773
                        c29.054-3.697,45.791-19.659,50.348-49.949c4.404,29.487,20.907,45.691,49.652,49.975C70.729,54.051,54.532,70.407,49.984,99.824z"/><path transform="translate(84 36) scale(0.06)" style="fill: rgb(255, 255, 255);fill-rule:evenodd;clip-rule:evenodd;" d="M49.984,99.824C45.848,69.47,28.497,53.961-0.345,49.773
                        c29.054-3.697,45.791-19.659,50.348-49.949c4.404,29.487,20.907,45.691,49.652,49.975C70.729,54.051,54.532,70.407,49.984,99.824z"/><path transform="translate(96 36) scale(0.06)" style="fill: rgb(255, 255, 255);fill-rule:evenodd;clip-rule:evenodd;" d="M49.984,99.824C45.848,69.47,28.497,53.961-0.345,49.773
                        c29.054-3.697,45.791-19.659,50.348-49.949c4.404,29.487,20.907,45.691,49.652,49.975C70.729,54.051,54.532,70.407,49.984,99.824z"/><path transform="translate(66 42) scale(0.06)" style="fill: rgb(255, 255, 255);fill-rule:evenodd;clip-rule:evenodd;" d="M49.984,99.824C45.848,69.47,28.497,53.961-0.345,49.773
                        c29.054-3.697,45.791-19.659,50.348-49.949c4.404,29.487,20.907,45.691,49.652,49.975C70.729,54.051,54.532,70.407,49.984,99.824z"/><path transform="translate(72 42) scale(0.06)" style="fill: rgb(255, 255, 255);fill-rule:evenodd;clip-rule:evenodd;" d="M49.984,99.824C45.848,69.47,28.497,53.961-0.345,49.773
                        c29.054-3.697,45.791-19.659,50.348-49.949c4.404,29.487,20.907,45.691,49.652,49.975C70.729,54.051,54.532,70.407,49.984,99.824z"/><path transform="translate(78 42) scale(0.06)" style="fill: rgb(255, 255, 255);fill-rule:evenodd;clip-rule:evenodd;" d="M49.984,99.824C45.848,69.47,28.497,53.961-0.345,49.773
                        c29.054-3.697,45.791-19.659,50.348-49.949c4.404,29.487,20.907,45.691,49.652,49.975C70.729,54.051,54.532,70.407,49.984,99.824z"/><path transform="translate(84 42) scale(0.06)" style="fill: rgb(255, 255, 255);fill-rule:evenodd;clip-rule:evenodd;" d="M49.984,99.824C45.848,69.47,28.497,53.961-0.345,49.773
                        c29.054-3.697,45.791-19.659,50.348-49.949c4.404,29.487,20.907,45.691,49.652,49.975C70.729,54.051,54.532,70.407,49.984,99.824z"/><path transform="translate(90 42) scale(0.06)" style="fill: rgb(255, 255, 255);fill-rule:evenodd;clip-rule:evenodd;" d="M49.984,99.824C45.848,69.47,28.497,53.961-0.345,49.773
                        c29.054-3.697,45.791-19.659,50.348-49.949c4.404,29.487,20.907,45.691,49.652,49.975C70.729,54.051,54.532,70.407,49.984,99.824z"/><path transform="translate(0 48) scale(0.06)" style="fill: rgb(255, 255, 255);fill-rule:evenodd;clip-rule:evenodd;" d="M49.984,99.824C45.848,69.47,28.497,53.961-0.345,49.773
                        c29.054-3.697,45.791-19.659,50.348-49.949c4.404,29.487,20.907,45.691,49.652,49.975C70.729,54.051,54.532,70.407,49.984,99.824z"/><path transform="translate(18 48) scale(0.06)" style="fill: rgb(255, 255, 255);fill-rule:evenodd;clip-rule:evenodd;" d="M49.984,99.824C45.848,69.47,28.497,53.961-0.345,49.773
                        c29.054-3.697,45.791-19.659,50.348-49.949c4.404,29.487,20.907,45.691,49.652,49.975C70.729,54.051,54.532,70.407,49.984,99.824z"/><path transform="translate(24 48) scale(0.06)" style="fill: rgb(255, 255, 255);fill-rule:evenodd;clip-rule:evenodd;" d="M49.984,99.824C45.848,69.47,28.497,53.961-0.345,49.773
                        c29.054-3.697,45.791-19.659,50.348-49.949c4.404,29.487,20.907,45.691,49.652,49.975C70.729,54.051,54.532,70.407,49.984,99.824z"/><path transform="translate(30 48) scale(0.06)" style="fill: rgb(255, 255, 255);fill-rule:evenodd;clip-rule:evenodd;" d="M49.984,99.824C45.848,69.47,28.497,53.961-0.345,49.773
                        c29.054-3.697,45.791-19.659,50.348-49.949c4.404,29.487,20.907,45.691,49.652,49.975C70.729,54.051,54.532,70.407,49.984,99.824z"/><path transform="translate(36 48) scale(0.06)" style="fill: rgb(255, 255, 255);fill-rule:evenodd;clip-rule:evenodd;" d="M49.984,99.824C45.848,69.47,28.497,53.961-0.345,49.773
                        c29.054-3.697,45.791-19.659,50.348-49.949c4.404,29.487,20.907,45.691,49.652,49.975C70.729,54.051,54.532,70.407,49.984,99.824z"/><path transform="translate(42 48) scale(0.06)" style="fill: rgb(255, 255, 255);fill-rule:evenodd;clip-rule:evenodd;" d="M49.984,99.824C45.848,69.47,28.497,53.961-0.345,49.773
                        c29.054-3.697,45.791-19.659,50.348-49.949c4.404,29.487,20.907,45.691,49.652,49.975C70.729,54.051,54.532,70.407,49.984,99.824z"/><path transform="translate(48 48) scale(0.06)" style="fill: rgb(255, 255, 255);fill-rule:evenodd;clip-rule:evenodd;" d="M49.984,99.824C45.848,69.47,28.497,53.961-0.345,49.773
                        c29.054-3.697,45.791-19.659,50.348-49.949c4.404,29.487,20.907,45.691,49.652,49.975C70.729,54.051,54.532,70.407,49.984,99.824z"/><path transform="translate(66 48) scale(0.06)" style="fill: rgb(255, 255, 255);fill-rule:evenodd;clip-rule:evenodd;" d="M49.984,99.824C45.848,69.47,28.497,53.961-0.345,49.773
                        c29.054-3.697,45.791-19.659,50.348-49.949c4.404,29.487,20.907,45.691,49.652,49.975C70.729,54.051,54.532,70.407,49.984,99.824z"/><path transform="translate(72 48) scale(0.06)" style="fill: rgb(255, 255, 255);fill-rule:evenodd;clip-rule:evenodd;" d="M49.984,99.824C45.848,69.47,28.497,53.961-0.345,49.773
                        c29.054-3.697,45.791-19.659,50.348-49.949c4.404,29.487,20.907,45.691,49.652,49.975C70.729,54.051,54.532,70.407,49.984,99.824z"/><path transform="translate(84 48) scale(0.06)" style="fill: rgb(255, 255, 255);fill-rule:evenodd;clip-rule:evenodd;" d="M49.984,99.824C45.848,69.47,28.497,53.961-0.345,49.773
                        c29.054-3.697,45.791-19.659,50.348-49.949c4.404,29.487,20.907,45.691,49.652,49.975C70.729,54.051,54.532,70.407,49.984,99.824z"/><path transform="translate(90 48) scale(0.06)" style="fill: rgb(255, 255, 255);fill-rule:evenodd;clip-rule:evenodd;" d="M49.984,99.824C45.848,69.47,28.497,53.961-0.345,49.773
                        c29.054-3.697,45.791-19.659,50.348-49.949c4.404,29.487,20.907,45.691,49.652,49.975C70.729,54.051,54.532,70.407,49.984,99.824z"/><path transform="translate(102 48) scale(0.06)" style="fill: rgb(255, 255, 255);fill-rule:evenodd;clip-rule:evenodd;" d="M49.984,99.824C45.848,69.47,28.497,53.961-0.345,49.773
                        c29.054-3.697,45.791-19.659,50.348-49.949c4.404,29.487,20.907,45.691,49.652,49.975C70.729,54.051,54.532,70.407,49.984,99.824z"/><path transform="translate(120 48) scale(0.06)" style="fill: rgb(255, 255, 255);fill-rule:evenodd;clip-rule:evenodd;" d="M49.984,99.824C45.848,69.47,28.497,53.961-0.345,49.773
                        c29.054-3.697,45.791-19.659,50.348-49.949c4.404,29.487,20.907,45.691,49.652,49.975C70.729,54.051,54.532,70.407,49.984,99.824z"/><path transform="translate(132 48) scale(0.06)" style="fill: rgb(255, 255, 255);fill-rule:evenodd;clip-rule:evenodd;" d="M49.984,99.824C45.848,69.47,28.497,53.961-0.345,49.773
                        c29.054-3.697,45.791-19.659,50.348-49.949c4.404,29.487,20.907,45.691,49.652,49.975C70.729,54.051,54.532,70.407,49.984,99.824z"/><path transform="translate(138 48) scale(0.06)" style="fill: rgb(255, 255, 255);fill-rule:evenodd;clip-rule:evenodd;" d="M49.984,99.824C45.848,69.47,28.497,53.961-0.345,49.773
                        c29.054-3.697,45.791-19.659,50.348-49.949c4.404,29.487,20.907,45.691,49.652,49.975C70.729,54.051,54.532,70.407,49.984,99.824z"/><path transform="translate(144 48) scale(0.06)" style="fill: rgb(255, 255, 255);fill-rule:evenodd;clip-rule:evenodd;" d="M49.984,99.824C45.848,69.47,28.497,53.961-0.345,49.773
                        c29.054-3.697,45.791-19.659,50.348-49.949c4.404,29.487,20.907,45.691,49.652,49.975C70.729,54.051,54.532,70.407,49.984,99.824z"/><path transform="translate(6 54) scale(0.06)" style="fill: rgb(255, 255, 255);fill-rule:evenodd;clip-rule:evenodd;" d="M49.984,99.824C45.848,69.47,28.497,53.961-0.345,49.773
                        c29.054-3.697,45.791-19.659,50.348-49.949c4.404,29.487,20.907,45.691,49.652,49.975C70.729,54.051,54.532,70.407,49.984,99.824z"/><path transform="translate(12 54) scale(0.06)" style="fill: rgb(255, 255, 255);fill-rule:evenodd;clip-rule:evenodd;" d="M49.984,99.824C45.848,69.47,28.497,53.961-0.345,49.773
                        c29.054-3.697,45.791-19.659,50.348-49.949c4.404,29.487,20.907,45.691,49.652,49.975C70.729,54.051,54.532,70.407,49.984,99.824z"/><path transform="translate(18 54) scale(0.06)" style="fill: rgb(255, 255, 255);fill-rule:evenodd;clip-rule:evenodd;" d="M49.984,99.824C45.848,69.47,28.497,53.961-0.345,49.773
                        c29.054-3.697,45.791-19.659,50.348-49.949c4.404,29.487,20.907,45.691,49.652,49.975C70.729,54.051,54.532,70.407,49.984,99.824z"/><path transform="translate(42 54) scale(0.06)" style="fill: rgb(255, 255, 255);fill-rule:evenodd;clip-rule:evenodd;" d="M49.984,99.824C45.848,69.47,28.497,53.961-0.345,49.773
                        c29.054-3.697,45.791-19.659,50.348-49.949c4.404,29.487,20.907,45.691,49.652,49.975C70.729,54.051,54.532,70.407,49.984,99.824z"/><path transform="translate(60 54) scale(0.06)" style="fill: rgb(255, 255, 255);fill-rule:evenodd;clip-rule:evenodd;" d="M49.984,99.824C45.848,69.47,28.497,53.961-0.345,49.773
                        c29.054-3.697,45.791-19.659,50.348-49.949c4.404,29.487,20.907,45.691,49.652,49.975C70.729,54.051,54.532,70.407,49.984,99.824z"/><path transform="translate(66 54) scale(0.06)" style="fill: rgb(255, 255, 255);fill-rule:evenodd;clip-rule:evenodd;" d="M49.984,99.824C45.848,69.47,28.497,53.961-0.345,49.773
                        c29.054-3.697,45.791-19.659,50.348-49.949c4.404,29.487,20.907,45.691,49.652,49.975C70.729,54.051,54.532,70.407,49.984,99.824z"/><path transform="translate(72 54) scale(0.06)" style="fill: rgb(255, 255, 255);fill-rule:evenodd;clip-rule:evenodd;" d="M49.984,99.824C45.848,69.47,28.497,53.961-0.345,49.773
                        c29.054-3.697,45.791-19.659,50.348-49.949c4.404,29.487,20.907,45.691,49.652,49.975C70.729,54.051,54.532,70.407,49.984,99.824z"/><path transform="translate(84 54) scale(0.06)" style="fill: rgb(255, 255, 255);fill-rule:evenodd;clip-rule:evenodd;" d="M49.984,99.824C45.848,69.47,28.497,53.961-0.345,49.773
                        c29.054-3.697,45.791-19.659,50.348-49.949c4.404,29.487,20.907,45.691,49.652,49.975C70.729,54.051,54.532,70.407,49.984,99.824z"/><path transform="translate(90 54) scale(0.06)" style="fill: rgb(255, 255, 255);fill-rule:evenodd;clip-rule:evenodd;" d="M49.984,99.824C45.848,69.47,28.497,53.961-0.345,49.773
                        c29.054-3.697,45.791-19.659,50.348-49.949c4.404,29.487,20.907,45.691,49.652,49.975C70.729,54.051,54.532,70.407,49.984,99.824z"/><path transform="translate(102 54) scale(0.06)" style="fill: rgb(255, 255, 255);fill-rule:evenodd;clip-rule:evenodd;" d="M49.984,99.824C45.848,69.47,28.497,53.961-0.345,49.773
                        c29.054-3.697,45.791-19.659,50.348-49.949c4.404,29.487,20.907,45.691,49.652,49.975C70.729,54.051,54.532,70.407,49.984,99.824z"/><path transform="translate(114 54) scale(0.06)" style="fill: rgb(255, 255, 255);fill-rule:evenodd;clip-rule:evenodd;" d="M49.984,99.824C45.848,69.47,28.497,53.961-0.345,49.773
                        c29.054-3.697,45.791-19.659,50.348-49.949c4.404,29.487,20.907,45.691,49.652,49.975C70.729,54.051,54.532,70.407,49.984,99.824z"/><path transform="translate(120 54) scale(0.06)" style="fill: rgb(255, 255, 255);fill-rule:evenodd;clip-rule:evenodd;" d="M49.984,99.824C45.848,69.47,28.497,53.961-0.345,49.773
                        c29.054-3.697,45.791-19.659,50.348-49.949c4.404,29.487,20.907,45.691,49.652,49.975C70.729,54.051,54.532,70.407,49.984,99.824z"/><path transform="translate(126 54) scale(0.06)" style="fill: rgb(255, 255, 255);fill-rule:evenodd;clip-rule:evenodd;" d="M49.984,99.824C45.848,69.47,28.497,53.961-0.345,49.773
                        c29.054-3.697,45.791-19.659,50.348-49.949c4.404,29.487,20.907,45.691,49.652,49.975C70.729,54.051,54.532,70.407,49.984,99.824z"/><path transform="translate(132 54) scale(0.06)" style="fill: rgb(255, 255, 255);fill-rule:evenodd;clip-rule:evenodd;" d="M49.984,99.824C45.848,69.47,28.497,53.961-0.345,49.773
                        c29.054-3.697,45.791-19.659,50.348-49.949c4.404,29.487,20.907,45.691,49.652,49.975C70.729,54.051,54.532,70.407,49.984,99.824z"/><path transform="translate(138 54) scale(0.06)" style="fill: rgb(255, 255, 255);fill-rule:evenodd;clip-rule:evenodd;" d="M49.984,99.824C45.848,69.47,28.497,53.961-0.345,49.773
                        c29.054-3.697,45.791-19.659,50.348-49.949c4.404,29.487,20.907,45.691,49.652,49.975C70.729,54.051,54.532,70.407,49.984,99.824z"/><path transform="translate(18 60) scale(0.06)" style="fill: rgb(255, 255, 255);fill-rule:evenodd;clip-rule:evenodd;" d="M49.984,99.824C45.848,69.47,28.497,53.961-0.345,49.773
                        c29.054-3.697,45.791-19.659,50.348-49.949c4.404,29.487,20.907,45.691,49.652,49.975C70.729,54.051,54.532,70.407,49.984,99.824z"/><path transform="translate(36 60) scale(0.06)" style="fill: rgb(255, 255, 255);fill-rule:evenodd;clip-rule:evenodd;" d="M49.984,99.824C45.848,69.47,28.497,53.961-0.345,49.773
                        c29.054-3.697,45.791-19.659,50.348-49.949c4.404,29.487,20.907,45.691,49.652,49.975C70.729,54.051,54.532,70.407,49.984,99.824z"/><path transform="translate(54 60) scale(0.06)" style="fill: rgb(255, 255, 255);fill-rule:evenodd;clip-rule:evenodd;" d="M49.984,99.824C45.848,69.47,28.497,53.961-0.345,49.773
                        c29.054-3.697,45.791-19.659,50.348-49.949c4.404,29.487,20.907,45.691,49.652,49.975C70.729,54.051,54.532,70.407,49.984,99.824z"/><path transform="translate(60 60) scale(0.06)" style="fill: rgb(255, 255, 255);fill-rule:evenodd;clip-rule:evenodd;" d="M49.984,99.824C45.848,69.47,28.497,53.961-0.345,49.773
                        c29.054-3.697,45.791-19.659,50.348-49.949c4.404,29.487,20.907,45.691,49.652,49.975C70.729,54.051,54.532,70.407,49.984,99.824z"/><path transform="translate(72 60) scale(0.06)" style="fill: rgb(255, 255, 255);fill-rule:evenodd;clip-rule:evenodd;" d="M49.984,99.824C45.848,69.47,28.497,53.961-0.345,49.773
                        c29.054-3.697,45.791-19.659,50.348-49.949c4.404,29.487,20.907,45.691,49.652,49.975C70.729,54.051,54.532,70.407,49.984,99.824z"/><path transform="translate(78 60) scale(0.06)" style="fill: rgb(255, 255, 255);fill-rule:evenodd;clip-rule:evenodd;" d="M49.984,99.824C45.848,69.47,28.497,53.961-0.345,49.773
                        c29.054-3.697,45.791-19.659,50.348-49.949c4.404,29.487,20.907,45.691,49.652,49.975C70.729,54.051,54.532,70.407,49.984,99.824z"/><path transform="translate(84 60) scale(0.06)" style="fill: rgb(255, 255, 255);fill-rule:evenodd;clip-rule:evenodd;" d="M49.984,99.824C45.848,69.47,28.497,53.961-0.345,49.773
                        c29.054-3.697,45.791-19.659,50.348-49.949c4.404,29.487,20.907,45.691,49.652,49.975C70.729,54.051,54.532,70.407,49.984,99.824z"/><path transform="translate(90 60) scale(0.06)" style="fill: rgb(255, 255, 255);fill-rule:evenodd;clip-rule:evenodd;" d="M49.984,99.824C45.848,69.47,28.497,53.961-0.345,49.773
                        c29.054-3.697,45.791-19.659,50.348-49.949c4.404,29.487,20.907,45.691,49.652,49.975C70.729,54.051,54.532,70.407,49.984,99.824z"/><path transform="translate(108 60) scale(0.06)" style="fill: rgb(255, 255, 255);fill-rule:evenodd;clip-rule:evenodd;" d="M49.984,99.824C45.848,69.47,28.497,53.961-0.345,49.773
                        c29.054-3.697,45.791-19.659,50.348-49.949c4.404,29.487,20.907,45.691,49.652,49.975C70.729,54.051,54.532,70.407,49.984,99.824z"/><path transform="translate(114 60) scale(0.06)" style="fill: rgb(255, 255, 255);fill-rule:evenodd;clip-rule:evenodd;" d="M49.984,99.824C45.848,69.47,28.497,53.961-0.345,49.773
                        c29.054-3.697,45.791-19.659,50.348-49.949c4.404,29.487,20.907,45.691,49.652,49.975C70.729,54.051,54.532,70.407,49.984,99.824z"/><path transform="translate(126 60) scale(0.06)" style="fill: rgb(255, 255, 255);fill-rule:evenodd;clip-rule:evenodd;" d="M49.984,99.824C45.848,69.47,28.497,53.961-0.345,49.773
                        c29.054-3.697,45.791-19.659,50.348-49.949c4.404,29.487,20.907,45.691,49.652,49.975C70.729,54.051,54.532,70.407,49.984,99.824z"/><path transform="translate(144 60) scale(0.06)" style="fill: rgb(255, 255, 255);fill-rule:evenodd;clip-rule:evenodd;" d="M49.984,99.824C45.848,69.47,28.497,53.961-0.345,49.773
                        c29.054-3.697,45.791-19.659,50.348-49.949c4.404,29.487,20.907,45.691,49.652,49.975C70.729,54.051,54.532,70.407,49.984,99.824z"/><path transform="translate(0 66) scale(0.06)" style="fill: rgb(255, 255, 255);fill-rule:evenodd;clip-rule:evenodd;" d="M49.984,99.824C45.848,69.47,28.497,53.961-0.345,49.773
                        c29.054-3.697,45.791-19.659,50.348-49.949c4.404,29.487,20.907,45.691,49.652,49.975C70.729,54.051,54.532,70.407,49.984,99.824z"/><path transform="translate(30 66) scale(0.06)" style="fill: rgb(255, 255, 255);fill-rule:evenodd;clip-rule:evenodd;" d="M49.984,99.824C45.848,69.47,28.497,53.961-0.345,49.773
                        c29.054-3.697,45.791-19.659,50.348-49.949c4.404,29.487,20.907,45.691,49.652,49.975C70.729,54.051,54.532,70.407,49.984,99.824z"/><path transform="translate(42 66) scale(0.06)" style="fill: rgb(255, 255, 255);fill-rule:evenodd;clip-rule:evenodd;" d="M49.984,99.824C45.848,69.47,28.497,53.961-0.345,49.773
                        c29.054-3.697,45.791-19.659,50.348-49.949c4.404,29.487,20.907,45.691,49.652,49.975C70.729,54.051,54.532,70.407,49.984,99.824z"/><path transform="translate(60 66) scale(0.06)" style="fill: rgb(255, 255, 255);fill-rule:evenodd;clip-rule:evenodd;" d="M49.984,99.824C45.848,69.47,28.497,53.961-0.345,49.773
                        c29.054-3.697,45.791-19.659,50.348-49.949c4.404,29.487,20.907,45.691,49.652,49.975C70.729,54.051,54.532,70.407,49.984,99.824z"/><path transform="translate(66 66) scale(0.06)" style="fill: rgb(255, 255, 255);fill-rule:evenodd;clip-rule:evenodd;" d="M49.984,99.824C45.848,69.47,28.497,53.961-0.345,49.773
                        c29.054-3.697,45.791-19.659,50.348-49.949c4.404,29.487,20.907,45.691,49.652,49.975C70.729,54.051,54.532,70.407,49.984,99.824z"/><path transform="translate(90 66) scale(0.06)" style="fill: rgb(255, 255, 255);fill-rule:evenodd;clip-rule:evenodd;" d="M49.984,99.824C45.848,69.47,28.497,53.961-0.345,49.773
                        c29.054-3.697,45.791-19.659,50.348-49.949c4.404,29.487,20.907,45.691,49.652,49.975C70.729,54.051,54.532,70.407,49.984,99.824z"/><path transform="translate(114 66) scale(0.06)" style="fill: rgb(255, 255, 255);fill-rule:evenodd;clip-rule:evenodd;" d="M49.984,99.824C45.848,69.47,28.497,53.961-0.345,49.773
                        c29.054-3.697,45.791-19.659,50.348-49.949c4.404,29.487,20.907,45.691,49.652,49.975C70.729,54.051,54.532,70.407,49.984,99.824z"/><path transform="translate(126 66) scale(0.06)" style="fill: rgb(255, 255, 255);fill-rule:evenodd;clip-rule:evenodd;" d="M49.984,99.824C45.848,69.47,28.497,53.961-0.345,49.773
                        c29.054-3.697,45.791-19.659,50.348-49.949c4.404,29.487,20.907,45.691,49.652,49.975C70.729,54.051,54.532,70.407,49.984,99.824z"/><path transform="translate(132 66) scale(0.06)" style="fill: rgb(255, 255, 255);fill-rule:evenodd;clip-rule:evenodd;" d="M49.984,99.824C45.848,69.47,28.497,53.961-0.345,49.773
                        c29.054-3.697,45.791-19.659,50.348-49.949c4.404,29.487,20.907,45.691,49.652,49.975C70.729,54.051,54.532,70.407,49.984,99.824z"/><path transform="translate(138 66) scale(0.06)" style="fill: rgb(255, 255, 255);fill-rule:evenodd;clip-rule:evenodd;" d="M49.984,99.824C45.848,69.47,28.497,53.961-0.345,49.773
                        c29.054-3.697,45.791-19.659,50.348-49.949c4.404,29.487,20.907,45.691,49.652,49.975C70.729,54.051,54.532,70.407,49.984,99.824z"/><path transform="translate(144 66) scale(0.06)" style="fill: rgb(255, 255, 255);fill-rule:evenodd;clip-rule:evenodd;" d="M49.984,99.824C45.848,69.47,28.497,53.961-0.345,49.773
                        c29.054-3.697,45.791-19.659,50.348-49.949c4.404,29.487,20.907,45.691,49.652,49.975C70.729,54.051,54.532,70.407,49.984,99.824z"/><path transform="translate(0 72) scale(0.06)" style="fill: rgb(255, 255, 255);fill-rule:evenodd;clip-rule:evenodd;" d="M49.984,99.824C45.848,69.47,28.497,53.961-0.345,49.773
                        c29.054-3.697,45.791-19.659,50.348-49.949c4.404,29.487,20.907,45.691,49.652,49.975C70.729,54.051,54.532,70.407,49.984,99.824z"/><path transform="translate(24 72) scale(0.06)" style="fill: rgb(255, 255, 255);fill-rule:evenodd;clip-rule:evenodd;" d="M49.984,99.824C45.848,69.47,28.497,53.961-0.345,49.773
                        c29.054-3.697,45.791-19.659,50.348-49.949c4.404,29.487,20.907,45.691,49.652,49.975C70.729,54.051,54.532,70.407,49.984,99.824z"/><path transform="translate(36 72) scale(0.06)" style="fill: rgb(255, 255, 255);fill-rule:evenodd;clip-rule:evenodd;" d="M49.984,99.824C45.848,69.47,28.497,53.961-0.345,49.773
                        c29.054-3.697,45.791-19.659,50.348-49.949c4.404,29.487,20.907,45.691,49.652,49.975C70.729,54.051,54.532,70.407,49.984,99.824z"/><path transform="translate(42 72) scale(0.06)" style="fill: rgb(255, 255, 255);fill-rule:evenodd;clip-rule:evenodd;" d="M49.984,99.824C45.848,69.47,28.497,53.961-0.345,49.773
                        c29.054-3.697,45.791-19.659,50.348-49.949c4.404,29.487,20.907,45.691,49.652,49.975C70.729,54.051,54.532,70.407,49.984,99.824z"/><path transform="translate(66 72) scale(0.06)" style="fill: rgb(255, 255, 255);fill-rule:evenodd;clip-rule:evenodd;" d="M49.984,99.824C45.848,69.47,28.497,53.961-0.345,49.773
                        c29.054-3.697,45.791-19.659,50.348-49.949c4.404,29.487,20.907,45.691,49.652,49.975C70.729,54.051,54.532,70.407,49.984,99.824z"/><path transform="translate(96 72) scale(0.06)" style="fill: rgb(255, 255, 255);fill-rule:evenodd;clip-rule:evenodd;" d="M49.984,99.824C45.848,69.47,28.497,53.961-0.345,49.773
                        c29.054-3.697,45.791-19.659,50.348-49.949c4.404,29.487,20.907,45.691,49.652,49.975C70.729,54.051,54.532,70.407,49.984,99.824z"/><path transform="translate(108 72) scale(0.06)" style="fill: rgb(255, 255, 255);fill-rule:evenodd;clip-rule:evenodd;" d="M49.984,99.824C45.848,69.47,28.497,53.961-0.345,49.773
                        c29.054-3.697,45.791-19.659,50.348-49.949c4.404,29.487,20.907,45.691,49.652,49.975C70.729,54.051,54.532,70.407,49.984,99.824z"/><path transform="translate(144 72) scale(0.06)" style="fill: rgb(255, 255, 255);fill-rule:evenodd;clip-rule:evenodd;" d="M49.984,99.824C45.848,69.47,28.497,53.961-0.345,49.773
                        c29.054-3.697,45.791-19.659,50.348-49.949c4.404,29.487,20.907,45.691,49.652,49.975C70.729,54.051,54.532,70.407,49.984,99.824z"/><path transform="translate(0 78) scale(0.06)" style="fill: rgb(255, 255, 255);fill-rule:evenodd;clip-rule:evenodd;" d="M49.984,99.824C45.848,69.47,28.497,53.961-0.345,49.773
                        c29.054-3.697,45.791-19.659,50.348-49.949c4.404,29.487,20.907,45.691,49.652,49.975C70.729,54.051,54.532,70.407,49.984,99.824z"/><path transform="translate(6 78) scale(0.06)" style="fill: rgb(255, 255, 255);fill-rule:evenodd;clip-rule:evenodd;" d="M49.984,99.824C45.848,69.47,28.497,53.961-0.345,49.773
                        c29.054-3.697,45.791-19.659,50.348-49.949c4.404,29.487,20.907,45.691,49.652,49.975C70.729,54.051,54.532,70.407,49.984,99.824z"/><path transform="translate(12 78) scale(0.06)" style="fill: rgb(255, 255, 255);fill-rule:evenodd;clip-rule:evenodd;" d="M49.984,99.824C45.848,69.47,28.497,53.961-0.345,49.773
                        c29.054-3.697,45.791-19.659,50.348-49.949c4.404,29.487,20.907,45.691,49.652,49.975C70.729,54.051,54.532,70.407,49.984,99.824z"/><path transform="translate(18 78) scale(0.06)" style="fill: rgb(255, 255, 255);fill-rule:evenodd;clip-rule:evenodd;" d="M49.984,99.824C45.848,69.47,28.497,53.961-0.345,49.773
                        c29.054-3.697,45.791-19.659,50.348-49.949c4.404,29.487,20.907,45.691,49.652,49.975C70.729,54.051,54.532,70.407,49.984,99.824z"/><path transform="translate(42 78) scale(0.06)" style="fill: rgb(255, 255, 255);fill-rule:evenodd;clip-rule:evenodd;" d="M49.984,99.824C45.848,69.47,28.497,53.961-0.345,49.773
                        c29.054-3.697,45.791-19.659,50.348-49.949c4.404,29.487,20.907,45.691,49.652,49.975C70.729,54.051,54.532,70.407,49.984,99.824z"/><path transform="translate(48 78) scale(0.06)" style="fill: rgb(255, 255, 255);fill-rule:evenodd;clip-rule:evenodd;" d="M49.984,99.824C45.848,69.47,28.497,53.961-0.345,49.773
                        c29.054-3.697,45.791-19.659,50.348-49.949c4.404,29.487,20.907,45.691,49.652,49.975C70.729,54.051,54.532,70.407,49.984,99.824z"/><path transform="translate(72 78) scale(0.06)" style="fill: rgb(255, 255, 255);fill-rule:evenodd;clip-rule:evenodd;" d="M49.984,99.824C45.848,69.47,28.497,53.961-0.345,49.773
                        c29.054-3.697,45.791-19.659,50.348-49.949c4.404,29.487,20.907,45.691,49.652,49.975C70.729,54.051,54.532,70.407,49.984,99.824z"/><path transform="translate(84 78) scale(0.06)" style="fill: rgb(255, 255, 255);fill-rule:evenodd;clip-rule:evenodd;" d="M49.984,99.824C45.848,69.47,28.497,53.961-0.345,49.773
                        c29.054-3.697,45.791-19.659,50.348-49.949c4.404,29.487,20.907,45.691,49.652,49.975C70.729,54.051,54.532,70.407,49.984,99.824z"/><path transform="translate(90 78) scale(0.06)" style="fill: rgb(255, 255, 255);fill-rule:evenodd;clip-rule:evenodd;" d="M49.984,99.824C45.848,69.47,28.497,53.961-0.345,49.773
                        c29.054-3.697,45.791-19.659,50.348-49.949c4.404,29.487,20.907,45.691,49.652,49.975C70.729,54.051,54.532,70.407,49.984,99.824z"/><path transform="translate(96 78) scale(0.06)" style="fill: rgb(255, 255, 255);fill-rule:evenodd;clip-rule:evenodd;" d="M49.984,99.824C45.848,69.47,28.497,53.961-0.345,49.773
                        c29.054-3.697,45.791-19.659,50.348-49.949c4.404,29.487,20.907,45.691,49.652,49.975C70.729,54.051,54.532,70.407,49.984,99.824z"/><path transform="translate(102 78) scale(0.06)" style="fill: rgb(255, 255, 255);fill-rule:evenodd;clip-rule:evenodd;" d="M49.984,99.824C45.848,69.47,28.497,53.961-0.345,49.773
                        c29.054-3.697,45.791-19.659,50.348-49.949c4.404,29.487,20.907,45.691,49.652,49.975C70.729,54.051,54.532,70.407,49.984,99.824z"/><path transform="translate(120 78) scale(0.06)" style="fill: rgb(255, 255, 255);fill-rule:evenodd;clip-rule:evenodd;" d="M49.984,99.824C45.848,69.47,28.497,53.961-0.345,49.773
                        c29.054-3.697,45.791-19.659,50.348-49.949c4.404,29.487,20.907,45.691,49.652,49.975C70.729,54.051,54.532,70.407,49.984,99.824z"/><path transform="translate(138 78) scale(0.06)" style="fill: rgb(255, 255, 255);fill-rule:evenodd;clip-rule:evenodd;" d="M49.984,99.824C45.848,69.47,28.497,53.961-0.345,49.773
                        c29.054-3.697,45.791-19.659,50.348-49.949c4.404,29.487,20.907,45.691,49.652,49.975C70.729,54.051,54.532,70.407,49.984,99.824z"/><path transform="translate(0 84) scale(0.06)" style="fill: rgb(255, 255, 255);fill-rule:evenodd;clip-rule:evenodd;" d="M49.984,99.824C45.848,69.47,28.497,53.961-0.345,49.773
                        c29.054-3.697,45.791-19.659,50.348-49.949c4.404,29.487,20.907,45.691,49.652,49.975C70.729,54.051,54.532,70.407,49.984,99.824z"/><path transform="translate(6 84) scale(0.06)" style="fill: rgb(255, 255, 255);fill-rule:evenodd;clip-rule:evenodd;" d="M49.984,99.824C45.848,69.47,28.497,53.961-0.345,49.773
                        c29.054-3.697,45.791-19.659,50.348-49.949c4.404,29.487,20.907,45.691,49.652,49.975C70.729,54.051,54.532,70.407,49.984,99.824z"/><path transform="translate(12 84) scale(0.06)" style="fill: rgb(255, 255, 255);fill-rule:evenodd;clip-rule:evenodd;" d="M49.984,99.824C45.848,69.47,28.497,53.961-0.345,49.773
                        c29.054-3.697,45.791-19.659,50.348-49.949c4.404,29.487,20.907,45.691,49.652,49.975C70.729,54.051,54.532,70.407,49.984,99.824z"/><path transform="translate(30 84) scale(0.06)" style="fill: rgb(255, 255, 255);fill-rule:evenodd;clip-rule:evenodd;" d="M49.984,99.824C45.848,69.47,28.497,53.961-0.345,49.773
                        c29.054-3.697,45.791-19.659,50.348-49.949c4.404,29.487,20.907,45.691,49.652,49.975C70.729,54.051,54.532,70.407,49.984,99.824z"/><path transform="translate(36 84) scale(0.06)" style="fill: rgb(255, 255, 255);fill-rule:evenodd;clip-rule:evenodd;" d="M49.984,99.824C45.848,69.47,28.497,53.961-0.345,49.773
                        c29.054-3.697,45.791-19.659,50.348-49.949c4.404,29.487,20.907,45.691,49.652,49.975C70.729,54.051,54.532,70.407,49.984,99.824z"/><path transform="translate(48 84) scale(0.06)" style="fill: rgb(255, 255, 255);fill-rule:evenodd;clip-rule:evenodd;" d="M49.984,99.824C45.848,69.47,28.497,53.961-0.345,49.773
                        c29.054-3.697,45.791-19.659,50.348-49.949c4.404,29.487,20.907,45.691,49.652,49.975C70.729,54.051,54.532,70.407,49.984,99.824z"/><path transform="translate(60 84) scale(0.06)" style="fill: rgb(255, 255, 255);fill-rule:evenodd;clip-rule:evenodd;" d="M49.984,99.824C45.848,69.47,28.497,53.961-0.345,49.773
                        c29.054-3.697,45.791-19.659,50.348-49.949c4.404,29.487,20.907,45.691,49.652,49.975C70.729,54.051,54.532,70.407,49.984,99.824z"/><path transform="translate(78 84) scale(0.06)" style="fill: rgb(255, 255, 255);fill-rule:evenodd;clip-rule:evenodd;" d="M49.984,99.824C45.848,69.47,28.497,53.961-0.345,49.773
                        c29.054-3.697,45.791-19.659,50.348-49.949c4.404,29.487,20.907,45.691,49.652,49.975C70.729,54.051,54.532,70.407,49.984,99.824z"/><path transform="translate(90 84) scale(0.06)" style="fill: rgb(255, 255, 255);fill-rule:evenodd;clip-rule:evenodd;" d="M49.984,99.824C45.848,69.47,28.497,53.961-0.345,49.773
                        c29.054-3.697,45.791-19.659,50.348-49.949c4.404,29.487,20.907,45.691,49.652,49.975C70.729,54.051,54.532,70.407,49.984,99.824z"/><path transform="translate(102 84) scale(0.06)" style="fill: rgb(255, 255, 255);fill-rule:evenodd;clip-rule:evenodd;" d="M49.984,99.824C45.848,69.47,28.497,53.961-0.345,49.773
                        c29.054-3.697,45.791-19.659,50.348-49.949c4.404,29.487,20.907,45.691,49.652,49.975C70.729,54.051,54.532,70.407,49.984,99.824z"/><path transform="translate(108 84) scale(0.06)" style="fill: rgb(255, 255, 255);fill-rule:evenodd;clip-rule:evenodd;" d="M49.984,99.824C45.848,69.47,28.497,53.961-0.345,49.773
                        c29.054-3.697,45.791-19.659,50.348-49.949c4.404,29.487,20.907,45.691,49.652,49.975C70.729,54.051,54.532,70.407,49.984,99.824z"/><path transform="translate(120 84) scale(0.06)" style="fill: rgb(255, 255, 255);fill-rule:evenodd;clip-rule:evenodd;" d="M49.984,99.824C45.848,69.47,28.497,53.961-0.345,49.773
                        c29.054-3.697,45.791-19.659,50.348-49.949c4.404,29.487,20.907,45.691,49.652,49.975C70.729,54.051,54.532,70.407,49.984,99.824z"/><path transform="translate(126 84) scale(0.06)" style="fill: rgb(255, 255, 255);fill-rule:evenodd;clip-rule:evenodd;" d="M49.984,99.824C45.848,69.47,28.497,53.961-0.345,49.773
                        c29.054-3.697,45.791-19.659,50.348-49.949c4.404,29.487,20.907,45.691,49.652,49.975C70.729,54.051,54.532,70.407,49.984,99.824z"/><path transform="translate(132 84) scale(0.06)" style="fill: rgb(255, 255, 255);fill-rule:evenodd;clip-rule:evenodd;" d="M49.984,99.824C45.848,69.47,28.497,53.961-0.345,49.773
                        c29.054-3.697,45.791-19.659,50.348-49.949c4.404,29.487,20.907,45.691,49.652,49.975C70.729,54.051,54.532,70.407,49.984,99.824z"/><path transform="translate(138 84) scale(0.06)" style="fill: rgb(255, 255, 255);fill-rule:evenodd;clip-rule:evenodd;" d="M49.984,99.824C45.848,69.47,28.497,53.961-0.345,49.773
                        c29.054-3.697,45.791-19.659,50.348-49.949c4.404,29.487,20.907,45.691,49.652,49.975C70.729,54.051,54.532,70.407,49.984,99.824z"/><path transform="translate(144 84) scale(0.06)" style="fill: rgb(255, 255, 255);fill-rule:evenodd;clip-rule:evenodd;" d="M49.984,99.824C45.848,69.47,28.497,53.961-0.345,49.773
                        c29.054-3.697,45.791-19.659,50.348-49.949c4.404,29.487,20.907,45.691,49.652,49.975C70.729,54.051,54.532,70.407,49.984,99.824z"/><path transform="translate(0 90) scale(0.06)" style="fill: rgb(255, 255, 255);fill-rule:evenodd;clip-rule:evenodd;" d="M49.984,99.824C45.848,69.47,28.497,53.961-0.345,49.773
                        c29.054-3.697,45.791-19.659,50.348-49.949c4.404,29.487,20.907,45.691,49.652,49.975C70.729,54.051,54.532,70.407,49.984,99.824z"/><path transform="translate(18 90) scale(0.06)" style="fill: rgb(255, 255, 255);fill-rule:evenodd;clip-rule:evenodd;" d="M49.984,99.824C45.848,69.47,28.497,53.961-0.345,49.773
                        c29.054-3.697,45.791-19.659,50.348-49.949c4.404,29.487,20.907,45.691,49.652,49.975C70.729,54.051,54.532,70.407,49.984,99.824z"/><path transform="translate(24 90) scale(0.06)" style="fill: rgb(255, 255, 255);fill-rule:evenodd;clip-rule:evenodd;" d="M49.984,99.824C45.848,69.47,28.497,53.961-0.345,49.773
                        c29.054-3.697,45.791-19.659,50.348-49.949c4.404,29.487,20.907,45.691,49.652,49.975C70.729,54.051,54.532,70.407,49.984,99.824z"/><path transform="translate(30 90) scale(0.06)" style="fill: rgb(255, 255, 255);fill-rule:evenodd;clip-rule:evenodd;" d="M49.984,99.824C45.848,69.47,28.497,53.961-0.345,49.773
                        c29.054-3.697,45.791-19.659,50.348-49.949c4.404,29.487,20.907,45.691,49.652,49.975C70.729,54.051,54.532,70.407,49.984,99.824z"/><path transform="translate(42 90) scale(0.06)" style="fill: rgb(255, 255, 255);fill-rule:evenodd;clip-rule:evenodd;" d="M49.984,99.824C45.848,69.47,28.497,53.961-0.345,49.773
                        c29.054-3.697,45.791-19.659,50.348-49.949c4.404,29.487,20.907,45.691,49.652,49.975C70.729,54.051,54.532,70.407,49.984,99.824z"/><path transform="translate(48 90) scale(0.06)" style="fill: rgb(255, 255, 255);fill-rule:evenodd;clip-rule:evenodd;" d="M49.984,99.824C45.848,69.47,28.497,53.961-0.345,49.773
                        c29.054-3.697,45.791-19.659,50.348-49.949c4.404,29.487,20.907,45.691,49.652,49.975C70.729,54.051,54.532,70.407,49.984,99.824z"/><path transform="translate(54 90) scale(0.06)" style="fill: rgb(255, 255, 255);fill-rule:evenodd;clip-rule:evenodd;" d="M49.984,99.824C45.848,69.47,28.497,53.961-0.345,49.773
                        c29.054-3.697,45.791-19.659,50.348-49.949c4.404,29.487,20.907,45.691,49.652,49.975C70.729,54.051,54.532,70.407,49.984,99.824z"/><path transform="translate(60 90) scale(0.06)" style="fill: rgb(255, 255, 255);fill-rule:evenodd;clip-rule:evenodd;" d="M49.984,99.824C45.848,69.47,28.497,53.961-0.345,49.773
                        c29.054-3.697,45.791-19.659,50.348-49.949c4.404,29.487,20.907,45.691,49.652,49.975C70.729,54.051,54.532,70.407,49.984,99.824z"/><path transform="translate(72 90) scale(0.06)" style="fill: rgb(255, 255, 255);fill-rule:evenodd;clip-rule:evenodd;" d="M49.984,99.824C45.848,69.47,28.497,53.961-0.345,49.773
                        c29.054-3.697,45.791-19.659,50.348-49.949c4.404,29.487,20.907,45.691,49.652,49.975C70.729,54.051,54.532,70.407,49.984,99.824z"/><path transform="translate(96 90) scale(0.06)" style="fill: rgb(255, 255, 255);fill-rule:evenodd;clip-rule:evenodd;" d="M49.984,99.824C45.848,69.47,28.497,53.961-0.345,49.773
                        c29.054-3.697,45.791-19.659,50.348-49.949c4.404,29.487,20.907,45.691,49.652,49.975C70.729,54.051,54.532,70.407,49.984,99.824z"/><path transform="translate(102 90) scale(0.06)" style="fill: rgb(255, 255, 255);fill-rule:evenodd;clip-rule:evenodd;" d="M49.984,99.824C45.848,69.47,28.497,53.961-0.345,49.773
                        c29.054-3.697,45.791-19.659,50.348-49.949c4.404,29.487,20.907,45.691,49.652,49.975C70.729,54.051,54.532,70.407,49.984,99.824z"/><path transform="translate(114 90) scale(0.06)" style="fill: rgb(255, 255, 255);fill-rule:evenodd;clip-rule:evenodd;" d="M49.984,99.824C45.848,69.47,28.497,53.961-0.345,49.773
                        c29.054-3.697,45.791-19.659,50.348-49.949c4.404,29.487,20.907,45.691,49.652,49.975C70.729,54.051,54.532,70.407,49.984,99.824z"/><path transform="translate(126 90) scale(0.06)" style="fill: rgb(255, 255, 255);fill-rule:evenodd;clip-rule:evenodd;" d="M49.984,99.824C45.848,69.47,28.497,53.961-0.345,49.773
                        c29.054-3.697,45.791-19.659,50.348-49.949c4.404,29.487,20.907,45.691,49.652,49.975C70.729,54.051,54.532,70.407,49.984,99.824z"/><path transform="translate(132 90) scale(0.06)" style="fill: rgb(255, 255, 255);fill-rule:evenodd;clip-rule:evenodd;" d="M49.984,99.824C45.848,69.47,28.497,53.961-0.345,49.773
                        c29.054-3.697,45.791-19.659,50.348-49.949c4.404,29.487,20.907,45.691,49.652,49.975C70.729,54.051,54.532,70.407,49.984,99.824z"/><path transform="translate(144 90) scale(0.06)" style="fill: rgb(255, 255, 255);fill-rule:evenodd;clip-rule:evenodd;" d="M49.984,99.824C45.848,69.47,28.497,53.961-0.345,49.773
                        c29.054-3.697,45.791-19.659,50.348-49.949c4.404,29.487,20.907,45.691,49.652,49.975C70.729,54.051,54.532,70.407,49.984,99.824z"/><path transform="translate(0 96) scale(0.06)" style="fill: rgb(255, 255, 255);fill-rule:evenodd;clip-rule:evenodd;" d="M49.984,99.824C45.848,69.47,28.497,53.961-0.345,49.773
                        c29.054-3.697,45.791-19.659,50.348-49.949c4.404,29.487,20.907,45.691,49.652,49.975C70.729,54.051,54.532,70.407,49.984,99.824z"/><path transform="translate(12 96) scale(0.06)" style="fill: rgb(255, 255, 255);fill-rule:evenodd;clip-rule:evenodd;" d="M49.984,99.824C45.848,69.47,28.497,53.961-0.345,49.773
                        c29.054-3.697,45.791-19.659,50.348-49.949c4.404,29.487,20.907,45.691,49.652,49.975C70.729,54.051,54.532,70.407,49.984,99.824z"/><path transform="translate(18 96) scale(0.06)" style="fill: rgb(255, 255, 255);fill-rule:evenodd;clip-rule:evenodd;" d="M49.984,99.824C45.848,69.47,28.497,53.961-0.345,49.773
                        c29.054-3.697,45.791-19.659,50.348-49.949c4.404,29.487,20.907,45.691,49.652,49.975C70.729,54.051,54.532,70.407,49.984,99.824z"/><path transform="translate(24 96) scale(0.06)" style="fill: rgb(255, 255, 255);fill-rule:evenodd;clip-rule:evenodd;" d="M49.984,99.824C45.848,69.47,28.497,53.961-0.345,49.773
                        c29.054-3.697,45.791-19.659,50.348-49.949c4.404,29.487,20.907,45.691,49.652,49.975C70.729,54.051,54.532,70.407,49.984,99.824z"/><path transform="translate(30 96) scale(0.06)" style="fill: rgb(255, 255, 255);fill-rule:evenodd;clip-rule:evenodd;" d="M49.984,99.824C45.848,69.47,28.497,53.961-0.345,49.773
                        c29.054-3.697,45.791-19.659,50.348-49.949c4.404,29.487,20.907,45.691,49.652,49.975C70.729,54.051,54.532,70.407,49.984,99.824z"/><path transform="translate(36 96) scale(0.06)" style="fill: rgb(255, 255, 255);fill-rule:evenodd;clip-rule:evenodd;" d="M49.984,99.824C45.848,69.47,28.497,53.961-0.345,49.773
                        c29.054-3.697,45.791-19.659,50.348-49.949c4.404,29.487,20.907,45.691,49.652,49.975C70.729,54.051,54.532,70.407,49.984,99.824z"/><path transform="translate(42 96) scale(0.06)" style="fill: rgb(255, 255, 255);fill-rule:evenodd;clip-rule:evenodd;" d="M49.984,99.824C45.848,69.47,28.497,53.961-0.345,49.773
                        c29.054-3.697,45.791-19.659,50.348-49.949c4.404,29.487,20.907,45.691,49.652,49.975C70.729,54.051,54.532,70.407,49.984,99.824z"/><path transform="translate(66 96) scale(0.06)" style="fill: rgb(255, 255, 255);fill-rule:evenodd;clip-rule:evenodd;" d="M49.984,99.824C45.848,69.47,28.497,53.961-0.345,49.773
                        c29.054-3.697,45.791-19.659,50.348-49.949c4.404,29.487,20.907,45.691,49.652,49.975C70.729,54.051,54.532,70.407,49.984,99.824z"/><path transform="translate(72 96) scale(0.06)" style="fill: rgb(255, 255, 255);fill-rule:evenodd;clip-rule:evenodd;" d="M49.984,99.824C45.848,69.47,28.497,53.961-0.345,49.773
                        c29.054-3.697,45.791-19.659,50.348-49.949c4.404,29.487,20.907,45.691,49.652,49.975C70.729,54.051,54.532,70.407,49.984,99.824z"/><path transform="translate(78 96) scale(0.06)" style="fill: rgb(255, 255, 255);fill-rule:evenodd;clip-rule:evenodd;" d="M49.984,99.824C45.848,69.47,28.497,53.961-0.345,49.773
                        c29.054-3.697,45.791-19.659,50.348-49.949c4.404,29.487,20.907,45.691,49.652,49.975C70.729,54.051,54.532,70.407,49.984,99.824z"/><path transform="translate(90 96) scale(0.06)" style="fill: rgb(255, 255, 255);fill-rule:evenodd;clip-rule:evenodd;" d="M49.984,99.824C45.848,69.47,28.497,53.961-0.345,49.773
                        c29.054-3.697,45.791-19.659,50.348-49.949c4.404,29.487,20.907,45.691,49.652,49.975C70.729,54.051,54.532,70.407,49.984,99.824z"/><path transform="translate(96 96) scale(0.06)" style="fill: rgb(255, 255, 255);fill-rule:evenodd;clip-rule:evenodd;" d="M49.984,99.824C45.848,69.47,28.497,53.961-0.345,49.773
                        c29.054-3.697,45.791-19.659,50.348-49.949c4.404,29.487,20.907,45.691,49.652,49.975C70.729,54.051,54.532,70.407,49.984,99.824z"/><path transform="translate(102 96) scale(0.06)" style="fill: rgb(255, 255, 255);fill-rule:evenodd;clip-rule:evenodd;" d="M49.984,99.824C45.848,69.47,28.497,53.961-0.345,49.773
                        c29.054-3.697,45.791-19.659,50.348-49.949c4.404,29.487,20.907,45.691,49.652,49.975C70.729,54.051,54.532,70.407,49.984,99.824z"/><path transform="translate(108 96) scale(0.06)" style="fill: rgb(255, 255, 255);fill-rule:evenodd;clip-rule:evenodd;" d="M49.984,99.824C45.848,69.47,28.497,53.961-0.345,49.773
                        c29.054-3.697,45.791-19.659,50.348-49.949c4.404,29.487,20.907,45.691,49.652,49.975C70.729,54.051,54.532,70.407,49.984,99.824z"/><path transform="translate(114 96) scale(0.06)" style="fill: rgb(255, 255, 255);fill-rule:evenodd;clip-rule:evenodd;" d="M49.984,99.824C45.848,69.47,28.497,53.961-0.345,49.773
                        c29.054-3.697,45.791-19.659,50.348-49.949c4.404,29.487,20.907,45.691,49.652,49.975C70.729,54.051,54.532,70.407,49.984,99.824z"/><path transform="translate(120 96) scale(0.06)" style="fill: rgb(255, 255, 255);fill-rule:evenodd;clip-rule:evenodd;" d="M49.984,99.824C45.848,69.47,28.497,53.961-0.345,49.773
                        c29.054-3.697,45.791-19.659,50.348-49.949c4.404,29.487,20.907,45.691,49.652,49.975C70.729,54.051,54.532,70.407,49.984,99.824z"/><path transform="translate(132 96) scale(0.06)" style="fill: rgb(255, 255, 255);fill-rule:evenodd;clip-rule:evenodd;" d="M49.984,99.824C45.848,69.47,28.497,53.961-0.345,49.773
                        c29.054-3.697,45.791-19.659,50.348-49.949c4.404,29.487,20.907,45.691,49.652,49.975C70.729,54.051,54.532,70.407,49.984,99.824z"/><path transform="translate(138 96) scale(0.06)" style="fill: rgb(255, 255, 255);fill-rule:evenodd;clip-rule:evenodd;" d="M49.984,99.824C45.848,69.47,28.497,53.961-0.345,49.773
                        c29.054-3.697,45.791-19.659,50.348-49.949c4.404,29.487,20.907,45.691,49.652,49.975C70.729,54.051,54.532,70.407,49.984,99.824z"/><path transform="translate(48 102) scale(0.06)" style="fill: rgb(255, 255, 255);fill-rule:evenodd;clip-rule:evenodd;" d="M49.984,99.824C45.848,69.47,28.497,53.961-0.345,49.773
                        c29.054-3.697,45.791-19.659,50.348-49.949c4.404,29.487,20.907,45.691,49.652,49.975C70.729,54.051,54.532,70.407,49.984,99.824z"/><path transform="translate(54 102) scale(0.06)" style="fill: rgb(255, 255, 255);fill-rule:evenodd;clip-rule:evenodd;" d="M49.984,99.824C45.848,69.47,28.497,53.961-0.345,49.773
                        c29.054-3.697,45.791-19.659,50.348-49.949c4.404,29.487,20.907,45.691,49.652,49.975C70.729,54.051,54.532,70.407,49.984,99.824z"/><path transform="translate(66 102) scale(0.06)" style="fill: rgb(255, 255, 255);fill-rule:evenodd;clip-rule:evenodd;" d="M49.984,99.824C45.848,69.47,28.497,53.961-0.345,49.773
                        c29.054-3.697,45.791-19.659,50.348-49.949c4.404,29.487,20.907,45.691,49.652,49.975C70.729,54.051,54.532,70.407,49.984,99.824z"/><path transform="translate(78 102) scale(0.06)" style="fill: rgb(255, 255, 255);fill-rule:evenodd;clip-rule:evenodd;" d="M49.984,99.824C45.848,69.47,28.497,53.961-0.345,49.773
                        c29.054-3.697,45.791-19.659,50.348-49.949c4.404,29.487,20.907,45.691,49.652,49.975C70.729,54.051,54.532,70.407,49.984,99.824z"/><path transform="translate(84 102) scale(0.06)" style="fill: rgb(255, 255, 255);fill-rule:evenodd;clip-rule:evenodd;" d="M49.984,99.824C45.848,69.47,28.497,53.961-0.345,49.773
                        c29.054-3.697,45.791-19.659,50.348-49.949c4.404,29.487,20.907,45.691,49.652,49.975C70.729,54.051,54.532,70.407,49.984,99.824z"/><path transform="translate(96 102) scale(0.06)" style="fill: rgb(255, 255, 255);fill-rule:evenodd;clip-rule:evenodd;" d="M49.984,99.824C45.848,69.47,28.497,53.961-0.345,49.773
                        c29.054-3.697,45.791-19.659,50.348-49.949c4.404,29.487,20.907,45.691,49.652,49.975C70.729,54.051,54.532,70.407,49.984,99.824z"/><path transform="translate(120 102) scale(0.06)" style="fill: rgb(255, 255, 255);fill-rule:evenodd;clip-rule:evenodd;" d="M49.984,99.824C45.848,69.47,28.497,53.961-0.345,49.773
                        c29.054-3.697,45.791-19.659,50.348-49.949c4.404,29.487,20.907,45.691,49.652,49.975C70.729,54.051,54.532,70.407,49.984,99.824z"/><path transform="translate(132 102) scale(0.06)" style="fill: rgb(255, 255, 255);fill-rule:evenodd;clip-rule:evenodd;" d="M49.984,99.824C45.848,69.47,28.497,53.961-0.345,49.773
                        c29.054-3.697,45.791-19.659,50.348-49.949c4.404,29.487,20.907,45.691,49.652,49.975C70.729,54.051,54.532,70.407,49.984,99.824z"/><path transform="translate(138 102) scale(0.06)" style="fill: rgb(255, 255, 255);fill-rule:evenodd;clip-rule:evenodd;" d="M49.984,99.824C45.848,69.47,28.497,53.961-0.345,49.773
                        c29.054-3.697,45.791-19.659,50.348-49.949c4.404,29.487,20.907,45.691,49.652,49.975C70.729,54.051,54.532,70.407,49.984,99.824z"/><path transform="translate(48 108) scale(0.06)" style="fill: rgb(255, 255, 255);fill-rule:evenodd;clip-rule:evenodd;" d="M49.984,99.824C45.848,69.47,28.497,53.961-0.345,49.773
                        c29.054-3.697,45.791-19.659,50.348-49.949c4.404,29.487,20.907,45.691,49.652,49.975C70.729,54.051,54.532,70.407,49.984,99.824z"/><path transform="translate(72 108) scale(0.06)" style="fill: rgb(255, 255, 255);fill-rule:evenodd;clip-rule:evenodd;" d="M49.984,99.824C45.848,69.47,28.497,53.961-0.345,49.773
                        c29.054-3.697,45.791-19.659,50.348-49.949c4.404,29.487,20.907,45.691,49.652,49.975C70.729,54.051,54.532,70.407,49.984,99.824z"/><path transform="translate(84 108) scale(0.06)" style="fill: rgb(255, 255, 255);fill-rule:evenodd;clip-rule:evenodd;" d="M49.984,99.824C45.848,69.47,28.497,53.961-0.345,49.773
                        c29.054-3.697,45.791-19.659,50.348-49.949c4.404,29.487,20.907,45.691,49.652,49.975C70.729,54.051,54.532,70.407,49.984,99.824z"/><path transform="translate(96 108) scale(0.06)" style="fill: rgb(255, 255, 255);fill-rule:evenodd;clip-rule:evenodd;" d="M49.984,99.824C45.848,69.47,28.497,53.961-0.345,49.773
                        c29.054-3.697,45.791-19.659,50.348-49.949c4.404,29.487,20.907,45.691,49.652,49.975C70.729,54.051,54.532,70.407,49.984,99.824z"/><path transform="translate(108 108) scale(0.06)" style="fill: rgb(255, 255, 255);fill-rule:evenodd;clip-rule:evenodd;" d="M49.984,99.824C45.848,69.47,28.497,53.961-0.345,49.773
                        c29.054-3.697,45.791-19.659,50.348-49.949c4.404,29.487,20.907,45.691,49.652,49.975C70.729,54.051,54.532,70.407,49.984,99.824z"/><path transform="translate(120 108) scale(0.06)" style="fill: rgb(255, 255, 255);fill-rule:evenodd;clip-rule:evenodd;" d="M49.984,99.824C45.848,69.47,28.497,53.961-0.345,49.773
                        c29.054-3.697,45.791-19.659,50.348-49.949c4.404,29.487,20.907,45.691,49.652,49.975C70.729,54.051,54.532,70.407,49.984,99.824z"/><path transform="translate(144 108) scale(0.06)" style="fill: rgb(255, 255, 255);fill-rule:evenodd;clip-rule:evenodd;" d="M49.984,99.824C45.848,69.47,28.497,53.961-0.345,49.773
                        c29.054-3.697,45.791-19.659,50.348-49.949c4.404,29.487,20.907,45.691,49.652,49.975C70.729,54.051,54.532,70.407,49.984,99.824z"/><path transform="translate(48 114) scale(0.06)" style="fill: rgb(255, 255, 255);fill-rule:evenodd;clip-rule:evenodd;" d="M49.984,99.824C45.848,69.47,28.497,53.961-0.345,49.773
                        c29.054-3.697,45.791-19.659,50.348-49.949c4.404,29.487,20.907,45.691,49.652,49.975C70.729,54.051,54.532,70.407,49.984,99.824z"/><path transform="translate(66 114) scale(0.06)" style="fill: rgb(255, 255, 255);fill-rule:evenodd;clip-rule:evenodd;" d="M49.984,99.824C45.848,69.47,28.497,53.961-0.345,49.773
                        c29.054-3.697,45.791-19.659,50.348-49.949c4.404,29.487,20.907,45.691,49.652,49.975C70.729,54.051,54.532,70.407,49.984,99.824z"/><path transform="translate(78 114) scale(0.06)" style="fill: rgb(255, 255, 255);fill-rule:evenodd;clip-rule:evenodd;" d="M49.984,99.824C45.848,69.47,28.497,53.961-0.345,49.773
                        c29.054-3.697,45.791-19.659,50.348-49.949c4.404,29.487,20.907,45.691,49.652,49.975C70.729,54.051,54.532,70.407,49.984,99.824z"/><path transform="translate(84 114) scale(0.06)" style="fill: rgb(255, 255, 255);fill-rule:evenodd;clip-rule:evenodd;" d="M49.984,99.824C45.848,69.47,28.497,53.961-0.345,49.773
                        c29.054-3.697,45.791-19.659,50.348-49.949c4.404,29.487,20.907,45.691,49.652,49.975C70.729,54.051,54.532,70.407,49.984,99.824z"/><path transform="translate(90 114) scale(0.06)" style="fill: rgb(255, 255, 255);fill-rule:evenodd;clip-rule:evenodd;" d="M49.984,99.824C45.848,69.47,28.497,53.961-0.345,49.773
                        c29.054-3.697,45.791-19.659,50.348-49.949c4.404,29.487,20.907,45.691,49.652,49.975C70.729,54.051,54.532,70.407,49.984,99.824z"/><path transform="translate(96 114) scale(0.06)" style="fill: rgb(255, 255, 255);fill-rule:evenodd;clip-rule:evenodd;" d="M49.984,99.824C45.848,69.47,28.497,53.961-0.345,49.773
                        c29.054-3.697,45.791-19.659,50.348-49.949c4.404,29.487,20.907,45.691,49.652,49.975C70.729,54.051,54.532,70.407,49.984,99.824z"/><path transform="translate(120 114) scale(0.06)" style="fill: rgb(255, 255, 255);fill-rule:evenodd;clip-rule:evenodd;" d="M49.984,99.824C45.848,69.47,28.497,53.961-0.345,49.773
                        c29.054-3.697,45.791-19.659,50.348-49.949c4.404,29.487,20.907,45.691,49.652,49.975C70.729,54.051,54.532,70.407,49.984,99.824z"/><path transform="translate(48 120) scale(0.06)" style="fill: rgb(255, 255, 255);fill-rule:evenodd;clip-rule:evenodd;" d="M49.984,99.824C45.848,69.47,28.497,53.961-0.345,49.773
                        c29.054-3.697,45.791-19.659,50.348-49.949c4.404,29.487,20.907,45.691,49.652,49.975C70.729,54.051,54.532,70.407,49.984,99.824z"/><path transform="translate(60 120) scale(0.06)" style="fill: rgb(255, 255, 255);fill-rule:evenodd;clip-rule:evenodd;" d="M49.984,99.824C45.848,69.47,28.497,53.961-0.345,49.773
                        c29.054-3.697,45.791-19.659,50.348-49.949c4.404,29.487,20.907,45.691,49.652,49.975C70.729,54.051,54.532,70.407,49.984,99.824z"/><path transform="translate(66 120) scale(0.06)" style="fill: rgb(255, 255, 255);fill-rule:evenodd;clip-rule:evenodd;" d="M49.984,99.824C45.848,69.47,28.497,53.961-0.345,49.773
                        c29.054-3.697,45.791-19.659,50.348-49.949c4.404,29.487,20.907,45.691,49.652,49.975C70.729,54.051,54.532,70.407,49.984,99.824z"/><path transform="translate(78 120) scale(0.06)" style="fill: rgb(255, 255, 255);fill-rule:evenodd;clip-rule:evenodd;" d="M49.984,99.824C45.848,69.47,28.497,53.961-0.345,49.773
                        c29.054-3.697,45.791-19.659,50.348-49.949c4.404,29.487,20.907,45.691,49.652,49.975C70.729,54.051,54.532,70.407,49.984,99.824z"/><path transform="translate(90 120) scale(0.06)" style="fill: rgb(255, 255, 255);fill-rule:evenodd;clip-rule:evenodd;" d="M49.984,99.824C45.848,69.47,28.497,53.961-0.345,49.773
                        c29.054-3.697,45.791-19.659,50.348-49.949c4.404,29.487,20.907,45.691,49.652,49.975C70.729,54.051,54.532,70.407,49.984,99.824z"/><path transform="translate(96 120) scale(0.06)" style="fill: rgb(255, 255, 255);fill-rule:evenodd;clip-rule:evenodd;" d="M49.984,99.824C45.848,69.47,28.497,53.961-0.345,49.773
                        c29.054-3.697,45.791-19.659,50.348-49.949c4.404,29.487,20.907,45.691,49.652,49.975C70.729,54.051,54.532,70.407,49.984,99.824z"/><path transform="translate(102 120) scale(0.06)" style="fill: rgb(255, 255, 255);fill-rule:evenodd;clip-rule:evenodd;" d="M49.984,99.824C45.848,69.47,28.497,53.961-0.345,49.773
                        c29.054-3.697,45.791-19.659,50.348-49.949c4.404,29.487,20.907,45.691,49.652,49.975C70.729,54.051,54.532,70.407,49.984,99.824z"/><path transform="translate(108 120) scale(0.06)" style="fill: rgb(255, 255, 255);fill-rule:evenodd;clip-rule:evenodd;" d="M49.984,99.824C45.848,69.47,28.497,53.961-0.345,49.773
                        c29.054-3.697,45.791-19.659,50.348-49.949c4.404,29.487,20.907,45.691,49.652,49.975C70.729,54.051,54.532,70.407,49.984,99.824z"/><path transform="translate(114 120) scale(0.06)" style="fill: rgb(255, 255, 255);fill-rule:evenodd;clip-rule:evenodd;" d="M49.984,99.824C45.848,69.47,28.497,53.961-0.345,49.773
                        c29.054-3.697,45.791-19.659,50.348-49.949c4.404,29.487,20.907,45.691,49.652,49.975C70.729,54.051,54.532,70.407,49.984,99.824z"/><path transform="translate(120 120) scale(0.06)" style="fill: rgb(255, 255, 255);fill-rule:evenodd;clip-rule:evenodd;" d="M49.984,99.824C45.848,69.47,28.497,53.961-0.345,49.773
                        c29.054-3.697,45.791-19.659,50.348-49.949c4.404,29.487,20.907,45.691,49.652,49.975C70.729,54.051,54.532,70.407,49.984,99.824z"/><path transform="translate(138 120) scale(0.06)" style="fill: rgb(255, 255, 255);fill-rule:evenodd;clip-rule:evenodd;" d="M49.984,99.824C45.848,69.47,28.497,53.961-0.345,49.773
                        c29.054-3.697,45.791-19.659,50.348-49.949c4.404,29.487,20.907,45.691,49.652,49.975C70.729,54.051,54.532,70.407,49.984,99.824z"/><path transform="translate(144 120) scale(0.06)" style="fill: rgb(255, 255, 255);fill-rule:evenodd;clip-rule:evenodd;" d="M49.984,99.824C45.848,69.47,28.497,53.961-0.345,49.773
                        c29.054-3.697,45.791-19.659,50.348-49.949c4.404,29.487,20.907,45.691,49.652,49.975C70.729,54.051,54.532,70.407,49.984,99.824z"/><path transform="translate(48 126) scale(0.06)" style="fill: rgb(255, 255, 255);fill-rule:evenodd;clip-rule:evenodd;" d="M49.984,99.824C45.848,69.47,28.497,53.961-0.345,49.773
                        c29.054-3.697,45.791-19.659,50.348-49.949c4.404,29.487,20.907,45.691,49.652,49.975C70.729,54.051,54.532,70.407,49.984,99.824z"/><path transform="translate(72 126) scale(0.06)" style="fill: rgb(255, 255, 255);fill-rule:evenodd;clip-rule:evenodd;" d="M49.984,99.824C45.848,69.47,28.497,53.961-0.345,49.773
                        c29.054-3.697,45.791-19.659,50.348-49.949c4.404,29.487,20.907,45.691,49.652,49.975C70.729,54.051,54.532,70.407,49.984,99.824z"/><path transform="translate(78 126) scale(0.06)" style="fill: rgb(255, 255, 255);fill-rule:evenodd;clip-rule:evenodd;" d="M49.984,99.824C45.848,69.47,28.497,53.961-0.345,49.773
                        c29.054-3.697,45.791-19.659,50.348-49.949c4.404,29.487,20.907,45.691,49.652,49.975C70.729,54.051,54.532,70.407,49.984,99.824z"/><path transform="translate(84 126) scale(0.06)" style="fill: rgb(255, 255, 255);fill-rule:evenodd;clip-rule:evenodd;" d="M49.984,99.824C45.848,69.47,28.497,53.961-0.345,49.773
                        c29.054-3.697,45.791-19.659,50.348-49.949c4.404,29.487,20.907,45.691,49.652,49.975C70.729,54.051,54.532,70.407,49.984,99.824z"/><path transform="translate(90 126) scale(0.06)" style="fill: rgb(255, 255, 255);fill-rule:evenodd;clip-rule:evenodd;" d="M49.984,99.824C45.848,69.47,28.497,53.961-0.345,49.773
                        c29.054-3.697,45.791-19.659,50.348-49.949c4.404,29.487,20.907,45.691,49.652,49.975C70.729,54.051,54.532,70.407,49.984,99.824z"/><path transform="translate(108 126) scale(0.06)" style="fill: rgb(255, 255, 255);fill-rule:evenodd;clip-rule:evenodd;" d="M49.984,99.824C45.848,69.47,28.497,53.961-0.345,49.773
                        c29.054-3.697,45.791-19.659,50.348-49.949c4.404,29.487,20.907,45.691,49.652,49.975C70.729,54.051,54.532,70.407,49.984,99.824z"/><path transform="translate(138 126) scale(0.06)" style="fill: rgb(255, 255, 255);fill-rule:evenodd;clip-rule:evenodd;" d="M49.984,99.824C45.848,69.47,28.497,53.961-0.345,49.773
                        c29.054-3.697,45.791-19.659,50.348-49.949c4.404,29.487,20.907,45.691,49.652,49.975C70.729,54.051,54.532,70.407,49.984,99.824z"/><path transform="translate(144 126) scale(0.06)" style="fill: rgb(255, 255, 255);fill-rule:evenodd;clip-rule:evenodd;" d="M49.984,99.824C45.848,69.47,28.497,53.961-0.345,49.773
                        c29.054-3.697,45.791-19.659,50.348-49.949c4.404,29.487,20.907,45.691,49.652,49.975C70.729,54.051,54.532,70.407,49.984,99.824z"/><path transform="translate(60 132) scale(0.06)" style="fill: rgb(255, 255, 255);fill-rule:evenodd;clip-rule:evenodd;" d="M49.984,99.824C45.848,69.47,28.497,53.961-0.345,49.773
                        c29.054-3.697,45.791-19.659,50.348-49.949c4.404,29.487,20.907,45.691,49.652,49.975C70.729,54.051,54.532,70.407,49.984,99.824z"/><path transform="translate(66 132) scale(0.06)" style="fill: rgb(255, 255, 255);fill-rule:evenodd;clip-rule:evenodd;" d="M49.984,99.824C45.848,69.47,28.497,53.961-0.345,49.773
                        c29.054-3.697,45.791-19.659,50.348-49.949c4.404,29.487,20.907,45.691,49.652,49.975C70.729,54.051,54.532,70.407,49.984,99.824z"/><path transform="translate(78 132) scale(0.06)" style="fill: rgb(255, 255, 255);fill-rule:evenodd;clip-rule:evenodd;" d="M49.984,99.824C45.848,69.47,28.497,53.961-0.345,49.773
                        c29.054-3.697,45.791-19.659,50.348-49.949c4.404,29.487,20.907,45.691,49.652,49.975C70.729,54.051,54.532,70.407,49.984,99.824z"/><path transform="translate(90 132) scale(0.06)" style="fill: rgb(255, 255, 255);fill-rule:evenodd;clip-rule:evenodd;" d="M49.984,99.824C45.848,69.47,28.497,53.961-0.345,49.773
                        c29.054-3.697,45.791-19.659,50.348-49.949c4.404,29.487,20.907,45.691,49.652,49.975C70.729,54.051,54.532,70.407,49.984,99.824z"/><path transform="translate(96 132) scale(0.06)" style="fill: rgb(255, 255, 255);fill-rule:evenodd;clip-rule:evenodd;" d="M49.984,99.824C45.848,69.47,28.497,53.961-0.345,49.773
                        c29.054-3.697,45.791-19.659,50.348-49.949c4.404,29.487,20.907,45.691,49.652,49.975C70.729,54.051,54.532,70.407,49.984,99.824z"/><path transform="translate(102 132) scale(0.06)" style="fill: rgb(255, 255, 255);fill-rule:evenodd;clip-rule:evenodd;" d="M49.984,99.824C45.848,69.47,28.497,53.961-0.345,49.773
                        c29.054-3.697,45.791-19.659,50.348-49.949c4.404,29.487,20.907,45.691,49.652,49.975C70.729,54.051,54.532,70.407,49.984,99.824z"/><path transform="translate(120 132) scale(0.06)" style="fill: rgb(255, 255, 255);fill-rule:evenodd;clip-rule:evenodd;" d="M49.984,99.824C45.848,69.47,28.497,53.961-0.345,49.773
                        c29.054-3.697,45.791-19.659,50.348-49.949c4.404,29.487,20.907,45.691,49.652,49.975C70.729,54.051,54.532,70.407,49.984,99.824z"/><path transform="translate(126 132) scale(0.06)" style="fill: rgb(255, 255, 255);fill-rule:evenodd;clip-rule:evenodd;" d="M49.984,99.824C45.848,69.47,28.497,53.961-0.345,49.773
                        c29.054-3.697,45.791-19.659,50.348-49.949c4.404,29.487,20.907,45.691,49.652,49.975C70.729,54.051,54.532,70.407,49.984,99.824z"/><path transform="translate(132 132) scale(0.06)" style="fill: rgb(255, 255, 255);fill-rule:evenodd;clip-rule:evenodd;" d="M49.984,99.824C45.848,69.47,28.497,53.961-0.345,49.773
                        c29.054-3.697,45.791-19.659,50.348-49.949c4.404,29.487,20.907,45.691,49.652,49.975C70.729,54.051,54.532,70.407,49.984,99.824z"/><path transform="translate(138 132) scale(0.06)" style="fill: rgb(255, 255, 255);fill-rule:evenodd;clip-rule:evenodd;" d="M49.984,99.824C45.848,69.47,28.497,53.961-0.345,49.773
                        c29.054-3.697,45.791-19.659,50.348-49.949c4.404,29.487,20.907,45.691,49.652,49.975C70.729,54.051,54.532,70.407,49.984,99.824z"/><path transform="translate(144 132) scale(0.06)" style="fill: rgb(255, 255, 255);fill-rule:evenodd;clip-rule:evenodd;" d="M49.984,99.824C45.848,69.47,28.497,53.961-0.345,49.773
                        c29.054-3.697,45.791-19.659,50.348-49.949c4.404,29.487,20.907,45.691,49.652,49.975C70.729,54.051,54.532,70.407,49.984,99.824z"/><path transform="translate(60 138) scale(0.06)" style="fill: rgb(255, 255, 255);fill-rule:evenodd;clip-rule:evenodd;" d="M49.984,99.824C45.848,69.47,28.497,53.961-0.345,49.773
                        c29.054-3.697,45.791-19.659,50.348-49.949c4.404,29.487,20.907,45.691,49.652,49.975C70.729,54.051,54.532,70.407,49.984,99.824z"/><path transform="translate(66 138) scale(0.06)" style="fill: rgb(255, 255, 255);fill-rule:evenodd;clip-rule:evenodd;" d="M49.984,99.824C45.848,69.47,28.497,53.961-0.345,49.773
                        c29.054-3.697,45.791-19.659,50.348-49.949c4.404,29.487,20.907,45.691,49.652,49.975C70.729,54.051,54.532,70.407,49.984,99.824z"/><path transform="translate(72 138) scale(0.06)" style="fill: rgb(255, 255, 255);fill-rule:evenodd;clip-rule:evenodd;" d="M49.984,99.824C45.848,69.47,28.497,53.961-0.345,49.773
                        c29.054-3.697,45.791-19.659,50.348-49.949c4.404,29.487,20.907,45.691,49.652,49.975C70.729,54.051,54.532,70.407,49.984,99.824z"/><path transform="translate(78 138) scale(0.06)" style="fill: rgb(255, 255, 255);fill-rule:evenodd;clip-rule:evenodd;" d="M49.984,99.824C45.848,69.47,28.497,53.961-0.345,49.773
                        c29.054-3.697,45.791-19.659,50.348-49.949c4.404,29.487,20.907,45.691,49.652,49.975C70.729,54.051,54.532,70.407,49.984,99.824z"/><path transform="translate(114 138) scale(0.06)" style="fill: rgb(255, 255, 255);fill-rule:evenodd;clip-rule:evenodd;" d="M49.984,99.824C45.848,69.47,28.497,53.961-0.345,49.773
                        c29.054-3.697,45.791-19.659,50.348-49.949c4.404,29.487,20.907,45.691,49.652,49.975C70.729,54.051,54.532,70.407,49.984,99.824z"/><path transform="translate(120 138) scale(0.06)" style="fill: rgb(255, 255, 255);fill-rule:evenodd;clip-rule:evenodd;" d="M49.984,99.824C45.848,69.47,28.497,53.961-0.345,49.773
                        c29.054-3.697,45.791-19.659,50.348-49.949c4.404,29.487,20.907,45.691,49.652,49.975C70.729,54.051,54.532,70.407,49.984,99.824z"/><path transform="translate(132 138) scale(0.06)" style="fill: rgb(255, 255, 255);fill-rule:evenodd;clip-rule:evenodd;" d="M49.984,99.824C45.848,69.47,28.497,53.961-0.345,49.773
                        c29.054-3.697,45.791-19.659,50.348-49.949c4.404,29.487,20.907,45.691,49.652,49.975C70.729,54.051,54.532,70.407,49.984,99.824z"/><path transform="translate(138 138) scale(0.06)" style="fill: rgb(255, 255, 255);fill-rule:evenodd;clip-rule:evenodd;" d="M49.984,99.824C45.848,69.47,28.497,53.961-0.345,49.773
                        c29.054-3.697,45.791-19.659,50.348-49.949c4.404,29.487,20.907,45.691,49.652,49.975C70.729,54.051,54.532,70.407,49.984,99.824z"/><path transform="translate(144 138) scale(0.06)" style="fill: rgb(255, 255, 255);fill-rule:evenodd;clip-rule:evenodd;" d="M49.984,99.824C45.848,69.47,28.497,53.961-0.345,49.773
                        c29.054-3.697,45.791-19.659,50.348-49.949c4.404,29.487,20.907,45.691,49.652,49.975C70.729,54.051,54.532,70.407,49.984,99.824z"/><path transform="translate(48 144) scale(0.06)" style="fill: rgb(255, 255, 255);fill-rule:evenodd;clip-rule:evenodd;" d="M49.984,99.824C45.848,69.47,28.497,53.961-0.345,49.773
                        c29.054-3.697,45.791-19.659,50.348-49.949c4.404,29.487,20.907,45.691,49.652,49.975C70.729,54.051,54.532,70.407,49.984,99.824z"/><path transform="translate(60 144) scale(0.06)" style="fill: rgb(255, 255, 255);fill-rule:evenodd;clip-rule:evenodd;" d="M49.984,99.824C45.848,69.47,28.497,53.961-0.345,49.773
                        c29.054-3.697,45.791-19.659,50.348-49.949c4.404,29.487,20.907,45.691,49.652,49.975C70.729,54.051,54.532,70.407,49.984,99.824z"/><path transform="translate(66 144) scale(0.06)" style="fill: rgb(255, 255, 255);fill-rule:evenodd;clip-rule:evenodd;" d="M49.984,99.824C45.848,69.47,28.497,53.961-0.345,49.773
                        c29.054-3.697,45.791-19.659,50.348-49.949c4.404,29.487,20.907,45.691,49.652,49.975C70.729,54.051,54.532,70.407,49.984,99.824z"/><path transform="translate(72 144) scale(0.06)" style="fill: rgb(255, 255, 255);fill-rule:evenodd;clip-rule:evenodd;" d="M49.984,99.824C45.848,69.47,28.497,53.961-0.345,49.773
                        c29.054-3.697,45.791-19.659,50.348-49.949c4.404,29.487,20.907,45.691,49.652,49.975C70.729,54.051,54.532,70.407,49.984,99.824z"/><path transform="translate(78 144) scale(0.06)" style="fill: rgb(255, 255, 255);fill-rule:evenodd;clip-rule:evenodd;" d="M49.984,99.824C45.848,69.47,28.497,53.961-0.345,49.773
                        c29.054-3.697,45.791-19.659,50.348-49.949c4.404,29.487,20.907,45.691,49.652,49.975C70.729,54.051,54.532,70.407,49.984,99.824z"/><path transform="translate(96 144) scale(0.06)" style="fill: rgb(255, 255, 255);fill-rule:evenodd;clip-rule:evenodd;" d="M49.984,99.824C45.848,69.47,28.497,53.961-0.345,49.773
                        c29.054-3.697,45.791-19.659,50.348-49.949c4.404,29.487,20.907,45.691,49.652,49.975C70.729,54.051,54.532,70.407,49.984,99.824z"/><path transform="translate(102 144) scale(0.06)" style="fill: rgb(255, 255, 255);fill-rule:evenodd;clip-rule:evenodd;" d="M49.984,99.824C45.848,69.47,28.497,53.961-0.345,49.773
                        c29.054-3.697,45.791-19.659,50.348-49.949c4.404,29.487,20.907,45.691,49.652,49.975C70.729,54.051,54.532,70.407,49.984,99.824z"/><path transform="translate(126 144) scale(0.06)" style="fill: rgb(255, 255, 255);fill-rule:evenodd;clip-rule:evenodd;" d="M49.984,99.824C45.848,69.47,28.497,53.961-0.345,49.773
                        c29.054-3.697,45.791-19.659,50.348-49.949c4.404,29.487,20.907,45.691,49.652,49.975C70.729,54.051,54.532,70.407,49.984,99.824z"/><path transform="translate(144 144) scale(0.06)" style="fill: rgb(255, 255, 255);fill-rule:evenodd;clip-rule:evenodd;" d="M49.984,99.824C45.848,69.47,28.497,53.961-0.345,49.773
                        c29.054-3.697,45.791-19.659,50.348-49.949c4.404,29.487,20.907,45.691,49.652,49.975C70.729,54.051,54.532,70.407,49.984,99.824z"/><g transform="translate(42,0) scale(-0.4204,0.4204)"><path transform="translate(25,25) scale(0.5)" style="fill:rgb(255,255,255);" d="M72.744-0.021H27.23c-2.341,0-4.612,0.297-6.771,0.875C15.679,2.11,11.418,4.648,8.04,8.09 c-0.617,0.621-1.206,1.284-1.752,1.96c-3.883,4.767-6.21,10.903-6.21,17.561L0.05,99.979h72.694 c14.971,0,27.138-12.397,27.138-27.63V27.625v-0.014l0.168-27.617C100.05-0.006,82.107-0.021,72.744-0.021z"/></g>
            <g transform="translate(42,150) scale(-0.4204,-0.4204)"><path transform="translate(25,25) scale(0.5)" style="fill:rgb(255,255,255);" d="M72.744-0.021H27.23c-2.341,0-4.612,0.297-6.771,0.875C15.679,2.11,11.418,4.648,8.04,8.09 c-0.617,0.621-1.206,1.284-1.752,1.96c-3.883,4.767-6.21,10.903-6.21,17.561L0.05,99.979h72.694 c14.971,0,27.138-12.397,27.138-27.63V27.625v-0.014l0.168-27.617C100.05-0.006,82.107-0.021,72.744-0.021z"/></g>
            <g transform="translate(108,0) scale(0.4204)"><path transform="translate(25,25) scale(0.5)" style="fill:rgb(255,255,255);" d="M72.744-0.021H27.23c-2.341,0-4.612,0.297-6.771,0.875C15.679,2.11,11.418,4.648,8.04,8.09 c-0.617,0.621-1.206,1.284-1.752,1.96c-3.883,4.767-6.21,10.903-6.21,17.561L0.05,99.979h72.694 c14.971,0,27.138-12.397,27.138-27.63V27.625v-0.014l0.168-27.617C100.05-0.006,82.107-0.021,72.744-0.021z"/></g><g transform="translate(42,0) scale(-0.4204,0.4204)"><path fill="none" d="M15.02,34.145L15.004,85H66.25C76.589,85,85,76.414,85,65.86V15H33.78C23.436,15,15.02,23.586,15.02,34.145z"/>
	                <path fill="rgb(255,255,255)" d="M66.25,0H33.78C15.16,0,0.02,15.32,0.02,34.14L0,100h66.25C84.86,100,100,84.68,100,65.86V34.14V0H66.25z M85,65.86
		            C85,76.414,76.589,85,66.25,85H15.004l0.016-50.855C15.02,23.586,23.436,15,33.78,15H85V65.86z"/></g>
                <g transform="translate(42,150) scale(-0.4204,-0.4204)"><path fill="none" d="M15.02,34.145L15.004,85H66.25C76.589,85,85,76.414,85,65.86V15H33.78C23.436,15,15.02,23.586,15.02,34.145z"/>
	                <path fill="rgb(255,255,255)" d="M66.25,0H33.78C15.16,0,0.02,15.32,0.02,34.14L0,100h66.25C84.86,100,100,84.68,100,65.86V34.14V0H66.25z M85,65.86
		            C85,76.414,76.589,85,66.25,85H15.004l0.016-50.855C15.02,23.586,23.436,15,33.78,15H85V65.86z"/></g>
                <g transform="translate(108,0) scale(0.4204)"><path fill="none" d="M15.02,34.145L15.004,85H66.25C76.589,85,85,76.414,85,65.86V15H33.78C23.436,15,15.02,23.586,15.02,34.145z"/>
	                <path fill="rgb(255,255,255)" d="M66.25,0H33.78C15.16,0,0.02,15.32,0.02,34.14L0,100h66.25C84.86,100,100,84.68,100,65.86V34.14V0H66.25z M85,65.86
		            C85,76.414,76.589,85,66.25,85H15.004l0.016-50.855C15.02,23.586,23.436,15,33.78,15H85V65.86z"/></g></g></mask>
            <radialGradient id="grad">
                <stop offset="0%" style="stop-color:green;" />
                <stop offset="100%" style="stop-color:black;" />
            </radialGradient>
            </defs></g><rect x="0" y="0" width="160" height="160" fill="url(#grad)" mask="url(#gmask)" /></g></svg>