<svg viewBox="0 0 160 160" xmlns="http://www.w3.org/2000/svg">
    <rect x="0" y="0" width="160" height="160" fill="rgba(0,0,0,0)" />
    <g transform="translate(5,5)"><g><defs><mask id="gmask"><g><circle style="fill: rgb(255, 255, 255);" cx="51" cy="3" r="2" /><circle style="fill: rgb(255, 255, 255);" cx="69" cy="3" r="2" /><circle style="fill: rgb(255, 255, 255);" cx="75" cy="3" r="2" /><circle style="fill: rgb(255, 255, 255);" cx="81" cy="3" r="2" /><circle style="fill: rgb(255, 255, 255);" cx="51" cy="9" r="2" /><circle style="fill: rgb(255, 255, 255);" cx="57" cy="9" r="2" /><circle style="fill: rgb(255, 255, 255);" cx="75" cy="9" r="2" /><circle style="fill: rgb(255, 255, 255);" cx="87" cy="9" r="2" /><circle style="fill: rgb(255, 255, 255);" cx="99" cy="9" r="2" /><circle style="fill: rgb(255, 255, 255);" cx="51" cy="15" r="2" /><circle style="fill: rgb(255, 255, 255);" cx="57" cy="15" r="2" /><circle style="fill: rgb(255, 255, 255);" cx="63" cy="15" r="2" /><circle style="fill: rgb(255, 255, 255);" cx="75" cy="15" r="2" /><circle style="fill: rgb(255, 255, 255);" cx="81" cy="15" r="2" /><circle style="fill: rgb(255, 255, 255);" cx="87" cy="15" r="2" /><circle style="fill: rgb(255, 255, 255);" cx="93" cy="15" r="2" /><circle style="fill: rgb(255, 255, 255);" cx="99" cy="15" r="2" /><circle style="fill: rgb(255, 255, 255);" cx="81" cy="21" r="2" /><circle style="fill: rgb(255, 255, 255);" cx="87" cy="21" r="2" /><circle style="fill: rgb(255, 255, 255);" cx="93" cy="21" r="2" /><circle style="fill: rgb(255, 255, 255);" cx="99" cy="21" r="2" /><circle style="fill: rgb(255, 255, 255);" cx="51" cy="27" r="2" /><circle style="fill: rgb(255, 255, 255);" cx="57" cy="27" r="2" /><circle style="fill: rgb(255, 255, 255);" cx="69" cy="27" r="2" /><circle style="fill: rgb(255, 255, 255);" cx="81" cy="27" r="2" /><circle style="fill: rgb(255, 255, 255);" cx="87" cy="27" r="2" /><circle style="fill: rgb(255, 255, 255);" cx="99" cy="27" r="2" /><circle style="fill: rgb(255, 255, 255);" cx="69" cy="33" r="2" /><circle style="fill: rgb(255, 255, 255);" cx="81" cy="33" r="2" /><circle style="fill: rgb(255, 255, 255);" cx="87" cy="33" r="2" /><circle style="fill: rgb(255, 255, 255);" cx="99" cy="33" r="2" /><circle style="fill: rgb(255, 255, 255);" cx="51" cy="39" r="2" /><circle style="fill: rgb(255, 255, 255);" cx="63" cy="39" r="2" /><circle style="fill: rgb(255, 255, 255);" cx="75" cy="39" r="2" /><circle style="fill: rgb(255, 255, 255);" cx="87" cy="39" r="2" /><circle style="fill: rgb(255, 255, 255);" cx="99" cy="39" r="2" /><circle style="fill: rgb(255, 255, 255);" cx="69" cy="45" r="2" /><circle style="fill: rgb(255, 255, 255);" cx="75" cy="45" r="2" /><circle style="fill: rgb(255, 255, 255);" cx="81" cy="45" r="2" /><circle style="fill: rgb(255, 255, 255);" cx="87" cy="45" r="2" /><circle style="fill: rgb(255, 255, 255);" cx="93" cy="45" r="2" /><circle style="fill: rgb(255, 255, 255);" cx="3" cy="51" r="2" /><circle style="fill: rgb(255, 255, 255);" cx="21" cy="51" r="2" /><circle style="fill: rgb(255, 255, 255);" cx="27" cy="51" r="2" /><circle style="fill: rgb(255, 255, 255);" cx="33" cy="51" r="2" /><circle style="fill: rgb(255, 255, 255);" cx="39" cy="51" r="2" /><circle style="fill: rgb(255, 255, 255);" cx="45" cy="51" r="2" /><circle style="fill: rgb(255, 255, 255);" cx="51" cy="51" r="2" /><circle style="fill: rgb(255, 255, 255);" cx="69" cy="51" r="2" /><circle style="fill: rgb(255, 255, 255);" cx="75" cy="51" r="2" /><circle style="fill: rgb(255, 255, 255);" cx="87" cy="51" r="2" /><circle style="fill: rgb(255, 255, 255);" cx="93" cy="51" r="2" /><circle style="fill: rgb(255, 255, 255);" cx="105" cy="51" r="2" /><circle style="fill: rgb(255, 255, 255);" cx="123" cy="51" r="2" /><circle style="fill: rgb(255, 255, 255);" cx="135" cy="51" r="2" /><circle style="fill: rgb(255, 255, 255);" cx="141" cy="51" r="2" /><circle style="fill: rgb(255, 255, 255);" cx="147" cy="51" r="2" /><circle style="fill: rgb(255, 255, 255);" cx="9" cy="57" r="2" /><circle style="fill: rgb(255, 255, 255);" cx="15" cy="57" r="2" /><circle style="fill: rgb(255, 255, 255);" cx="21" cy="57" r="2" /><circle style="fill: rgb(255, 255, 255);" cx="45" cy="57" r="2" /><circle style="fill: rgb(255, 255, 255);" cx="63" cy="57" r="2" /><circle style="fill: rgb(255, 255, 255);" cx="69" cy="57" r="2" /><circle style="fill: rgb(255, 255, 255);" cx="75" cy="57" r="2" /><circle style="fill: rgb(255, 255, 255);" cx="87" cy="57" r="2" /><circle style="fill: rgb(255, 255, 255);" cx="93" cy="57" r="2" /><circle style="fill: rgb(255, 255, 255);" cx="105" cy="57" r="2" /><circle style="fill: rgb(255, 255, 255);" cx="117" cy="57" r="2" /><circle style="fill: rgb(255, 255, 255);" cx="123" cy="57" r="2" /><circle style="fill: rgb(255, 255, 255);" cx="129" cy="57" r="2" /><circle style="fill: rgb(255, 255, 255);" cx="135" cy="57" r="2" /><circle style="fill: rgb(255, 255, 255);" cx="141" cy="57" r="2" /><circle style="fill: rgb(255, 255, 255);" cx="21" cy="63" r="2" /><circle style="fill: rgb(255, 255, 255);" cx="39" cy="63" r="2" /><circle style="fill: rgb(255, 255, 255);" cx="57" cy="63" r="2" /><circle style="fill: rgb(255, 255, 255);" cx="63" cy="63" r="2" /><circle style="fill: rgb(255, 255, 255);" cx="75" cy="63" r="2" /><circle style="fill: rgb(255, 255, 255);" cx="81" cy="63" r="2" /><circle style="fill: rgb(255, 255, 255);" cx="87" cy="63" r="2" /><circle style="fill: rgb(255, 255, 255);" cx="93" cy="63" r="2" /><circle style="fill: rgb(255, 255, 255);" cx="111" cy="63" r="2" /><circle style="fill: rgb(255, 255, 255);" cx="117" cy="63" r="2" /><circle style="fill: rgb(255, 255, 255);" cx="129" cy="63" r="2" /><circle style="fill: rgb(255, 255, 255);" cx="147" cy="63" r="2" /><circle style="fill: rgb(255, 255, 255);" cx="3" cy="69" r="2" /><circle style="fill: rgb(255, 255, 255);" cx="33" cy="69" r="2" /><circle style="fill: rgb(255, 255, 255);" cx="45" cy="69" r="2" /><circle style="fill: rgb(255, 255, 255);" cx="63" cy="69" r="2" /><circle style="fill: rgb(255, 255, 255);" cx="69" cy="69" r="2" /><circle style="fill: rgb(255, 255, 255);" cx="93" cy="69" r="2" /><circle style="fill: rgb(255, 255, 255);" cx="117" cy="69" r="2" /><circle style="fill: rgb(255, 255, 255);" cx="129" cy="69" r="2" /><circle style="fill: rgb(255, 255, 255);" cx="135" cy="69" r="2" /><circle style="fill: rgb(255, 255, 255);" cx="141" cy="69" r="2" /><circle style="fill: rgb(255, 255, 255);" cx="147" cy="69" r="2" /><circle style="fill: rgb(255, 255, 255);" cx="3" cy="75" r="2" /><circle style="fill: rgb(255, 255, 255);" cx="27" cy="75" r="2" /><circle style="fill: rgb(255, 255, 255);" cx="39" cy="75" r="2" /><circle style="fill: rgb(255, 255, 255);" cx="45" cy="75" r="2" /><circle style="fill: rgb(255, 255, 255);" cx="69" cy="75" r="2" /><circle style="fill: rgb(255, 255, 255);" cx="99" cy="75" r="2" /><circle style="fill: rgb(255, 255, 255);" cx="111" cy="75" r="2" /><circle style="fill: rgb(255, 255, 255);" cx="147" cy="75" r="2" /><circle style="fill: rgb(255, 255, 255);" cx="3" cy="81" r="2" /><circle style="fill: rgb(255, 255, 255);" cx="9" cy="81" r="2" /><circle style="fill: rgb(255, 255, 255);" cx="15" cy="81" r="2" /><circle style="fill: rgb(255, 255, 255);" cx="21" cy="81" r="2" /><circle style="fill: rgb(255, 255, 255);" cx="45" cy="81" r="2" /><circle style="fill: rgb(255, 255, 255);" cx="51" cy="81" r="2" /><circle style="fill: rgb(255, 255, 255);" cx="75" cy="81" r="2" /><circle style="fill: rgb(255, 255, 255);" cx="87" cy="81" r="2" /><circle style="fill: rgb(255, 255, 255);" cx="93" cy="81" r="2" /><circle style="fill: rgb(255, 255, 255);" cx="99" cy="81" r="2" /><circle style="fill: rgb(255, 255, 255);" cx="105" cy="81" r="2" /><circle style="fill: rgb(255, 255, 255);" cx="123" cy="81" r="2" /><circle style="fill: rgb(255, 255, 255);" cx="141" cy="81" r="2" /><circle style="fill: rgb(255, 255, 255);" cx="3" cy="87" r="2" /><circle style="fill: rgb(255, 255, 255);" cx="9" cy="87" r="2" /><circle style="fill: rgb(255, 255, 255);" cx="15" cy="87" r="2" /><circle style="fill: rgb(255, 255, 255);" cx="33" cy="87" r="2" /><circle style="fill: rgb(255, 255, 255);" cx="39" cy="87" r="2" /><circle style="fill: rgb(255, 255, 255);" cx="51" cy="87" r="2" /><circle style="fill: rgb(255, 255, 255);" cx="63" cy="87" r="2" /><circle style="fill: rgb(255, 255, 255);" cx="81" cy="87" r="2" /><circle style="fill: rgb(255, 255, 255);" cx="93" cy="87" r="2" /><circle style="fill: rgb(255, 255, 255);" cx="105" cy="87" r="2" /><circle style="fill: rgb(255, 255, 255);" cx="111" cy="87" r="2" /><circle style="fill: rgb(255, 255, 255);" cx="123" cy="87" r="2" /><circle style="fill: rgb(255, 255, 255);" cx="129" cy="87" r="2" /><circle style="fill: rgb(255, 255, 255);" cx="135" cy="87" r="2" /><circle style="fill: rgb(255, 255, 255);" cx="141" cy="87" r="2" /><circle style="fill: rgb(255, 255, 255);" cx="147" cy="87" r="2" /><circle style="fill: rgb(255, 255, 255);" cx="3" cy="93" r="2" /><circle style="fill: rgb(255, 255, 255);" cx="21" cy="93" r="2" /><circle style="fill: rgb(255, 255, 255);" cx="27" cy="93" r="2" /><circle style="fill: rgb(255, 255, 255);" cx="33" cy="93" r="2" /><circle style="fill: rgb(255, 255, 255);" cx="45" cy="93" r="2" /><circle style="fill: rgb(255, 255, 255);" cx="51" cy="93" r="2" /><circle style="fill: rgb(255, 255, 255);" cx="57" cy="93" r="2" /><circle style="fill: rgb(255, 255, 255);" cx="63" cy="93" r="2" /><circle style="fill: rgb(255, 255, 255);" cx="75" cy="93" r="2" /><circle style="fill: rgb(255, 255, 255);" cx="99" cy="93" r="2" /><circle style="fill: rgb(255, 255, 255);" cx="105" cy="93" r="2" /><circle style="fill: rgb(255, 255, 255);" cx="117" cy="93" r="2" /><circle style="fill: rgb(255, 255, 255);" cx="129" cy="93" r="2" /><circle style="fill: rgb(255, 255, 255);" cx="135" cy="93" r="2" /><circle style="fill: rgb(255, 255, 255);" cx="147" cy="93" r="2" /><circle style="fill: rgb(255, 255, 255);" cx="3" cy="99" r="2" /><circle style="fill: rgb(255, 255, 255);" cx="15" cy="99" r="2" /><circle style="fill: rgb(255, 255, 255);" cx="21" cy="99" r="2" /><circle style="fill: rgb(255, 255, 255);" cx="27" cy="99" r="2" /><circle style="fill: rgb(255, 255, 255);" cx="33" cy="99" r="2" /><circle style="fill: rgb(255, 255, 255);" cx="39" cy="99" r="2" /><circle style="fill: rgb(255, 255, 255);" cx="45" cy="99" r="2" /><circle style="fill: rgb(255, 255, 255);" cx="69" cy="99" r="2" /><circle style="fill: rgb(255, 255, 255);" cx="75" cy="99" r="2" /><circle style="fill: rgb(255, 255, 255);" cx="81" cy="99" r="2" /><circle style="fill: rgb(255, 255, 255);" cx="93" cy="99" r="2" /><circle style="fill: rgb(255, 255, 255);" cx="99" cy="99" r="2" /><circle style="fill: rgb(255, 255, 255);" cx="105" cy="99" r="2" /><circle style="fill: rgb(255, 255, 255);" cx="111" cy="99" r="2" /><circle style="fill: rgb(255, 255, 255);" cx="117" cy="99" r="2" /><circle style="fill: rgb(255, 255, 255);" cx="123" cy="99" r="2" /><circle style="fill: rgb(255, 255, 255);" cx="135" cy="99" r="2" /><circle style="fill: rgb(255, 255, 255);" cx="141" cy="99" r="2" /><circle style="fill: rgb(255, 255, 255);" cx="51" cy="105" r="2" /><circle style="fill: rgb(255, 255, 255);" cx="57" cy="105" r="2" /><circle style="fill: rgb(255, 255, 255);" cx="69" cy="105" r="2" /><circle style="fill: rgb(255, 255, 255);" cx="81" cy="105" r="2" /><circle style="fill: rgb(255, 255, 255);" cx="87" cy="105" r="2" /><circle style="fill: rgb(255, 255, 255);" cx="99" cy="105" r="2" /><circle style="fill: rgb(255, 255, 255);" cx="123" cy="105" r="2" /><circle style="fill: rgb(255, 255, 255);" cx="135" cy="105" r="2" /><circle style="fill: rgb(255, 255, 255);" cx="141" cy="105" r="2" /><circle style="fill: rgb(255, 255, 255);" cx="51" cy="111" r="2" /><circle style="fill: rgb(255, 255, 255);" cx="75" cy="111" r="2" /><circle style="fill: rgb(255, 255, 255);" cx="87" cy="111" r="2" /><circle style="fill: rgb(255, 255, 255);" cx="99" cy="111" r="2" /><circle style="fill: rgb(255, 255, 255);" cx="111" cy="111" r="2" /><circle style="fill: rgb(255, 255, 255);" cx="123" cy="111" r="2" /><circle style="fill: rgb(255, 255, 255);" cx="147" cy="111" r="2" /><circle style="fill: rgb(255, 255, 255);" cx="51" cy="117" r="2" /><circle style="fill: rgb(255, 255, 255);" cx="69" cy="117" r="2" /><circle style="fill: rgb(255, 255, 255);" cx="81" cy="117" r="2" /><circle style="fill: rgb(255, 255, 255);" cx="87" cy="117" r="2" /><circle style="fill: rgb(255, 255, 255);" cx="93" cy="117" r="2" /><circle style="fill: rgb(255, 255, 255);" cx="99" cy="117" r="2" /><circle style="fill: rgb(255, 255, 255);" cx="123" cy="117" r="2" /><circle style="fill: rgb(255, 255, 255);" cx="51" cy="123" r="2" /><circle style="fill: rgb(255, 255, 255);" cx="63" cy="123" r="2" /><circle style="fill: rgb(255, 255, 255);" cx="69" cy="123" r="2" /><circle style="fill: rgb(255, 255, 255);" cx="81" cy="123" r="2" /><circle style="fill: rgb(255, 255, 255);" cx="93" cy="123" r="2" /><circle style="fill: rgb(255, 255, 255);" cx="99" cy="123" r="2" /><circle style="fill: rgb(255, 255, 255);" cx="105" cy="123" r="2" /><circle style="fill: rgb(255, 255, 255);" cx="111" cy="123" r="2" /><circle style="fill: rgb(255, 255, 255);" cx="117" cy="123" r="2" /><circle style="fill: rgb(255, 255, 255);" cx="123" cy="123" r="2" /><circle style="fill: rgb(255, 255, 255);" cx="141" cy="123" r="2" /><circle style="fill: rgb(255, 255, 255);" cx="147" cy="123" r="2" /><circle style="fill: rgb(255, 255, 255);" cx="51" cy="129" r="2" /><circle style="fill: rgb(255, 255, 255);" cx="75" cy="129" r="2" /><circle style="fill: rgb(255, 255, 255);" cx="81" cy="129" r="2" /><circle style="fill: rgb(255, 255, 255);" cx="87" cy="129" r="2" /><circle style="fill: rgb(255, 255, 255);" cx="93" cy="129" r="2" /><circle style="fill: rgb(255, 255, 255);" cx="111" cy="129" r="2" /><circle style="fill: rgb(255, 255, 255);" cx="141" cy="129" r="2" /><circle style="fill: rgb(255, 255, 255);" cx="147" cy="129" r="2" /><circle style="fill: rgb(255, 255, 255);" cx="63" cy="135" r="2" /><circle style="fill: rgb(255, 255, 255);" cx="69" cy="135" r="2" /><circle style="fill: rgb(255, 255, 255);" cx="81" cy="135" r="2" /><circle style="fill: rgb(255, 255, 255);" cx="93" cy="135" r="2" /><circle style="fill: rgb(255, 255, 255);" cx="99" cy="135" r="2" /><circle style="fill: rgb(255, 255, 255);" cx="105" cy="135" r="2" /><circle style="fill: rgb(255, 255, 255);" cx="123" cy="135" r="2" /><circle style="fill: rgb(255, 255, 255);" cx="129" cy="135" r="2" /><circle style="fill: rgb(255, 255, 255);" cx="135" cy="135" r="2" /><circle style="fill: rgb(255, 255, 255);" cx="141" cy="135" r="2" /><circle style="fill: rgb(255, 255, 255);" cx="147" cy="135" r="2" /><circle style="fill: rgb(255, 255, 255);" cx="63" cy="141" r="2" /><circle style="fill: rgb(255, 255, 255);" cx="69" cy="141" r="2" /><circle style="fill: rgb(255, 255, 255);" cx="75" cy="141" r="2" /><circle style="fill: rgb(255, 255, 255);" cx="81" cy="141" r="2" /><circle style="fill: rgb(255, 255, 255);" cx="117" cy="141" r="2" /><circle style="fill: rgb(255, 255, 255);" cx="123" cy="141" r="2" /><circle style="fill: rgb(255, 255, 255);" cx="135" cy="141" r="2" /><circle style="fill: rgb(255, 255, 255);" cx="141" cy="141" r="2" /><circle style="fill: rgb(255, 255, 255);" cx="147" cy="141" r="2" /><circle style="fill: rgb(255, 255, 255);" cx="51" cy="147" r="2" /><circle style="fill: rgb(255, 255, 255);" cx="63" cy="147" r="2" /><circle style="fill: rgb(255, 255, 255);" cx="69" cy="147" r="2" /><circle style="fill: rgb(255, 255, 255);" cx="75" cy="147" r="2" /><circle style="fill: rgb(255, 255, 255);" cx="81" cy="147" r="2" /><circle style="fill: rgb(255, 255, 255);" cx="99" cy="147" r="2" /><circle style="fill: rgb(255, 255, 255);" cx="105" cy="147" r="2" /><circle style="fill: rgb(255, 255, 255);" cx="129" cy="147" r="2" /><circle style="fill: rgb(255, 255, 255);" cx="147" cy="147" r="2" /><g transform="translate(42,0) scale(-0.4204,0.4204)"><path  transform="translate(75,75) scale(-0.5)" style="fill:rgb(255,255,255);"  d="M100.061,99.984V0h-100l0.028,72.369C0.088,87.602,12.27,100,27.226,100h45.528c4.682,0,11.508,0,17.171-0.016C95.574,99.984,100.061,99.984,100.061,99.984z"/></g>
            <g transform="translate(42,150) scale(-0.4204,-0.4204)"><path  transform="translate(75,75) scale(-0.5)" style="fill:rgb(255,255,255);"  d="M100.061,99.984V0h-100l0.028,72.369C0.088,87.602,12.27,100,27.226,100h45.528c4.682,0,11.508,0,17.171-0.016C95.574,99.984,100.061,99.984,100.061,99.984z"/></g>
            <g transform="translate(108,0) scale(0.4204)"><path  transform="translate(75,75) scale(-0.5)" style="fill:rgb(255,255,255);"  d="M100.061,99.984V0h-100l0.028,72.369C0.088,87.602,12.27,100,27.226,100h45.528c4.682,0,11.508,0,17.171-0.016C95.574,99.984,100.061,99.984,100.061,99.984z"/></g><g transform="translate(42,0) scale(-0.4204,0.4204)"><path style="fill:none;"  d="M33.78,85H85V15H15.004l0.016,50.855C15.02,76.414,23.436,85,33.78,85z"/>
                    <path fill="rgb(255,255,255)" transform="translate(100 100) scale(-1 -1)" d="M100,100V65.859V34.141C100,25.65,100,0,100,0S76.46,0,66.25,0H0l0.02,65.859C0.02,84.68,15.16,100,33.78,100h32.47H100z
                    M85,85H33.78c-10.344,0-18.76-8.586-18.76-19.145L15.004,15H85V85z"/></g>
                <g transform="translate(42,150) scale(-0.4204,-0.4204)"><path style="fill:none;"  d="M33.78,85H85V15H15.004l0.016,50.855C15.02,76.414,23.436,85,33.78,85z"/>
                    <path fill="rgb(255,255,255)" transform="translate(100 100) scale(-1 -1)" d="M100,100V65.859V34.141C100,25.65,100,0,100,0S76.46,0,66.25,0H0l0.02,65.859C0.02,84.68,15.16,100,33.78,100h32.47H100z
                    M85,85H33.78c-10.344,0-18.76-8.586-18.76-19.145L15.004,15H85V85z"/></g>
                <g transform="translate(108,0) scale(0.4204)"><path style="fill:none;"  d="M33.78,85H85V15H15.004l0.016,50.855C15.02,76.414,23.436,85,33.78,85z"/>
                    <path fill="rgb(255,255,255)" transform="translate(100 100) scale(-1 -1)" d="M100,100V65.859V34.141C100,25.65,100,0,100,0S76.46,0,66.25,0H0l0.02,65.859C0.02,84.68,15.16,100,33.78,100h32.47H100z
                    M85,85H33.78c-10.344,0-18.76-8.586-18.76-19.145L15.004,15H85V85z"/></g></g></mask>
            <radialGradient id="grad">
                <stop offset="0%" style="stop-color:black;" />
                <stop offset="100%" style="stop-color:purple;" />
            </radialGradient>
            </defs></g><rect x="0" y="0" width="160" height="160" fill="url(#grad)" mask="url(#gmask)" /></g></svg>