<svg viewBox="0 0 160 160" xmlns="http://www.w3.org/2000/svg">
    <rect x="0" y="0" width="160" height="160" fill="rgba(0,0,0,0)" />
    <g transform="translate(5,5)"><g><defs><mask id="gmask"><g><rect style="fill: rgb(255, 255, 255);" x="48" y="0" width="6" height="6" /><rect style="fill: rgb(255, 255, 255);" x="66" y="0" width="6" height="6" /><rect style="fill: rgb(255, 255, 255);" x="72" y="0" width="6" height="6" /><rect style="fill: rgb(255, 255, 255);" x="78" y="0" width="6" height="6" /><rect style="fill: rgb(255, 255, 255);" x="48" y="6" width="6" height="6" /><rect style="fill: rgb(255, 255, 255);" x="54" y="6" width="6" height="6" /><rect style="fill: rgb(255, 255, 255);" x="72" y="6" width="6" height="6" /><rect style="fill: rgb(255, 255, 255);" x="84" y="6" width="6" height="6" /><rect style="fill: rgb(255, 255, 255);" x="96" y="6" width="6" height="6" /><rect style="fill: rgb(255, 255, 255);" x="48" y="12" width="6" height="6" /><rect style="fill: rgb(255, 255, 255);" x="54" y="12" width="6" height="6" /><rect style="fill: rgb(255, 255, 255);" x="60" y="12" width="6" height="6" /><rect style="fill: rgb(255, 255, 255);" x="72" y="12" width="6" height="6" /><rect style="fill: rgb(255, 255, 255);" x="78" y="12" width="6" height="6" /><rect style="fill: rgb(255, 255, 255);" x="84" y="12" width="6" height="6" /><rect style="fill: rgb(255, 255, 255);" x="90" y="12" width="6" height="6" /><rect style="fill: rgb(255, 255, 255);" x="96" y="12" width="6" height="6" /><rect style="fill: rgb(255, 255, 255);" x="78" y="18" width="6" height="6" /><rect style="fill: rgb(255, 255, 255);" x="84" y="18" width="6" height="6" /><rect style="fill: rgb(255, 255, 255);" x="90" y="18" width="6" height="6" /><rect style="fill: rgb(255, 255, 255);" x="96" y="18" width="6" height="6" /><rect style="fill: rgb(255, 255, 255);" x="48" y="24" width="6" height="6" /><rect style="fill: rgb(255, 255, 255);" x="54" y="24" width="6" height="6" /><rect style="fill: rgb(255, 255, 255);" x="66" y="24" width="6" height="6" /><rect style="fill: rgb(255, 255, 255);" x="78" y="24" width="6" height="6" /><rect style="fill: rgb(255, 255, 255);" x="84" y="24" width="6" height="6" /><rect style="fill: rgb(255, 255, 255);" x="96" y="24" width="6" height="6" /><rect style="fill: rgb(255, 255, 255);" x="66" y="30" width="6" height="6" /><rect style="fill: rgb(255, 255, 255);" x="78" y="30" width="6" height="6" /><rect style="fill: rgb(255, 255, 255);" x="84" y="30" width="6" height="6" /><rect style="fill: rgb(255, 255, 255);" x="96" y="30" width="6" height="6" /><rect style="fill: rgb(255, 255, 255);" x="48" y="36" width="6" height="6" /><rect style="fill: rgb(255, 255, 255);" x="60" y="36" width="6" height="6" /><rect style="fill: rgb(255, 255, 255);" x="72" y="36" width="6" height="6" /><rect style="fill: rgb(255, 255, 255);" x="84" y="36" width="6" height="6" /><rect style="fill: rgb(255, 255, 255);" x="96" y="36" width="6" height="6" /><rect style="fill: rgb(255, 255, 255);" x="66" y="42" width="6" height="6" /><rect style="fill: rgb(255, 255, 255);" x="72" y="42" width="6" height="6" /><rect style="fill: rgb(255, 255, 255);" x="78" y="42" width="6" height="6" /><rect style="fill: rgb(255, 255, 255);" x="84" y="42" width="6" height="6" /><rect style="fill: rgb(255, 255, 255);" x="90" y="42" width="6" height="6" /><rect style="fill: rgb(255, 255, 255);" x="0" y="48" width="6" height="6" /><rect style="fill: rgb(255, 255, 255);" x="18" y="48" width="6" height="6" /><rect style="fill: rgb(255, 255, 255);" x="24" y="48" width="6" height="6" /><rect style="fill: rgb(255, 255, 255);" x="30" y="48" width="6" height="6" /><rect style="fill: rgb(255, 255, 255);" x="36" y="48" width="6" height="6" /><rect style="fill: rgb(255, 255, 255);" x="42" y="48" width="6" height="6" /><rect style="fill: rgb(255, 255, 255);" x="48" y="48" width="6" height="6" /><rect style="fill: rgb(255, 255, 255);" x="66" y="48" width="6" height="6" /><rect style="fill: rgb(255, 255, 255);" x="72" y="48" width="6" height="6" /><rect style="fill: rgb(255, 255, 255);" x="84" y="48" width="6" height="6" /><rect style="fill: rgb(255, 255, 255);" x="90" y="48" width="6" height="6" /><rect style="fill: rgb(255, 255, 255);" x="102" y="48" width="6" height="6" /><rect style="fill: rgb(255, 255, 255);" x="120" y="48" width="6" height="6" /><rect style="fill: rgb(255, 255, 255);" x="132" y="48" width="6" height="6" /><rect style="fill: rgb(255, 255, 255);" x="138" y="48" width="6" height="6" /><rect style="fill: rgb(255, 255, 255);" x="144" y="48" width="6" height="6" /><rect style="fill: rgb(255, 255, 255);" x="6" y="54" width="6" height="6" /><rect style="fill: rgb(255, 255, 255);" x="12" y="54" width="6" height="6" /><rect style="fill: rgb(255, 255, 255);" x="18" y="54" width="6" height="6" /><rect style="fill: rgb(255, 255, 255);" x="42" y="54" width="6" height="6" /><rect style="fill: rgb(255, 255, 255);" x="60" y="54" width="6" height="6" /><rect style="fill: rgb(255, 255, 255);" x="66" y="54" width="6" height="6" /><rect style="fill: rgb(255, 255, 255);" x="72" y="54" width="6" height="6" /><rect style="fill: rgb(255, 255, 255);" x="84" y="54" width="6" height="6" /><rect style="fill: rgb(255, 255, 255);" x="90" y="54" width="6" height="6" /><rect style="fill: rgb(255, 255, 255);" x="102" y="54" width="6" height="6" /><rect style="fill: rgb(255, 255, 255);" x="114" y="54" width="6" height="6" /><rect style="fill: rgb(255, 255, 255);" x="120" y="54" width="6" height="6" /><rect style="fill: rgb(255, 255, 255);" x="126" y="54" width="6" height="6" /><rect style="fill: rgb(255, 255, 255);" x="132" y="54" width="6" height="6" /><rect style="fill: rgb(255, 255, 255);" x="138" y="54" width="6" height="6" /><rect style="fill: rgb(255, 255, 255);" x="18" y="60" width="6" height="6" /><rect style="fill: rgb(255, 255, 255);" x="36" y="60" width="6" height="6" /><rect style="fill: rgb(255, 255, 255);" x="54" y="60" width="6" height="6" /><rect style="fill: rgb(255, 255, 255);" x="60" y="60" width="6" height="6" /><rect style="fill: rgb(255, 255, 255);" x="72" y="60" width="6" height="6" /><rect style="fill: rgb(255, 255, 255);" x="78" y="60" width="6" height="6" /><rect style="fill: rgb(255, 255, 255);" x="84" y="60" width="6" height="6" /><rect style="fill: rgb(255, 255, 255);" x="90" y="60" width="6" height="6" /><rect style="fill: rgb(255, 255, 255);" x="108" y="60" width="6" height="6" /><rect style="fill: rgb(255, 255, 255);" x="114" y="60" width="6" height="6" /><rect style="fill: rgb(255, 255, 255);" x="126" y="60" width="6" height="6" /><rect style="fill: rgb(255, 255, 255);" x="144" y="60" width="6" height="6" /><rect style="fill: rgb(255, 255, 255);" x="0" y="66" width="6" height="6" /><rect style="fill: rgb(255, 255, 255);" x="30" y="66" width="6" height="6" /><rect style="fill: rgb(255, 255, 255);" x="42" y="66" width="6" height="6" /><rect style="fill: rgb(255, 255, 255);" x="60" y="66" width="6" height="6" /><rect style="fill: rgb(255, 255, 255);" x="66" y="66" width="6" height="6" /><rect style="fill: rgb(255, 255, 255);" x="90" y="66" width="6" height="6" /><rect style="fill: rgb(255, 255, 255);" x="114" y="66" width="6" height="6" /><rect style="fill: rgb(255, 255, 255);" x="126" y="66" width="6" height="6" /><rect style="fill: rgb(255, 255, 255);" x="132" y="66" width="6" height="6" /><rect style="fill: rgb(255, 255, 255);" x="138" y="66" width="6" height="6" /><rect style="fill: rgb(255, 255, 255);" x="144" y="66" width="6" height="6" /><rect style="fill: rgb(255, 255, 255);" x="0" y="72" width="6" height="6" /><rect style="fill: rgb(255, 255, 255);" x="24" y="72" width="6" height="6" /><rect style="fill: rgb(255, 255, 255);" x="36" y="72" width="6" height="6" /><rect style="fill: rgb(255, 255, 255);" x="42" y="72" width="6" height="6" /><rect style="fill: rgb(255, 255, 255);" x="66" y="72" width="6" height="6" /><rect style="fill: rgb(255, 255, 255);" x="96" y="72" width="6" height="6" /><rect style="fill: rgb(255, 255, 255);" x="108" y="72" width="6" height="6" /><rect style="fill: rgb(255, 255, 255);" x="144" y="72" width="6" height="6" /><rect style="fill: rgb(255, 255, 255);" x="0" y="78" width="6" height="6" /><rect style="fill: rgb(255, 255, 255);" x="6" y="78" width="6" height="6" /><rect style="fill: rgb(255, 255, 255);" x="12" y="78" width="6" height="6" /><rect style="fill: rgb(255, 255, 255);" x="18" y="78" width="6" height="6" /><rect style="fill: rgb(255, 255, 255);" x="42" y="78" width="6" height="6" /><rect style="fill: rgb(255, 255, 255);" x="48" y="78" width="6" height="6" /><rect style="fill: rgb(255, 255, 255);" x="72" y="78" width="6" height="6" /><rect style="fill: rgb(255, 255, 255);" x="84" y="78" width="6" height="6" /><rect style="fill: rgb(255, 255, 255);" x="90" y="78" width="6" height="6" /><rect style="fill: rgb(255, 255, 255);" x="96" y="78" width="6" height="6" /><rect style="fill: rgb(255, 255, 255);" x="102" y="78" width="6" height="6" /><rect style="fill: rgb(255, 255, 255);" x="120" y="78" width="6" height="6" /><rect style="fill: rgb(255, 255, 255);" x="138" y="78" width="6" height="6" /><rect style="fill: rgb(255, 255, 255);" x="0" y="84" width="6" height="6" /><rect style="fill: rgb(255, 255, 255);" x="6" y="84" width="6" height="6" /><rect style="fill: rgb(255, 255, 255);" x="12" y="84" width="6" height="6" /><rect style="fill: rgb(255, 255, 255);" x="30" y="84" width="6" height="6" /><rect style="fill: rgb(255, 255, 255);" x="36" y="84" width="6" height="6" /><rect style="fill: rgb(255, 255, 255);" x="48" y="84" width="6" height="6" /><rect style="fill: rgb(255, 255, 255);" x="60" y="84" width="6" height="6" /><rect style="fill: rgb(255, 255, 255);" x="78" y="84" width="6" height="6" /><rect style="fill: rgb(255, 255, 255);" x="90" y="84" width="6" height="6" /><rect style="fill: rgb(255, 255, 255);" x="102" y="84" width="6" height="6" /><rect style="fill: rgb(255, 255, 255);" x="108" y="84" width="6" height="6" /><rect style="fill: rgb(255, 255, 255);" x="120" y="84" width="6" height="6" /><rect style="fill: rgb(255, 255, 255);" x="126" y="84" width="6" height="6" /><rect style="fill: rgb(255, 255, 255);" x="132" y="84" width="6" height="6" /><rect style="fill: rgb(255, 255, 255);" x="138" y="84" width="6" height="6" /><rect style="fill: rgb(255, 255, 255);" x="144" y="84" width="6" height="6" /><rect style="fill: rgb(255, 255, 255);" x="0" y="90" width="6" height="6" /><rect style="fill: rgb(255, 255, 255);" x="18" y="90" width="6" height="6" /><rect style="fill: rgb(255, 255, 255);" x="24" y="90" width="6" height="6" /><rect style="fill: rgb(255, 255, 255);" x="30" y="90" width="6" height="6" /><rect style="fill: rgb(255, 255, 255);" x="42" y="90" width="6" height="6" /><rect style="fill: rgb(255, 255, 255);" x="48" y="90" width="6" height="6" /><rect style="fill: rgb(255, 255, 255);" x="54" y="90" width="6" height="6" /><rect style="fill: rgb(255, 255, 255);" x="60" y="90" width="6" height="6" /><rect style="fill: rgb(255, 255, 255);" x="72" y="90" width="6" height="6" /><rect style="fill: rgb(255, 255, 255);" x="96" y="90" width="6" height="6" /><rect style="fill: rgb(255, 255, 255);" x="102" y="90" width="6" height="6" /><rect style="fill: rgb(255, 255, 255);" x="114" y="90" width="6" height="6" /><rect style="fill: rgb(255, 255, 255);" x="126" y="90" width="6" height="6" /><rect style="fill: rgb(255, 255, 255);" x="132" y="90" width="6" height="6" /><rect style="fill: rgb(255, 255, 255);" x="144" y="90" width="6" height="6" /><rect style="fill: rgb(255, 255, 255);" x="0" y="96" width="6" height="6" /><rect style="fill: rgb(255, 255, 255);" x="12" y="96" width="6" height="6" /><rect style="fill: rgb(255, 255, 255);" x="18" y="96" width="6" height="6" /><rect style="fill: rgb(255, 255, 255);" x="24" y="96" width="6" height="6" /><rect style="fill: rgb(255, 255, 255);" x="30" y="96" width="6" height="6" /><rect style="fill: rgb(255, 255, 255);" x="36" y="96" width="6" height="6" /><rect style="fill: rgb(255, 255, 255);" x="42" y="96" width="6" height="6" /><rect style="fill: rgb(255, 255, 255);" x="66" y="96" width="6" height="6" /><rect style="fill: rgb(255, 255, 255);" x="72" y="96" width="6" height="6" /><rect style="fill: rgb(255, 255, 255);" x="78" y="96" width="6" height="6" /><rect style="fill: rgb(255, 255, 255);" x="90" y="96" width="6" height="6" /><rect style="fill: rgb(255, 255, 255);" x="96" y="96" width="6" height="6" /><rect style="fill: rgb(255, 255, 255);" x="102" y="96" width="6" height="6" /><rect style="fill: rgb(255, 255, 255);" x="108" y="96" width="6" height="6" /><rect style="fill: rgb(255, 255, 255);" x="114" y="96" width="6" height="6" /><rect style="fill: rgb(255, 255, 255);" x="120" y="96" width="6" height="6" /><rect style="fill: rgb(255, 255, 255);" x="132" y="96" width="6" height="6" /><rect style="fill: rgb(255, 255, 255);" x="138" y="96" width="6" height="6" /><rect style="fill: rgb(255, 255, 255);" x="48" y="102" width="6" height="6" /><rect style="fill: rgb(255, 255, 255);" x="54" y="102" width="6" height="6" /><rect style="fill: rgb(255, 255, 255);" x="66" y="102" width="6" height="6" /><rect style="fill: rgb(255, 255, 255);" x="78" y="102" width="6" height="6" /><rect style="fill: rgb(255, 255, 255);" x="84" y="102" width="6" height="6" /><rect style="fill: rgb(255, 255, 255);" x="96" y="102" width="6" height="6" /><rect style="fill: rgb(255, 255, 255);" x="120" y="102" width="6" height="6" /><rect style="fill: rgb(255, 255, 255);" x="132" y="102" width="6" height="6" /><rect style="fill: rgb(255, 255, 255);" x="138" y="102" width="6" height="6" /><rect style="fill: rgb(255, 255, 255);" x="48" y="108" width="6" height="6" /><rect style="fill: rgb(255, 255, 255);" x="72" y="108" width="6" height="6" /><rect style="fill: rgb(255, 255, 255);" x="84" y="108" width="6" height="6" /><rect style="fill: rgb(255, 255, 255);" x="96" y="108" width="6" height="6" /><rect style="fill: rgb(255, 255, 255);" x="108" y="108" width="6" height="6" /><rect style="fill: rgb(255, 255, 255);" x="120" y="108" width="6" height="6" /><rect style="fill: rgb(255, 255, 255);" x="144" y="108" width="6" height="6" /><rect style="fill: rgb(255, 255, 255);" x="48" y="114" width="6" height="6" /><rect style="fill: rgb(255, 255, 255);" x="66" y="114" width="6" height="6" /><rect style="fill: rgb(255, 255, 255);" x="78" y="114" width="6" height="6" /><rect style="fill: rgb(255, 255, 255);" x="84" y="114" width="6" height="6" /><rect style="fill: rgb(255, 255, 255);" x="90" y="114" width="6" height="6" /><rect style="fill: rgb(255, 255, 255);" x="96" y="114" width="6" height="6" /><rect style="fill: rgb(255, 255, 255);" x="120" y="114" width="6" height="6" /><rect style="fill: rgb(255, 255, 255);" x="48" y="120" width="6" height="6" /><rect style="fill: rgb(255, 255, 255);" x="60" y="120" width="6" height="6" /><rect style="fill: rgb(255, 255, 255);" x="66" y="120" width="6" height="6" /><rect style="fill: rgb(255, 255, 255);" x="78" y="120" width="6" height="6" /><rect style="fill: rgb(255, 255, 255);" x="90" y="120" width="6" height="6" /><rect style="fill: rgb(255, 255, 255);" x="96" y="120" width="6" height="6" /><rect style="fill: rgb(255, 255, 255);" x="102" y="120" width="6" height="6" /><rect style="fill: rgb(255, 255, 255);" x="108" y="120" width="6" height="6" /><rect style="fill: rgb(255, 255, 255);" x="114" y="120" width="6" height="6" /><rect style="fill: rgb(255, 255, 255);" x="120" y="120" width="6" height="6" /><rect style="fill: rgb(255, 255, 255);" x="138" y="120" width="6" height="6" /><rect style="fill: rgb(255, 255, 255);" x="144" y="120" width="6" height="6" /><rect style="fill: rgb(255, 255, 255);" x="48" y="126" width="6" height="6" /><rect style="fill: rgb(255, 255, 255);" x="72" y="126" width="6" height="6" /><rect style="fill: rgb(255, 255, 255);" x="78" y="126" width="6" height="6" /><rect style="fill: rgb(255, 255, 255);" x="84" y="126" width="6" height="6" /><rect style="fill: rgb(255, 255, 255);" x="90" y="126" width="6" height="6" /><rect style="fill: rgb(255, 255, 255);" x="108" y="126" width="6" height="6" /><rect style="fill: rgb(255, 255, 255);" x="138" y="126" width="6" height="6" /><rect style="fill: rgb(255, 255, 255);" x="144" y="126" width="6" height="6" /><rect style="fill: rgb(255, 255, 255);" x="60" y="132" width="6" height="6" /><rect style="fill: rgb(255, 255, 255);" x="66" y="132" width="6" height="6" /><rect style="fill: rgb(255, 255, 255);" x="78" y="132" width="6" height="6" /><rect style="fill: rgb(255, 255, 255);" x="90" y="132" width="6" height="6" /><rect style="fill: rgb(255, 255, 255);" x="96" y="132" width="6" height="6" /><rect style="fill: rgb(255, 255, 255);" x="102" y="132" width="6" height="6" /><rect style="fill: rgb(255, 255, 255);" x="120" y="132" width="6" height="6" /><rect style="fill: rgb(255, 255, 255);" x="126" y="132" width="6" height="6" /><rect style="fill: rgb(255, 255, 255);" x="132" y="132" width="6" height="6" /><rect style="fill: rgb(255, 255, 255);" x="138" y="132" width="6" height="6" /><rect style="fill: rgb(255, 255, 255);" x="144" y="132" width="6" height="6" /><rect style="fill: rgb(255, 255, 255);" x="60" y="138" width="6" height="6" /><rect style="fill: rgb(255, 255, 255);" x="66" y="138" width="6" height="6" /><rect style="fill: rgb(255, 255, 255);" x="72" y="138" width="6" height="6" /><rect style="fill: rgb(255, 255, 255);" x="78" y="138" width="6" height="6" /><rect style="fill: rgb(255, 255, 255);" x="114" y="138" width="6" height="6" /><rect style="fill: rgb(255, 255, 255);" x="120" y="138" width="6" height="6" /><rect style="fill: rgb(255, 255, 255);" x="132" y="138" width="6" height="6" /><rect style="fill: rgb(255, 255, 255);" x="138" y="138" width="6" height="6" /><rect style="fill: rgb(255, 255, 255);" x="144" y="138" width="6" height="6" /><rect style="fill: rgb(255, 255, 255);" x="48" y="144" width="6" height="6" /><rect style="fill: rgb(255, 255, 255);" x="60" y="144" width="6" height="6" /><rect style="fill: rgb(255, 255, 255);" x="66" y="144" width="6" height="6" /><rect style="fill: rgb(255, 255, 255);" x="72" y="144" width="6" height="6" /><rect style="fill: rgb(255, 255, 255);" x="78" y="144" width="6" height="6" /><rect style="fill: rgb(255, 255, 255);" x="96" y="144" width="6" height="6" /><rect style="fill: rgb(255, 255, 255);" x="102" y="144" width="6" height="6" /><rect style="fill: rgb(255, 255, 255);" x="126" y="144" width="6" height="6" /><rect style="fill: rgb(255, 255, 255);" x="144" y="144" width="6" height="6" /><g transform="translate(42,0) scale(-0.4204,0.4204)"><circle style="fill:rgb(255,255,255)" cx="50" cy="50" r="25"/></g>
            <g transform="translate(42,150) scale(-0.4204,-0.4204)"><circle style="fill:rgb(255,255,255)" cx="50" cy="50" r="25"/></g>
            <g transform="translate(108,0) scale(0.4204)"><circle style="fill:rgb(255,255,255)" cx="50" cy="50" r="25"/></g><g transform="translate(42,0) scale(-0.4204,0.4204)"><path style="fill:rgb(255,255,255);" d="M85,0H15H0v15v70v15h15h70h15V85V15V0H85z M85,85H15V15h70V85z"/></g>
                <g transform="translate(42,150) scale(-0.4204,-0.4204)"><path style="fill:rgb(255,255,255);" d="M85,0H15H0v15v70v15h15h70h15V85V15V0H85z M85,85H15V15h70V85z"/></g>
                <g transform="translate(108,0) scale(0.4204)"><path style="fill:rgb(255,255,255);" d="M85,0H15H0v15v70v15h15h70h15V85V15V0H85z M85,85H15V15h70V85z"/></g></g></mask>
            <radialGradient id="grad">
                <stop offset="0%" style="stop-color:rgba(0,0,0,1);" />
                <stop offset="100%" style="stop-color:rgba(2,119,189,1);" />
            </radialGradient>
            </defs></g><rect x="0" y="0" width="160" height="160" fill="url(#grad)" mask="url(#gmask)" /></g></svg>