<svg viewBox="0 0 160 160" xmlns="http://www.w3.org/2000/svg">
    <rect x="0" y="0" width="160" height="160" fill="rgba(0,0,0,0)" />
    <g transform="translate(5,5)"><g><defs><mask id="gmask"><g><polygon transform="translate(48 0) scale(0.045)" style="fill: rgb(255, 255, 255);" points="0,50 50,100 100,50 50,0"/><polygon transform="translate(66 0) scale(0.045)" style="fill: rgb(255, 255, 255);" points="0,50 50,100 100,50 50,0"/><polygon transform="translate(72 0) scale(0.045)" style="fill: rgb(255, 255, 255);" points="0,50 50,100 100,50 50,0"/><polygon transform="translate(78 0) scale(0.045)" style="fill: rgb(255, 255, 255);" points="0,50 50,100 100,50 50,0"/><polygon transform="translate(48 6) scale(0.045)" style="fill: rgb(255, 255, 255);" points="0,50 50,100 100,50 50,0"/><polygon transform="translate(54 6) scale(0.045)" style="fill: rgb(255, 255, 255);" points="0,50 50,100 100,50 50,0"/><polygon transform="translate(72 6) scale(0.045)" style="fill: rgb(255, 255, 255);" points="0,50 50,100 100,50 50,0"/><polygon transform="translate(84 6) scale(0.045)" style="fill: rgb(255, 255, 255);" points="0,50 50,100 100,50 50,0"/><polygon transform="translate(96 6) scale(0.045)" style="fill: rgb(255, 255, 255);" points="0,50 50,100 100,50 50,0"/><polygon transform="translate(48 12) scale(0.045)" style="fill: rgb(255, 255, 255);" points="0,50 50,100 100,50 50,0"/><polygon transform="translate(54 12) scale(0.045)" style="fill: rgb(255, 255, 255);" points="0,50 50,100 100,50 50,0"/><polygon transform="translate(60 12) scale(0.045)" style="fill: rgb(255, 255, 255);" points="0,50 50,100 100,50 50,0"/><polygon transform="translate(72 12) scale(0.045)" style="fill: rgb(255, 255, 255);" points="0,50 50,100 100,50 50,0"/><polygon transform="translate(78 12) scale(0.045)" style="fill: rgb(255, 255, 255);" points="0,50 50,100 100,50 50,0"/><polygon transform="translate(84 12) scale(0.045)" style="fill: rgb(255, 255, 255);" points="0,50 50,100 100,50 50,0"/><polygon transform="translate(90 12) scale(0.045)" style="fill: rgb(255, 255, 255);" points="0,50 50,100 100,50 50,0"/><polygon transform="translate(96 12) scale(0.045)" style="fill: rgb(255, 255, 255);" points="0,50 50,100 100,50 50,0"/><polygon transform="translate(78 18) scale(0.045)" style="fill: rgb(255, 255, 255);" points="0,50 50,100 100,50 50,0"/><polygon transform="translate(84 18) scale(0.045)" style="fill: rgb(255, 255, 255);" points="0,50 50,100 100,50 50,0"/><polygon transform="translate(90 18) scale(0.045)" style="fill: rgb(255, 255, 255);" points="0,50 50,100 100,50 50,0"/><polygon transform="translate(96 18) scale(0.045)" style="fill: rgb(255, 255, 255);" points="0,50 50,100 100,50 50,0"/><polygon transform="translate(48 24) scale(0.045)" style="fill: rgb(255, 255, 255);" points="0,50 50,100 100,50 50,0"/><polygon transform="translate(54 24) scale(0.045)" style="fill: rgb(255, 255, 255);" points="0,50 50,100 100,50 50,0"/><polygon transform="translate(66 24) scale(0.045)" style="fill: rgb(255, 255, 255);" points="0,50 50,100 100,50 50,0"/><polygon transform="translate(78 24) scale(0.045)" style="fill: rgb(255, 255, 255);" points="0,50 50,100 100,50 50,0"/><polygon transform="translate(84 24) scale(0.045)" style="fill: rgb(255, 255, 255);" points="0,50 50,100 100,50 50,0"/><polygon transform="translate(96 24) scale(0.045)" style="fill: rgb(255, 255, 255);" points="0,50 50,100 100,50 50,0"/><polygon transform="translate(66 30) scale(0.045)" style="fill: rgb(255, 255, 255);" points="0,50 50,100 100,50 50,0"/><polygon transform="translate(78 30) scale(0.045)" style="fill: rgb(255, 255, 255);" points="0,50 50,100 100,50 50,0"/><polygon transform="translate(84 30) scale(0.045)" style="fill: rgb(255, 255, 255);" points="0,50 50,100 100,50 50,0"/><polygon transform="translate(96 30) scale(0.045)" style="fill: rgb(255, 255, 255);" points="0,50 50,100 100,50 50,0"/><polygon transform="translate(48 36) scale(0.045)" style="fill: rgb(255, 255, 255);" points="0,50 50,100 100,50 50,0"/><polygon transform="translate(60 36) scale(0.045)" style="fill: rgb(255, 255, 255);" points="0,50 50,100 100,50 50,0"/><polygon transform="translate(72 36) scale(0.045)" style="fill: rgb(255, 255, 255);" points="0,50 50,100 100,50 50,0"/><polygon transform="translate(84 36) scale(0.045)" style="fill: rgb(255, 255, 255);" points="0,50 50,100 100,50 50,0"/><polygon transform="translate(96 36) scale(0.045)" style="fill: rgb(255, 255, 255);" points="0,50 50,100 100,50 50,0"/><polygon transform="translate(66 42) scale(0.045)" style="fill: rgb(255, 255, 255);" points="0,50 50,100 100,50 50,0"/><polygon transform="translate(72 42) scale(0.045)" style="fill: rgb(255, 255, 255);" points="0,50 50,100 100,50 50,0"/><polygon transform="translate(78 42) scale(0.045)" style="fill: rgb(255, 255, 255);" points="0,50 50,100 100,50 50,0"/><polygon transform="translate(84 42) scale(0.045)" style="fill: rgb(255, 255, 255);" points="0,50 50,100 100,50 50,0"/><polygon transform="translate(90 42) scale(0.045)" style="fill: rgb(255, 255, 255);" points="0,50 50,100 100,50 50,0"/><polygon transform="translate(0 48) scale(0.045)" style="fill: rgb(255, 255, 255);" points="0,50 50,100 100,50 50,0"/><polygon transform="translate(18 48) scale(0.045)" style="fill: rgb(255, 255, 255);" points="0,50 50,100 100,50 50,0"/><polygon transform="translate(24 48) scale(0.045)" style="fill: rgb(255, 255, 255);" points="0,50 50,100 100,50 50,0"/><polygon transform="translate(30 48) scale(0.045)" style="fill: rgb(255, 255, 255);" points="0,50 50,100 100,50 50,0"/><polygon transform="translate(36 48) scale(0.045)" style="fill: rgb(255, 255, 255);" points="0,50 50,100 100,50 50,0"/><polygon transform="translate(42 48) scale(0.045)" style="fill: rgb(255, 255, 255);" points="0,50 50,100 100,50 50,0"/><polygon transform="translate(48 48) scale(0.045)" style="fill: rgb(255, 255, 255);" points="0,50 50,100 100,50 50,0"/><polygon transform="translate(66 48) scale(0.045)" style="fill: rgb(255, 255, 255);" points="0,50 50,100 100,50 50,0"/><polygon transform="translate(72 48) scale(0.045)" style="fill: rgb(255, 255, 255);" points="0,50 50,100 100,50 50,0"/><polygon transform="translate(84 48) scale(0.045)" style="fill: rgb(255, 255, 255);" points="0,50 50,100 100,50 50,0"/><polygon transform="translate(90 48) scale(0.045)" style="fill: rgb(255, 255, 255);" points="0,50 50,100 100,50 50,0"/><polygon transform="translate(102 48) scale(0.045)" style="fill: rgb(255, 255, 255);" points="0,50 50,100 100,50 50,0"/><polygon transform="translate(120 48) scale(0.045)" style="fill: rgb(255, 255, 255);" points="0,50 50,100 100,50 50,0"/><polygon transform="translate(132 48) scale(0.045)" style="fill: rgb(255, 255, 255);" points="0,50 50,100 100,50 50,0"/><polygon transform="translate(138 48) scale(0.045)" style="fill: rgb(255, 255, 255);" points="0,50 50,100 100,50 50,0"/><polygon transform="translate(144 48) scale(0.045)" style="fill: rgb(255, 255, 255);" points="0,50 50,100 100,50 50,0"/><polygon transform="translate(6 54) scale(0.045)" style="fill: rgb(255, 255, 255);" points="0,50 50,100 100,50 50,0"/><polygon transform="translate(12 54) scale(0.045)" style="fill: rgb(255, 255, 255);" points="0,50 50,100 100,50 50,0"/><polygon transform="translate(18 54) scale(0.045)" style="fill: rgb(255, 255, 255);" points="0,50 50,100 100,50 50,0"/><polygon transform="translate(42 54) scale(0.045)" style="fill: rgb(255, 255, 255);" points="0,50 50,100 100,50 50,0"/><polygon transform="translate(60 54) scale(0.045)" style="fill: rgb(255, 255, 255);" points="0,50 50,100 100,50 50,0"/><polygon transform="translate(66 54) scale(0.045)" style="fill: rgb(255, 255, 255);" points="0,50 50,100 100,50 50,0"/><polygon transform="translate(72 54) scale(0.045)" style="fill: rgb(255, 255, 255);" points="0,50 50,100 100,50 50,0"/><polygon transform="translate(84 54) scale(0.045)" style="fill: rgb(255, 255, 255);" points="0,50 50,100 100,50 50,0"/><polygon transform="translate(90 54) scale(0.045)" style="fill: rgb(255, 255, 255);" points="0,50 50,100 100,50 50,0"/><polygon transform="translate(102 54) scale(0.045)" style="fill: rgb(255, 255, 255);" points="0,50 50,100 100,50 50,0"/><polygon transform="translate(114 54) scale(0.045)" style="fill: rgb(255, 255, 255);" points="0,50 50,100 100,50 50,0"/><polygon transform="translate(120 54) scale(0.045)" style="fill: rgb(255, 255, 255);" points="0,50 50,100 100,50 50,0"/><polygon transform="translate(126 54) scale(0.045)" style="fill: rgb(255, 255, 255);" points="0,50 50,100 100,50 50,0"/><polygon transform="translate(132 54) scale(0.045)" style="fill: rgb(255, 255, 255);" points="0,50 50,100 100,50 50,0"/><polygon transform="translate(138 54) scale(0.045)" style="fill: rgb(255, 255, 255);" points="0,50 50,100 100,50 50,0"/><polygon transform="translate(18 60) scale(0.045)" style="fill: rgb(255, 255, 255);" points="0,50 50,100 100,50 50,0"/><polygon transform="translate(36 60) scale(0.045)" style="fill: rgb(255, 255, 255);" points="0,50 50,100 100,50 50,0"/><polygon transform="translate(54 60) scale(0.045)" style="fill: rgb(255, 255, 255);" points="0,50 50,100 100,50 50,0"/><polygon transform="translate(60 60) scale(0.045)" style="fill: rgb(255, 255, 255);" points="0,50 50,100 100,50 50,0"/><polygon transform="translate(72 60) scale(0.045)" style="fill: rgb(255, 255, 255);" points="0,50 50,100 100,50 50,0"/><polygon transform="translate(78 60) scale(0.045)" style="fill: rgb(255, 255, 255);" points="0,50 50,100 100,50 50,0"/><polygon transform="translate(84 60) scale(0.045)" style="fill: rgb(255, 255, 255);" points="0,50 50,100 100,50 50,0"/><polygon transform="translate(90 60) scale(0.045)" style="fill: rgb(255, 255, 255);" points="0,50 50,100 100,50 50,0"/><polygon transform="translate(108 60) scale(0.045)" style="fill: rgb(255, 255, 255);" points="0,50 50,100 100,50 50,0"/><polygon transform="translate(114 60) scale(0.045)" style="fill: rgb(255, 255, 255);" points="0,50 50,100 100,50 50,0"/><polygon transform="translate(126 60) scale(0.045)" style="fill: rgb(255, 255, 255);" points="0,50 50,100 100,50 50,0"/><polygon transform="translate(144 60) scale(0.045)" style="fill: rgb(255, 255, 255);" points="0,50 50,100 100,50 50,0"/><polygon transform="translate(0 66) scale(0.045)" style="fill: rgb(255, 255, 255);" points="0,50 50,100 100,50 50,0"/><polygon transform="translate(30 66) scale(0.045)" style="fill: rgb(255, 255, 255);" points="0,50 50,100 100,50 50,0"/><polygon transform="translate(42 66) scale(0.045)" style="fill: rgb(255, 255, 255);" points="0,50 50,100 100,50 50,0"/><polygon transform="translate(60 66) scale(0.045)" style="fill: rgb(255, 255, 255);" points="0,50 50,100 100,50 50,0"/><polygon transform="translate(66 66) scale(0.045)" style="fill: rgb(255, 255, 255);" points="0,50 50,100 100,50 50,0"/><polygon transform="translate(90 66) scale(0.045)" style="fill: rgb(255, 255, 255);" points="0,50 50,100 100,50 50,0"/><polygon transform="translate(114 66) scale(0.045)" style="fill: rgb(255, 255, 255);" points="0,50 50,100 100,50 50,0"/><polygon transform="translate(126 66) scale(0.045)" style="fill: rgb(255, 255, 255);" points="0,50 50,100 100,50 50,0"/><polygon transform="translate(132 66) scale(0.045)" style="fill: rgb(255, 255, 255);" points="0,50 50,100 100,50 50,0"/><polygon transform="translate(138 66) scale(0.045)" style="fill: rgb(255, 255, 255);" points="0,50 50,100 100,50 50,0"/><polygon transform="translate(144 66) scale(0.045)" style="fill: rgb(255, 255, 255);" points="0,50 50,100 100,50 50,0"/><polygon transform="translate(0 72) scale(0.045)" style="fill: rgb(255, 255, 255);" points="0,50 50,100 100,50 50,0"/><polygon transform="translate(24 72) scale(0.045)" style="fill: rgb(255, 255, 255);" points="0,50 50,100 100,50 50,0"/><polygon transform="translate(36 72) scale(0.045)" style="fill: rgb(255, 255, 255);" points="0,50 50,100 100,50 50,0"/><polygon transform="translate(42 72) scale(0.045)" style="fill: rgb(255, 255, 255);" points="0,50 50,100 100,50 50,0"/><polygon transform="translate(66 72) scale(0.045)" style="fill: rgb(255, 255, 255);" points="0,50 50,100 100,50 50,0"/><polygon transform="translate(96 72) scale(0.045)" style="fill: rgb(255, 255, 255);" points="0,50 50,100 100,50 50,0"/><polygon transform="translate(108 72) scale(0.045)" style="fill: rgb(255, 255, 255);" points="0,50 50,100 100,50 50,0"/><polygon transform="translate(144 72) scale(0.045)" style="fill: rgb(255, 255, 255);" points="0,50 50,100 100,50 50,0"/><polygon transform="translate(0 78) scale(0.045)" style="fill: rgb(255, 255, 255);" points="0,50 50,100 100,50 50,0"/><polygon transform="translate(6 78) scale(0.045)" style="fill: rgb(255, 255, 255);" points="0,50 50,100 100,50 50,0"/><polygon transform="translate(12 78) scale(0.045)" style="fill: rgb(255, 255, 255);" points="0,50 50,100 100,50 50,0"/><polygon transform="translate(18 78) scale(0.045)" style="fill: rgb(255, 255, 255);" points="0,50 50,100 100,50 50,0"/><polygon transform="translate(42 78) scale(0.045)" style="fill: rgb(255, 255, 255);" points="0,50 50,100 100,50 50,0"/><polygon transform="translate(48 78) scale(0.045)" style="fill: rgb(255, 255, 255);" points="0,50 50,100 100,50 50,0"/><polygon transform="translate(72 78) scale(0.045)" style="fill: rgb(255, 255, 255);" points="0,50 50,100 100,50 50,0"/><polygon transform="translate(84 78) scale(0.045)" style="fill: rgb(255, 255, 255);" points="0,50 50,100 100,50 50,0"/><polygon transform="translate(90 78) scale(0.045)" style="fill: rgb(255, 255, 255);" points="0,50 50,100 100,50 50,0"/><polygon transform="translate(96 78) scale(0.045)" style="fill: rgb(255, 255, 255);" points="0,50 50,100 100,50 50,0"/><polygon transform="translate(102 78) scale(0.045)" style="fill: rgb(255, 255, 255);" points="0,50 50,100 100,50 50,0"/><polygon transform="translate(120 78) scale(0.045)" style="fill: rgb(255, 255, 255);" points="0,50 50,100 100,50 50,0"/><polygon transform="translate(138 78) scale(0.045)" style="fill: rgb(255, 255, 255);" points="0,50 50,100 100,50 50,0"/><polygon transform="translate(0 84) scale(0.045)" style="fill: rgb(255, 255, 255);" points="0,50 50,100 100,50 50,0"/><polygon transform="translate(6 84) scale(0.045)" style="fill: rgb(255, 255, 255);" points="0,50 50,100 100,50 50,0"/><polygon transform="translate(12 84) scale(0.045)" style="fill: rgb(255, 255, 255);" points="0,50 50,100 100,50 50,0"/><polygon transform="translate(30 84) scale(0.045)" style="fill: rgb(255, 255, 255);" points="0,50 50,100 100,50 50,0"/><polygon transform="translate(36 84) scale(0.045)" style="fill: rgb(255, 255, 255);" points="0,50 50,100 100,50 50,0"/><polygon transform="translate(48 84) scale(0.045)" style="fill: rgb(255, 255, 255);" points="0,50 50,100 100,50 50,0"/><polygon transform="translate(60 84) scale(0.045)" style="fill: rgb(255, 255, 255);" points="0,50 50,100 100,50 50,0"/><polygon transform="translate(78 84) scale(0.045)" style="fill: rgb(255, 255, 255);" points="0,50 50,100 100,50 50,0"/><polygon transform="translate(90 84) scale(0.045)" style="fill: rgb(255, 255, 255);" points="0,50 50,100 100,50 50,0"/><polygon transform="translate(102 84) scale(0.045)" style="fill: rgb(255, 255, 255);" points="0,50 50,100 100,50 50,0"/><polygon transform="translate(108 84) scale(0.045)" style="fill: rgb(255, 255, 255);" points="0,50 50,100 100,50 50,0"/><polygon transform="translate(120 84) scale(0.045)" style="fill: rgb(255, 255, 255);" points="0,50 50,100 100,50 50,0"/><polygon transform="translate(126 84) scale(0.045)" style="fill: rgb(255, 255, 255);" points="0,50 50,100 100,50 50,0"/><polygon transform="translate(132 84) scale(0.045)" style="fill: rgb(255, 255, 255);" points="0,50 50,100 100,50 50,0"/><polygon transform="translate(138 84) scale(0.045)" style="fill: rgb(255, 255, 255);" points="0,50 50,100 100,50 50,0"/><polygon transform="translate(144 84) scale(0.045)" style="fill: rgb(255, 255, 255);" points="0,50 50,100 100,50 50,0"/><polygon transform="translate(0 90) scale(0.045)" style="fill: rgb(255, 255, 255);" points="0,50 50,100 100,50 50,0"/><polygon transform="translate(18 90) scale(0.045)" style="fill: rgb(255, 255, 255);" points="0,50 50,100 100,50 50,0"/><polygon transform="translate(24 90) scale(0.045)" style="fill: rgb(255, 255, 255);" points="0,50 50,100 100,50 50,0"/><polygon transform="translate(30 90) scale(0.045)" style="fill: rgb(255, 255, 255);" points="0,50 50,100 100,50 50,0"/><polygon transform="translate(42 90) scale(0.045)" style="fill: rgb(255, 255, 255);" points="0,50 50,100 100,50 50,0"/><polygon transform="translate(48 90) scale(0.045)" style="fill: rgb(255, 255, 255);" points="0,50 50,100 100,50 50,0"/><polygon transform="translate(54 90) scale(0.045)" style="fill: rgb(255, 255, 255);" points="0,50 50,100 100,50 50,0"/><polygon transform="translate(60 90) scale(0.045)" style="fill: rgb(255, 255, 255);" points="0,50 50,100 100,50 50,0"/><polygon transform="translate(72 90) scale(0.045)" style="fill: rgb(255, 255, 255);" points="0,50 50,100 100,50 50,0"/><polygon transform="translate(96 90) scale(0.045)" style="fill: rgb(255, 255, 255);" points="0,50 50,100 100,50 50,0"/><polygon transform="translate(102 90) scale(0.045)" style="fill: rgb(255, 255, 255);" points="0,50 50,100 100,50 50,0"/><polygon transform="translate(114 90) scale(0.045)" style="fill: rgb(255, 255, 255);" points="0,50 50,100 100,50 50,0"/><polygon transform="translate(126 90) scale(0.045)" style="fill: rgb(255, 255, 255);" points="0,50 50,100 100,50 50,0"/><polygon transform="translate(132 90) scale(0.045)" style="fill: rgb(255, 255, 255);" points="0,50 50,100 100,50 50,0"/><polygon transform="translate(144 90) scale(0.045)" style="fill: rgb(255, 255, 255);" points="0,50 50,100 100,50 50,0"/><polygon transform="translate(0 96) scale(0.045)" style="fill: rgb(255, 255, 255);" points="0,50 50,100 100,50 50,0"/><polygon transform="translate(12 96) scale(0.045)" style="fill: rgb(255, 255, 255);" points="0,50 50,100 100,50 50,0"/><polygon transform="translate(18 96) scale(0.045)" style="fill: rgb(255, 255, 255);" points="0,50 50,100 100,50 50,0"/><polygon transform="translate(24 96) scale(0.045)" style="fill: rgb(255, 255, 255);" points="0,50 50,100 100,50 50,0"/><polygon transform="translate(30 96) scale(0.045)" style="fill: rgb(255, 255, 255);" points="0,50 50,100 100,50 50,0"/><polygon transform="translate(36 96) scale(0.045)" style="fill: rgb(255, 255, 255);" points="0,50 50,100 100,50 50,0"/><polygon transform="translate(42 96) scale(0.045)" style="fill: rgb(255, 255, 255);" points="0,50 50,100 100,50 50,0"/><polygon transform="translate(66 96) scale(0.045)" style="fill: rgb(255, 255, 255);" points="0,50 50,100 100,50 50,0"/><polygon transform="translate(72 96) scale(0.045)" style="fill: rgb(255, 255, 255);" points="0,50 50,100 100,50 50,0"/><polygon transform="translate(78 96) scale(0.045)" style="fill: rgb(255, 255, 255);" points="0,50 50,100 100,50 50,0"/><polygon transform="translate(90 96) scale(0.045)" style="fill: rgb(255, 255, 255);" points="0,50 50,100 100,50 50,0"/><polygon transform="translate(96 96) scale(0.045)" style="fill: rgb(255, 255, 255);" points="0,50 50,100 100,50 50,0"/><polygon transform="translate(102 96) scale(0.045)" style="fill: rgb(255, 255, 255);" points="0,50 50,100 100,50 50,0"/><polygon transform="translate(108 96) scale(0.045)" style="fill: rgb(255, 255, 255);" points="0,50 50,100 100,50 50,0"/><polygon transform="translate(114 96) scale(0.045)" style="fill: rgb(255, 255, 255);" points="0,50 50,100 100,50 50,0"/><polygon transform="translate(120 96) scale(0.045)" style="fill: rgb(255, 255, 255);" points="0,50 50,100 100,50 50,0"/><polygon transform="translate(132 96) scale(0.045)" style="fill: rgb(255, 255, 255);" points="0,50 50,100 100,50 50,0"/><polygon transform="translate(138 96) scale(0.045)" style="fill: rgb(255, 255, 255);" points="0,50 50,100 100,50 50,0"/><polygon transform="translate(48 102) scale(0.045)" style="fill: rgb(255, 255, 255);" points="0,50 50,100 100,50 50,0"/><polygon transform="translate(54 102) scale(0.045)" style="fill: rgb(255, 255, 255);" points="0,50 50,100 100,50 50,0"/><polygon transform="translate(66 102) scale(0.045)" style="fill: rgb(255, 255, 255);" points="0,50 50,100 100,50 50,0"/><polygon transform="translate(78 102) scale(0.045)" style="fill: rgb(255, 255, 255);" points="0,50 50,100 100,50 50,0"/><polygon transform="translate(84 102) scale(0.045)" style="fill: rgb(255, 255, 255);" points="0,50 50,100 100,50 50,0"/><polygon transform="translate(96 102) scale(0.045)" style="fill: rgb(255, 255, 255);" points="0,50 50,100 100,50 50,0"/><polygon transform="translate(120 102) scale(0.045)" style="fill: rgb(255, 255, 255);" points="0,50 50,100 100,50 50,0"/><polygon transform="translate(132 102) scale(0.045)" style="fill: rgb(255, 255, 255);" points="0,50 50,100 100,50 50,0"/><polygon transform="translate(138 102) scale(0.045)" style="fill: rgb(255, 255, 255);" points="0,50 50,100 100,50 50,0"/><polygon transform="translate(48 108) scale(0.045)" style="fill: rgb(255, 255, 255);" points="0,50 50,100 100,50 50,0"/><polygon transform="translate(72 108) scale(0.045)" style="fill: rgb(255, 255, 255);" points="0,50 50,100 100,50 50,0"/><polygon transform="translate(84 108) scale(0.045)" style="fill: rgb(255, 255, 255);" points="0,50 50,100 100,50 50,0"/><polygon transform="translate(96 108) scale(0.045)" style="fill: rgb(255, 255, 255);" points="0,50 50,100 100,50 50,0"/><polygon transform="translate(108 108) scale(0.045)" style="fill: rgb(255, 255, 255);" points="0,50 50,100 100,50 50,0"/><polygon transform="translate(120 108) scale(0.045)" style="fill: rgb(255, 255, 255);" points="0,50 50,100 100,50 50,0"/><polygon transform="translate(144 108) scale(0.045)" style="fill: rgb(255, 255, 255);" points="0,50 50,100 100,50 50,0"/><polygon transform="translate(48 114) scale(0.045)" style="fill: rgb(255, 255, 255);" points="0,50 50,100 100,50 50,0"/><polygon transform="translate(66 114) scale(0.045)" style="fill: rgb(255, 255, 255);" points="0,50 50,100 100,50 50,0"/><polygon transform="translate(78 114) scale(0.045)" style="fill: rgb(255, 255, 255);" points="0,50 50,100 100,50 50,0"/><polygon transform="translate(84 114) scale(0.045)" style="fill: rgb(255, 255, 255);" points="0,50 50,100 100,50 50,0"/><polygon transform="translate(90 114) scale(0.045)" style="fill: rgb(255, 255, 255);" points="0,50 50,100 100,50 50,0"/><polygon transform="translate(96 114) scale(0.045)" style="fill: rgb(255, 255, 255);" points="0,50 50,100 100,50 50,0"/><polygon transform="translate(120 114) scale(0.045)" style="fill: rgb(255, 255, 255);" points="0,50 50,100 100,50 50,0"/><polygon transform="translate(48 120) scale(0.045)" style="fill: rgb(255, 255, 255);" points="0,50 50,100 100,50 50,0"/><polygon transform="translate(60 120) scale(0.045)" style="fill: rgb(255, 255, 255);" points="0,50 50,100 100,50 50,0"/><polygon transform="translate(66 120) scale(0.045)" style="fill: rgb(255, 255, 255);" points="0,50 50,100 100,50 50,0"/><polygon transform="translate(78 120) scale(0.045)" style="fill: rgb(255, 255, 255);" points="0,50 50,100 100,50 50,0"/><polygon transform="translate(90 120) scale(0.045)" style="fill: rgb(255, 255, 255);" points="0,50 50,100 100,50 50,0"/><polygon transform="translate(96 120) scale(0.045)" style="fill: rgb(255, 255, 255);" points="0,50 50,100 100,50 50,0"/><polygon transform="translate(102 120) scale(0.045)" style="fill: rgb(255, 255, 255);" points="0,50 50,100 100,50 50,0"/><polygon transform="translate(108 120) scale(0.045)" style="fill: rgb(255, 255, 255);" points="0,50 50,100 100,50 50,0"/><polygon transform="translate(114 120) scale(0.045)" style="fill: rgb(255, 255, 255);" points="0,50 50,100 100,50 50,0"/><polygon transform="translate(120 120) scale(0.045)" style="fill: rgb(255, 255, 255);" points="0,50 50,100 100,50 50,0"/><polygon transform="translate(138 120) scale(0.045)" style="fill: rgb(255, 255, 255);" points="0,50 50,100 100,50 50,0"/><polygon transform="translate(144 120) scale(0.045)" style="fill: rgb(255, 255, 255);" points="0,50 50,100 100,50 50,0"/><polygon transform="translate(48 126) scale(0.045)" style="fill: rgb(255, 255, 255);" points="0,50 50,100 100,50 50,0"/><polygon transform="translate(72 126) scale(0.045)" style="fill: rgb(255, 255, 255);" points="0,50 50,100 100,50 50,0"/><polygon transform="translate(78 126) scale(0.045)" style="fill: rgb(255, 255, 255);" points="0,50 50,100 100,50 50,0"/><polygon transform="translate(84 126) scale(0.045)" style="fill: rgb(255, 255, 255);" points="0,50 50,100 100,50 50,0"/><polygon transform="translate(90 126) scale(0.045)" style="fill: rgb(255, 255, 255);" points="0,50 50,100 100,50 50,0"/><polygon transform="translate(108 126) scale(0.045)" style="fill: rgb(255, 255, 255);" points="0,50 50,100 100,50 50,0"/><polygon transform="translate(138 126) scale(0.045)" style="fill: rgb(255, 255, 255);" points="0,50 50,100 100,50 50,0"/><polygon transform="translate(144 126) scale(0.045)" style="fill: rgb(255, 255, 255);" points="0,50 50,100 100,50 50,0"/><polygon transform="translate(60 132) scale(0.045)" style="fill: rgb(255, 255, 255);" points="0,50 50,100 100,50 50,0"/><polygon transform="translate(66 132) scale(0.045)" style="fill: rgb(255, 255, 255);" points="0,50 50,100 100,50 50,0"/><polygon transform="translate(78 132) scale(0.045)" style="fill: rgb(255, 255, 255);" points="0,50 50,100 100,50 50,0"/><polygon transform="translate(90 132) scale(0.045)" style="fill: rgb(255, 255, 255);" points="0,50 50,100 100,50 50,0"/><polygon transform="translate(96 132) scale(0.045)" style="fill: rgb(255, 255, 255);" points="0,50 50,100 100,50 50,0"/><polygon transform="translate(102 132) scale(0.045)" style="fill: rgb(255, 255, 255);" points="0,50 50,100 100,50 50,0"/><polygon transform="translate(120 132) scale(0.045)" style="fill: rgb(255, 255, 255);" points="0,50 50,100 100,50 50,0"/><polygon transform="translate(126 132) scale(0.045)" style="fill: rgb(255, 255, 255);" points="0,50 50,100 100,50 50,0"/><polygon transform="translate(132 132) scale(0.045)" style="fill: rgb(255, 255, 255);" points="0,50 50,100 100,50 50,0"/><polygon transform="translate(138 132) scale(0.045)" style="fill: rgb(255, 255, 255);" points="0,50 50,100 100,50 50,0"/><polygon transform="translate(144 132) scale(0.045)" style="fill: rgb(255, 255, 255);" points="0,50 50,100 100,50 50,0"/><polygon transform="translate(60 138) scale(0.045)" style="fill: rgb(255, 255, 255);" points="0,50 50,100 100,50 50,0"/><polygon transform="translate(66 138) scale(0.045)" style="fill: rgb(255, 255, 255);" points="0,50 50,100 100,50 50,0"/><polygon transform="translate(72 138) scale(0.045)" style="fill: rgb(255, 255, 255);" points="0,50 50,100 100,50 50,0"/><polygon transform="translate(78 138) scale(0.045)" style="fill: rgb(255, 255, 255);" points="0,50 50,100 100,50 50,0"/><polygon transform="translate(114 138) scale(0.045)" style="fill: rgb(255, 255, 255);" points="0,50 50,100 100,50 50,0"/><polygon transform="translate(120 138) scale(0.045)" style="fill: rgb(255, 255, 255);" points="0,50 50,100 100,50 50,0"/><polygon transform="translate(132 138) scale(0.045)" style="fill: rgb(255, 255, 255);" points="0,50 50,100 100,50 50,0"/><polygon transform="translate(138 138) scale(0.045)" style="fill: rgb(255, 255, 255);" points="0,50 50,100 100,50 50,0"/><polygon transform="translate(144 138) scale(0.045)" style="fill: rgb(255, 255, 255);" points="0,50 50,100 100,50 50,0"/><polygon transform="translate(48 144) scale(0.045)" style="fill: rgb(255, 255, 255);" points="0,50 50,100 100,50 50,0"/><polygon transform="translate(60 144) scale(0.045)" style="fill: rgb(255, 255, 255);" points="0,50 50,100 100,50 50,0"/><polygon transform="translate(66 144) scale(0.045)" style="fill: rgb(255, 255, 255);" points="0,50 50,100 100,50 50,0"/><polygon transform="translate(72 144) scale(0.045)" style="fill: rgb(255, 255, 255);" points="0,50 50,100 100,50 50,0"/><polygon transform="translate(78 144) scale(0.045)" style="fill: rgb(255, 255, 255);" points="0,50 50,100 100,50 50,0"/><polygon transform="translate(96 144) scale(0.045)" style="fill: rgb(255, 255, 255);" points="0,50 50,100 100,50 50,0"/><polygon transform="translate(102 144) scale(0.045)" style="fill: rgb(255, 255, 255);" points="0,50 50,100 100,50 50,0"/><polygon transform="translate(126 144) scale(0.045)" style="fill: rgb(255, 255, 255);" points="0,50 50,100 100,50 50,0"/><polygon transform="translate(144 144) scale(0.045)" style="fill: rgb(255, 255, 255);" points="0,50 50,100 100,50 50,0"/><g transform="translate(42,0) scale(-0.4204,0.4204)"><path style="fill:rgb(255,255,255)"  transform="translate(75,25) scale(-0.5 0.5)" d="M21.468,99.999c-6.65,0-12.966-6.875-13.959-13.225L0.003-0.001L88.13,5.638c6.21,0.93,11.099,6.823,11.105,13.866 l0.762,80.495H21.468z"/></g>
            <g transform="translate(42,150) scale(-0.4204,-0.4204)"><path style="fill:rgb(255,255,255)"  transform="translate(75,25) scale(-0.5 0.5)" d="M21.468,99.999c-6.65,0-12.966-6.875-13.959-13.225L0.003-0.001L88.13,5.638c6.21,0.93,11.099,6.823,11.105,13.866 l0.762,80.495H21.468z"/></g>
            <g transform="translate(108,0) scale(0.4204)"><path style="fill:rgb(255,255,255)"  transform="translate(75,25) scale(-0.5 0.5)" d="M21.468,99.999c-6.65,0-12.966-6.875-13.959-13.225L0.003-0.001L88.13,5.638c6.21,0.93,11.099,6.823,11.105,13.866 l0.762,80.495H21.468z"/></g><g transform="translate(42,0) scale(-0.4204,0.4204)"><path fill="rgb(255,255,255)" transform="translate(100 0) scale(-1 1)" d="M21.475,99.992c-6.648,0-12.964-6.852-13.958-13.207L0.011-0.008l88.112,5.649c6.212,0.931,11.096,6.804,11.104,13.848
                    l0.762,80.503H21.475z M85.706,85.71l-0.544-57.492c-0.005-5.029-3.495-9.233-7.931-9.898l-62.938-4.03l5.36,61.98
                    c0.71,4.536,5.222,9.44,9.971,9.44H85.706z"/></g>
                <g transform="translate(42,150) scale(-0.4204,-0.4204)"><path fill="rgb(255,255,255)" transform="translate(100 0) scale(-1 1)" d="M21.475,99.992c-6.648,0-12.964-6.852-13.958-13.207L0.011-0.008l88.112,5.649c6.212,0.931,11.096,6.804,11.104,13.848
                    l0.762,80.503H21.475z M85.706,85.71l-0.544-57.492c-0.005-5.029-3.495-9.233-7.931-9.898l-62.938-4.03l5.36,61.98
                    c0.71,4.536,5.222,9.44,9.971,9.44H85.706z"/></g>
                <g transform="translate(108,0) scale(0.4204)"><path fill="rgb(255,255,255)" transform="translate(100 0) scale(-1 1)" d="M21.475,99.992c-6.648,0-12.964-6.852-13.958-13.207L0.011-0.008l88.112,5.649c6.212,0.931,11.096,6.804,11.104,13.848
                    l0.762,80.503H21.475z M85.706,85.71l-0.544-57.492c-0.005-5.029-3.495-9.233-7.931-9.898l-62.938-4.03l5.36,61.98
                    c0.71,4.536,5.222,9.44,9.971,9.44H85.706z"/></g></g></mask>
            <radialGradient id="grad">
                <stop offset="0%" style="stop-color:rgba(0,0,0,1);" />
                <stop offset="100%" style="stop-color:rgba(2,119,189,1);" />
            </radialGradient>
            </defs></g><rect x="0" y="0" width="160" height="160" fill="url(#grad)" mask="url(#gmask)" /></g></svg>